M48
; DRILL file {KiCad 8.0.5} date 2024-10-07T10:38:10+0900
; FORMAT={-:-/ absolute / metric / decimal}
; #@! TF.CreationDate,2024-10-07T10:38:10+09:00
; #@! TF.GenerationSoftware,Kicad,Pcbnew,8.0.5
; #@! TF.FileFunction,Plated,1,2,PTH
FMAT,2
METRIC
; #@! TA.AperFunction,Plated,PTH,ViaDrill
T1C0.300
; #@! TA.AperFunction,Plated,PTH,ViaDrill
T2C0.400
; #@! TA.AperFunction,Plated,PTH,ViaDrill
T3C0.500
; #@! TA.AperFunction,Plated,PTH,ComponentDrill
T4C0.840
; #@! TA.AperFunction,Plated,PTH,ComponentDrill
T5C0.890
; #@! TA.AperFunction,Plated,PTH,ComponentDrill
T6C1.000
; #@! TA.AperFunction,Plated,PTH,ComponentDrill
T7C1.850
; #@! TA.AperFunction,Plated,PTH,ComponentDrill
T8C2.000
; #@! TA.AperFunction,Plated,PTH,ComponentDrill
T9C2.010
; #@! TA.AperFunction,Plated,PTH,ComponentDrill
T10C2.700
%
G90
G05
T1
X109.537Y-63.5
X110.983Y-63.5
X111.125Y-101.6
T2
X108.267Y-55.88
X108.267Y-58.42
T3
X114.3Y-102.87
X115.57Y-64.77
X116.84Y-102.87
X118.745Y-64.77
X119.38Y-102.87
X120.015Y-55.88
X120.015Y-58.42
X123.698Y-104.902
X123.698Y-106.426
X125.222Y-104.902
X125.222Y-106.426
T4
X118.745Y-93.345
X118.745Y-95.885
X120.015Y-94.615
X121.285Y-93.345
X121.285Y-95.885
T5
X94.29Y-58.42
X94.29Y-60.96
T6
X84.665Y-99.08
X84.665Y-101.58
X95.905Y-41.485
X98.405Y-41.485
X107.315Y-41.91
X107.315Y-94.932
X109.855Y-41.91
X112.395Y-94.932
X117.475Y-41.91
X120.015Y-41.91
X122.555Y-41.91
X140.335Y-104.775
X140.335Y-111.76
X167.64Y-66.895
X167.64Y-94.395
X177.8Y-59.69
X177.8Y-103.505
T7
X181.455Y-66.52
X181.455Y-72.39
X181.61Y-90.17
X181.61Y-96.04
X187.325Y-66.52
X187.325Y-72.39
X187.48Y-90.17
X187.48Y-96.04
T8
X140.335Y-67.945
X140.335Y-99.06
T9
X89.21Y-53.34
X89.21Y-63.5
T10
X131.445Y-55.499
X131.445Y-60.96
X131.445Y-66.421
X131.445Y-99.187
X131.445Y-104.648
X131.445Y-110.109
X131.445Y-115.57
M30
