G04 #@! TF.GenerationSoftware,KiCad,Pcbnew,8.0.5*
G04 #@! TF.CreationDate,2024-10-07T10:38:08+09:00*
G04 #@! TF.ProjectId,drainpulse,64726169-6e70-4756-9c73-652e6b696361,rev?*
G04 #@! TF.SameCoordinates,Original*
G04 #@! TF.FileFunction,Legend,Top*
G04 #@! TF.FilePolarity,Positive*
%FSLAX46Y46*%
G04 Gerber Fmt 4.6, Leading zero omitted, Abs format (unit mm)*
G04 Created by KiCad (PCBNEW 8.0.5) date 2024-10-07 10:38:08*
%MOMM*%
%LPD*%
G01*
G04 APERTURE LIST*
G04 Aperture macros list*
%AMRoundRect*
0 Rectangle with rounded corners*
0 $1 Rounding radius*
0 $2 $3 $4 $5 $6 $7 $8 $9 X,Y pos of 4 corners*
0 Add a 4 corners polygon primitive as box body*
4,1,4,$2,$3,$4,$5,$6,$7,$8,$9,$2,$3,0*
0 Add four circle primitives for the rounded corners*
1,1,$1+$1,$2,$3*
1,1,$1+$1,$4,$5*
1,1,$1+$1,$6,$7*
1,1,$1+$1,$8,$9*
0 Add four rect primitives between the rounded corners*
20,1,$1+$1,$2,$3,$4,$5,0*
20,1,$1+$1,$4,$5,$6,$7,0*
20,1,$1+$1,$6,$7,$8,$9,0*
20,1,$1+$1,$8,$9,$2,$3,0*%
G04 Aperture macros list end*
%ADD10C,0.120000*%
%ADD11C,0.100000*%
%ADD12C,0.150000*%
%ADD13C,0.254000*%
%ADD14C,0.200000*%
%ADD15RoundRect,0.050000X0.850000X-0.425000X0.850000X0.425000X-0.850000X0.425000X-0.850000X-0.425000X0*%
%ADD16C,1.900000*%
%ADD17RoundRect,0.050000X-1.150000X-1.150000X1.150000X-1.150000X1.150000X1.150000X-1.150000X1.150000X0*%
%ADD18C,3.300000*%
%ADD19RoundRect,0.050000X-1.450000X1.350000X-1.450000X-1.350000X1.450000X-1.350000X1.450000X1.350000X0*%
%ADD20RoundRect,0.050000X-0.850000X-0.850000X0.850000X-0.850000X0.850000X0.850000X-0.850000X0.850000X0*%
%ADD21O,1.800000X1.800000*%
%ADD22O,1.800000X1.700000*%
%ADD23C,4.100000*%
%ADD24RoundRect,0.271277X-0.503723X0.366223X-0.503723X-0.366223X0.503723X-0.366223X0.503723X0.366223X0*%
%ADD25O,2.600000X1.700000*%
%ADD26O,7.100000X3.600000*%
%ADD27RoundRect,0.050000X0.750000X-0.750000X0.750000X0.750000X-0.750000X0.750000X-0.750000X-0.750000X0*%
%ADD28C,1.600000*%
%ADD29RoundRect,0.270833X-0.479167X0.379167X-0.479167X-0.379167X0.479167X-0.379167X0.479167X0.379167X0*%
%ADD30C,1.500000*%
%ADD31RoundRect,0.256412X-1.743588X-1.743588X1.743588X-1.743588X1.743588X1.743588X-1.743588X1.743588X0*%
%ADD32RoundRect,0.271277X0.366223X0.503723X-0.366223X0.503723X-0.366223X-0.503723X0.366223X-0.503723X0*%
%ADD33RoundRect,0.271277X-0.366223X-0.503723X0.366223X-0.503723X0.366223X0.503723X-0.366223X0.503723X0*%
%ADD34RoundRect,0.269231X-0.430769X-0.655769X0.430769X-0.655769X0.430769X0.655769X-0.430769X0.655769X0*%
%ADD35RoundRect,0.269231X0.430769X0.655769X-0.430769X0.655769X-0.430769X-0.655769X0.430769X-0.655769X0*%
G04 APERTURE END LIST*
D10*
X155892957Y-98299573D02*
X155131053Y-98299573D01*
X154654862Y-98299573D02*
X153892958Y-98299573D01*
X153416767Y-98299573D02*
X152654863Y-98299573D01*
X152178672Y-98299573D02*
X151416768Y-98299573D01*
X150940577Y-98299573D02*
X150178673Y-98299573D01*
X149702482Y-98299573D02*
X148940578Y-98299573D01*
X148464387Y-98585287D02*
X147702483Y-98299573D01*
X147702483Y-98299573D02*
X148464387Y-98013859D01*
X148907042Y-100201379D02*
X148907042Y-99201379D01*
X149811803Y-100201379D02*
X149811803Y-99201379D01*
X149811803Y-100153760D02*
X149716565Y-100201379D01*
X149716565Y-100201379D02*
X149526089Y-100201379D01*
X149526089Y-100201379D02*
X149430851Y-100153760D01*
X149430851Y-100153760D02*
X149383232Y-100106140D01*
X149383232Y-100106140D02*
X149335613Y-100010902D01*
X149335613Y-100010902D02*
X149335613Y-99725188D01*
X149335613Y-99725188D02*
X149383232Y-99629950D01*
X149383232Y-99629950D02*
X149430851Y-99582331D01*
X149430851Y-99582331D02*
X149526089Y-99534712D01*
X149526089Y-99534712D02*
X149716565Y-99534712D01*
X149716565Y-99534712D02*
X149811803Y-99582331D01*
X151764184Y-99153760D02*
X150907042Y-100439474D01*
X152859423Y-100201379D02*
X152859423Y-99201379D01*
X153764184Y-100201379D02*
X153764184Y-99201379D01*
X153764184Y-100153760D02*
X153668946Y-100201379D01*
X153668946Y-100201379D02*
X153478470Y-100201379D01*
X153478470Y-100201379D02*
X153383232Y-100153760D01*
X153383232Y-100153760D02*
X153335613Y-100106140D01*
X153335613Y-100106140D02*
X153287994Y-100010902D01*
X153287994Y-100010902D02*
X153287994Y-99725188D01*
X153287994Y-99725188D02*
X153335613Y-99629950D01*
X153335613Y-99629950D02*
X153383232Y-99582331D01*
X153383232Y-99582331D02*
X153478470Y-99534712D01*
X153478470Y-99534712D02*
X153668946Y-99534712D01*
X153668946Y-99534712D02*
X153764184Y-99582331D01*
X154240375Y-100201379D02*
X154240375Y-99534712D01*
X154240375Y-99201379D02*
X154192756Y-99248998D01*
X154192756Y-99248998D02*
X154240375Y-99296617D01*
X154240375Y-99296617D02*
X154287994Y-99248998D01*
X154287994Y-99248998D02*
X154240375Y-99201379D01*
X154240375Y-99201379D02*
X154240375Y-99296617D01*
X154859422Y-100201379D02*
X154764184Y-100153760D01*
X154764184Y-100153760D02*
X154716565Y-100106140D01*
X154716565Y-100106140D02*
X154668946Y-100010902D01*
X154668946Y-100010902D02*
X154668946Y-99725188D01*
X154668946Y-99725188D02*
X154716565Y-99629950D01*
X154716565Y-99629950D02*
X154764184Y-99582331D01*
X154764184Y-99582331D02*
X154859422Y-99534712D01*
X154859422Y-99534712D02*
X155002279Y-99534712D01*
X155002279Y-99534712D02*
X155097517Y-99582331D01*
X155097517Y-99582331D02*
X155145136Y-99629950D01*
X155145136Y-99629950D02*
X155192755Y-99725188D01*
X155192755Y-99725188D02*
X155192755Y-100010902D01*
X155192755Y-100010902D02*
X155145136Y-100106140D01*
X155145136Y-100106140D02*
X155097517Y-100153760D01*
X155097517Y-100153760D02*
X155002279Y-100201379D01*
X155002279Y-100201379D02*
X154859422Y-100201379D01*
X156049898Y-100201379D02*
X156049898Y-99201379D01*
X156049898Y-100153760D02*
X155954660Y-100201379D01*
X155954660Y-100201379D02*
X155764184Y-100201379D01*
X155764184Y-100201379D02*
X155668946Y-100153760D01*
X155668946Y-100153760D02*
X155621327Y-100106140D01*
X155621327Y-100106140D02*
X155573708Y-100010902D01*
X155573708Y-100010902D02*
X155573708Y-99725188D01*
X155573708Y-99725188D02*
X155621327Y-99629950D01*
X155621327Y-99629950D02*
X155668946Y-99582331D01*
X155668946Y-99582331D02*
X155764184Y-99534712D01*
X155764184Y-99534712D02*
X155954660Y-99534712D01*
X155954660Y-99534712D02*
X156049898Y-99582331D01*
X156907041Y-100153760D02*
X156811803Y-100201379D01*
X156811803Y-100201379D02*
X156621327Y-100201379D01*
X156621327Y-100201379D02*
X156526089Y-100153760D01*
X156526089Y-100153760D02*
X156478470Y-100058521D01*
X156478470Y-100058521D02*
X156478470Y-99677569D01*
X156478470Y-99677569D02*
X156526089Y-99582331D01*
X156526089Y-99582331D02*
X156621327Y-99534712D01*
X156621327Y-99534712D02*
X156811803Y-99534712D01*
X156811803Y-99534712D02*
X156907041Y-99582331D01*
X156907041Y-99582331D02*
X156954660Y-99677569D01*
X156954660Y-99677569D02*
X156954660Y-99772807D01*
X156954660Y-99772807D02*
X156478470Y-99868045D01*
X113450482Y-69532957D02*
X113450482Y-68771053D01*
X113450482Y-68294862D02*
X113450482Y-67532958D01*
X113450482Y-67056767D02*
X113450482Y-66294863D01*
X113450482Y-65818672D02*
X113450482Y-65056768D01*
X113450482Y-64580577D02*
X113450482Y-63818673D01*
X113450482Y-63342482D02*
X113450482Y-62580578D01*
X113450482Y-62104387D02*
X113450482Y-61342483D01*
X113450482Y-60866292D02*
X113450482Y-60104388D01*
X113450482Y-59628197D02*
X113450482Y-58866293D01*
X113450482Y-58390102D02*
X113450482Y-57628198D01*
X113450482Y-57152007D02*
X113450482Y-56390103D01*
X113450482Y-55913912D02*
X113450482Y-55152008D01*
X113450482Y-54675817D02*
X113450482Y-53913913D01*
X113450482Y-53437722D02*
X113450482Y-52675818D01*
X113450482Y-52199627D02*
X113450482Y-51437723D01*
X113450482Y-50961532D02*
X113450482Y-50199628D01*
X113450482Y-49723437D02*
X113450482Y-48961533D01*
X113450482Y-48485342D02*
X113450482Y-47723438D01*
X113450482Y-47247247D02*
X113450482Y-46485343D01*
X113450482Y-46009152D02*
X113450482Y-45247248D01*
X113450482Y-44771057D02*
X113450482Y-44009153D01*
X113450482Y-43532962D02*
X113450482Y-42771058D01*
X113450482Y-42294867D02*
X113450482Y-41532963D01*
X113450482Y-41056772D02*
X113450482Y-40294868D01*
X115060426Y-69532957D02*
X115060426Y-68771053D01*
X115060426Y-68294862D02*
X115060426Y-67532958D01*
X115060426Y-67056767D02*
X115060426Y-66294863D01*
X115060426Y-65818672D02*
X115060426Y-65056768D01*
X115060426Y-64580577D02*
X115060426Y-63818673D01*
X115060426Y-63342482D02*
X115060426Y-62580578D01*
X115060426Y-62104387D02*
X115060426Y-61342483D01*
X115060426Y-60866292D02*
X115060426Y-60104388D01*
X115060426Y-59628197D02*
X115060426Y-58866293D01*
X115060426Y-58390102D02*
X115060426Y-57628198D01*
X115060426Y-57152007D02*
X115060426Y-56390103D01*
X115060426Y-55913912D02*
X115060426Y-55152008D01*
X115060426Y-54675817D02*
X115060426Y-53913913D01*
X115060426Y-53437722D02*
X115060426Y-52675818D01*
X115060426Y-52199627D02*
X115060426Y-51437723D01*
X115060426Y-50961532D02*
X115060426Y-50199628D01*
X115060426Y-49723437D02*
X115060426Y-48961533D01*
X115060426Y-48485342D02*
X115060426Y-47723438D01*
X115060426Y-47247247D02*
X115060426Y-46485343D01*
X115060426Y-46009152D02*
X115060426Y-45247248D01*
X115060426Y-44771057D02*
X115060426Y-44009153D01*
X115060426Y-43532962D02*
X115060426Y-42771058D01*
X115060426Y-42294867D02*
X115060426Y-41532963D01*
X115060426Y-41056772D02*
X115060426Y-40294868D01*
X111442042Y-70991379D02*
X111442042Y-69991379D01*
X111870613Y-70943760D02*
X111965851Y-70991379D01*
X111965851Y-70991379D02*
X112156327Y-70991379D01*
X112156327Y-70991379D02*
X112251565Y-70943760D01*
X112251565Y-70943760D02*
X112299184Y-70848521D01*
X112299184Y-70848521D02*
X112299184Y-70800902D01*
X112299184Y-70800902D02*
X112251565Y-70705664D01*
X112251565Y-70705664D02*
X112156327Y-70658045D01*
X112156327Y-70658045D02*
X112013470Y-70658045D01*
X112013470Y-70658045D02*
X111918232Y-70610426D01*
X111918232Y-70610426D02*
X111870613Y-70515188D01*
X111870613Y-70515188D02*
X111870613Y-70467569D01*
X111870613Y-70467569D02*
X111918232Y-70372331D01*
X111918232Y-70372331D02*
X112013470Y-70324712D01*
X112013470Y-70324712D02*
X112156327Y-70324712D01*
X112156327Y-70324712D02*
X112251565Y-70372331D01*
X112870613Y-70991379D02*
X112775375Y-70943760D01*
X112775375Y-70943760D02*
X112727756Y-70896140D01*
X112727756Y-70896140D02*
X112680137Y-70800902D01*
X112680137Y-70800902D02*
X112680137Y-70515188D01*
X112680137Y-70515188D02*
X112727756Y-70419950D01*
X112727756Y-70419950D02*
X112775375Y-70372331D01*
X112775375Y-70372331D02*
X112870613Y-70324712D01*
X112870613Y-70324712D02*
X113013470Y-70324712D01*
X113013470Y-70324712D02*
X113108708Y-70372331D01*
X113108708Y-70372331D02*
X113156327Y-70419950D01*
X113156327Y-70419950D02*
X113203946Y-70515188D01*
X113203946Y-70515188D02*
X113203946Y-70800902D01*
X113203946Y-70800902D02*
X113156327Y-70896140D01*
X113156327Y-70896140D02*
X113108708Y-70943760D01*
X113108708Y-70943760D02*
X113013470Y-70991379D01*
X113013470Y-70991379D02*
X112870613Y-70991379D01*
X113775375Y-70991379D02*
X113680137Y-70943760D01*
X113680137Y-70943760D02*
X113632518Y-70848521D01*
X113632518Y-70848521D02*
X113632518Y-69991379D01*
X114584899Y-70991379D02*
X114584899Y-70467569D01*
X114584899Y-70467569D02*
X114537280Y-70372331D01*
X114537280Y-70372331D02*
X114442042Y-70324712D01*
X114442042Y-70324712D02*
X114251566Y-70324712D01*
X114251566Y-70324712D02*
X114156328Y-70372331D01*
X114584899Y-70943760D02*
X114489661Y-70991379D01*
X114489661Y-70991379D02*
X114251566Y-70991379D01*
X114251566Y-70991379D02*
X114156328Y-70943760D01*
X114156328Y-70943760D02*
X114108709Y-70848521D01*
X114108709Y-70848521D02*
X114108709Y-70753283D01*
X114108709Y-70753283D02*
X114156328Y-70658045D01*
X114156328Y-70658045D02*
X114251566Y-70610426D01*
X114251566Y-70610426D02*
X114489661Y-70610426D01*
X114489661Y-70610426D02*
X114584899Y-70562807D01*
X114918233Y-70324712D02*
X115299185Y-70324712D01*
X115061090Y-69991379D02*
X115061090Y-70848521D01*
X115061090Y-70848521D02*
X115108709Y-70943760D01*
X115108709Y-70943760D02*
X115203947Y-70991379D01*
X115203947Y-70991379D02*
X115299185Y-70991379D01*
X115632519Y-70991379D02*
X115632519Y-70324712D01*
X115632519Y-69991379D02*
X115584900Y-70038998D01*
X115584900Y-70038998D02*
X115632519Y-70086617D01*
X115632519Y-70086617D02*
X115680138Y-70038998D01*
X115680138Y-70038998D02*
X115632519Y-69991379D01*
X115632519Y-69991379D02*
X115632519Y-70086617D01*
X116251566Y-70991379D02*
X116156328Y-70943760D01*
X116156328Y-70943760D02*
X116108709Y-70896140D01*
X116108709Y-70896140D02*
X116061090Y-70800902D01*
X116061090Y-70800902D02*
X116061090Y-70515188D01*
X116061090Y-70515188D02*
X116108709Y-70419950D01*
X116108709Y-70419950D02*
X116156328Y-70372331D01*
X116156328Y-70372331D02*
X116251566Y-70324712D01*
X116251566Y-70324712D02*
X116394423Y-70324712D01*
X116394423Y-70324712D02*
X116489661Y-70372331D01*
X116489661Y-70372331D02*
X116537280Y-70419950D01*
X116537280Y-70419950D02*
X116584899Y-70515188D01*
X116584899Y-70515188D02*
X116584899Y-70800902D01*
X116584899Y-70800902D02*
X116537280Y-70896140D01*
X116537280Y-70896140D02*
X116489661Y-70943760D01*
X116489661Y-70943760D02*
X116394423Y-70991379D01*
X116394423Y-70991379D02*
X116251566Y-70991379D01*
X117013471Y-70324712D02*
X117013471Y-70991379D01*
X117013471Y-70419950D02*
X117061090Y-70372331D01*
X117061090Y-70372331D02*
X117156328Y-70324712D01*
X117156328Y-70324712D02*
X117299185Y-70324712D01*
X117299185Y-70324712D02*
X117394423Y-70372331D01*
X117394423Y-70372331D02*
X117442042Y-70467569D01*
X117442042Y-70467569D02*
X117442042Y-70991379D01*
X92280851Y-40828998D02*
X92185613Y-40781379D01*
X92185613Y-40781379D02*
X92042756Y-40781379D01*
X92042756Y-40781379D02*
X91899899Y-40828998D01*
X91899899Y-40828998D02*
X91804661Y-40924236D01*
X91804661Y-40924236D02*
X91757042Y-41019474D01*
X91757042Y-41019474D02*
X91709423Y-41209950D01*
X91709423Y-41209950D02*
X91709423Y-41352807D01*
X91709423Y-41352807D02*
X91757042Y-41543283D01*
X91757042Y-41543283D02*
X91804661Y-41638521D01*
X91804661Y-41638521D02*
X91899899Y-41733760D01*
X91899899Y-41733760D02*
X92042756Y-41781379D01*
X92042756Y-41781379D02*
X92137994Y-41781379D01*
X92137994Y-41781379D02*
X92280851Y-41733760D01*
X92280851Y-41733760D02*
X92328470Y-41686140D01*
X92328470Y-41686140D02*
X92328470Y-41352807D01*
X92328470Y-41352807D02*
X92137994Y-41352807D01*
X92757042Y-41781379D02*
X92757042Y-40781379D01*
X92757042Y-40781379D02*
X93328470Y-41781379D01*
X93328470Y-41781379D02*
X93328470Y-40781379D01*
X93804661Y-41781379D02*
X93804661Y-40781379D01*
X93804661Y-40781379D02*
X94042756Y-40781379D01*
X94042756Y-40781379D02*
X94185613Y-40828998D01*
X94185613Y-40828998D02*
X94280851Y-40924236D01*
X94280851Y-40924236D02*
X94328470Y-41019474D01*
X94328470Y-41019474D02*
X94376089Y-41209950D01*
X94376089Y-41209950D02*
X94376089Y-41352807D01*
X94376089Y-41352807D02*
X94328470Y-41543283D01*
X94328470Y-41543283D02*
X94280851Y-41638521D01*
X94280851Y-41638521D02*
X94185613Y-41733760D01*
X94185613Y-41733760D02*
X94042756Y-41781379D01*
X94042756Y-41781379D02*
X93804661Y-41781379D01*
X84660851Y-103058998D02*
X84565613Y-103011379D01*
X84565613Y-103011379D02*
X84422756Y-103011379D01*
X84422756Y-103011379D02*
X84279899Y-103058998D01*
X84279899Y-103058998D02*
X84184661Y-103154236D01*
X84184661Y-103154236D02*
X84137042Y-103249474D01*
X84137042Y-103249474D02*
X84089423Y-103439950D01*
X84089423Y-103439950D02*
X84089423Y-103582807D01*
X84089423Y-103582807D02*
X84137042Y-103773283D01*
X84137042Y-103773283D02*
X84184661Y-103868521D01*
X84184661Y-103868521D02*
X84279899Y-103963760D01*
X84279899Y-103963760D02*
X84422756Y-104011379D01*
X84422756Y-104011379D02*
X84517994Y-104011379D01*
X84517994Y-104011379D02*
X84660851Y-103963760D01*
X84660851Y-103963760D02*
X84708470Y-103916140D01*
X84708470Y-103916140D02*
X84708470Y-103582807D01*
X84708470Y-103582807D02*
X84517994Y-103582807D01*
X85137042Y-104011379D02*
X85137042Y-103011379D01*
X85137042Y-103011379D02*
X85708470Y-104011379D01*
X85708470Y-104011379D02*
X85708470Y-103011379D01*
X86184661Y-104011379D02*
X86184661Y-103011379D01*
X86184661Y-103011379D02*
X86422756Y-103011379D01*
X86422756Y-103011379D02*
X86565613Y-103058998D01*
X86565613Y-103058998D02*
X86660851Y-103154236D01*
X86660851Y-103154236D02*
X86708470Y-103249474D01*
X86708470Y-103249474D02*
X86756089Y-103439950D01*
X86756089Y-103439950D02*
X86756089Y-103582807D01*
X86756089Y-103582807D02*
X86708470Y-103773283D01*
X86708470Y-103773283D02*
X86660851Y-103868521D01*
X86660851Y-103868521D02*
X86565613Y-103963760D01*
X86565613Y-103963760D02*
X86422756Y-104011379D01*
X86422756Y-104011379D02*
X86184661Y-104011379D01*
X103710851Y-94168998D02*
X103615613Y-94121379D01*
X103615613Y-94121379D02*
X103472756Y-94121379D01*
X103472756Y-94121379D02*
X103329899Y-94168998D01*
X103329899Y-94168998D02*
X103234661Y-94264236D01*
X103234661Y-94264236D02*
X103187042Y-94359474D01*
X103187042Y-94359474D02*
X103139423Y-94549950D01*
X103139423Y-94549950D02*
X103139423Y-94692807D01*
X103139423Y-94692807D02*
X103187042Y-94883283D01*
X103187042Y-94883283D02*
X103234661Y-94978521D01*
X103234661Y-94978521D02*
X103329899Y-95073760D01*
X103329899Y-95073760D02*
X103472756Y-95121379D01*
X103472756Y-95121379D02*
X103567994Y-95121379D01*
X103567994Y-95121379D02*
X103710851Y-95073760D01*
X103710851Y-95073760D02*
X103758470Y-95026140D01*
X103758470Y-95026140D02*
X103758470Y-94692807D01*
X103758470Y-94692807D02*
X103567994Y-94692807D01*
X104187042Y-95121379D02*
X104187042Y-94121379D01*
X104187042Y-94121379D02*
X104758470Y-95121379D01*
X104758470Y-95121379D02*
X104758470Y-94121379D01*
X105234661Y-95121379D02*
X105234661Y-94121379D01*
X105234661Y-94121379D02*
X105472756Y-94121379D01*
X105472756Y-94121379D02*
X105615613Y-94168998D01*
X105615613Y-94168998D02*
X105710851Y-94264236D01*
X105710851Y-94264236D02*
X105758470Y-94359474D01*
X105758470Y-94359474D02*
X105806089Y-94549950D01*
X105806089Y-94549950D02*
X105806089Y-94692807D01*
X105806089Y-94692807D02*
X105758470Y-94883283D01*
X105758470Y-94883283D02*
X105710851Y-94978521D01*
X105710851Y-94978521D02*
X105615613Y-95073760D01*
X105615613Y-95073760D02*
X105472756Y-95121379D01*
X105472756Y-95121379D02*
X105234661Y-95121379D01*
X181784185Y-57926379D02*
X182117518Y-58926379D01*
X182117518Y-58926379D02*
X182450851Y-57926379D01*
X182784185Y-58926379D02*
X182784185Y-57926379D01*
X182784185Y-57926379D02*
X183022280Y-57926379D01*
X183022280Y-57926379D02*
X183165137Y-57973998D01*
X183165137Y-57973998D02*
X183260375Y-58069236D01*
X183260375Y-58069236D02*
X183307994Y-58164474D01*
X183307994Y-58164474D02*
X183355613Y-58354950D01*
X183355613Y-58354950D02*
X183355613Y-58497807D01*
X183355613Y-58497807D02*
X183307994Y-58688283D01*
X183307994Y-58688283D02*
X183260375Y-58783521D01*
X183260375Y-58783521D02*
X183165137Y-58878760D01*
X183165137Y-58878760D02*
X183022280Y-58926379D01*
X183022280Y-58926379D02*
X182784185Y-58926379D01*
X183784185Y-58926379D02*
X183784185Y-57926379D01*
X183784185Y-57926379D02*
X184022280Y-57926379D01*
X184022280Y-57926379D02*
X184165137Y-57973998D01*
X184165137Y-57973998D02*
X184260375Y-58069236D01*
X184260375Y-58069236D02*
X184307994Y-58164474D01*
X184307994Y-58164474D02*
X184355613Y-58354950D01*
X184355613Y-58354950D02*
X184355613Y-58497807D01*
X184355613Y-58497807D02*
X184307994Y-58688283D01*
X184307994Y-58688283D02*
X184260375Y-58783521D01*
X184260375Y-58783521D02*
X184165137Y-58878760D01*
X184165137Y-58878760D02*
X184022280Y-58926379D01*
X184022280Y-58926379D02*
X183784185Y-58926379D01*
X173560851Y-103058998D02*
X173465613Y-103011379D01*
X173465613Y-103011379D02*
X173322756Y-103011379D01*
X173322756Y-103011379D02*
X173179899Y-103058998D01*
X173179899Y-103058998D02*
X173084661Y-103154236D01*
X173084661Y-103154236D02*
X173037042Y-103249474D01*
X173037042Y-103249474D02*
X172989423Y-103439950D01*
X172989423Y-103439950D02*
X172989423Y-103582807D01*
X172989423Y-103582807D02*
X173037042Y-103773283D01*
X173037042Y-103773283D02*
X173084661Y-103868521D01*
X173084661Y-103868521D02*
X173179899Y-103963760D01*
X173179899Y-103963760D02*
X173322756Y-104011379D01*
X173322756Y-104011379D02*
X173417994Y-104011379D01*
X173417994Y-104011379D02*
X173560851Y-103963760D01*
X173560851Y-103963760D02*
X173608470Y-103916140D01*
X173608470Y-103916140D02*
X173608470Y-103582807D01*
X173608470Y-103582807D02*
X173417994Y-103582807D01*
X174037042Y-104011379D02*
X174037042Y-103011379D01*
X174037042Y-103011379D02*
X174608470Y-104011379D01*
X174608470Y-104011379D02*
X174608470Y-103011379D01*
X175084661Y-104011379D02*
X175084661Y-103011379D01*
X175084661Y-103011379D02*
X175322756Y-103011379D01*
X175322756Y-103011379D02*
X175465613Y-103058998D01*
X175465613Y-103058998D02*
X175560851Y-103154236D01*
X175560851Y-103154236D02*
X175608470Y-103249474D01*
X175608470Y-103249474D02*
X175656089Y-103439950D01*
X175656089Y-103439950D02*
X175656089Y-103582807D01*
X175656089Y-103582807D02*
X175608470Y-103773283D01*
X175608470Y-103773283D02*
X175560851Y-103868521D01*
X175560851Y-103868521D02*
X175465613Y-103963760D01*
X175465613Y-103963760D02*
X175322756Y-104011379D01*
X175322756Y-104011379D02*
X175084661Y-104011379D01*
X143080851Y-110678998D02*
X142985613Y-110631379D01*
X142985613Y-110631379D02*
X142842756Y-110631379D01*
X142842756Y-110631379D02*
X142699899Y-110678998D01*
X142699899Y-110678998D02*
X142604661Y-110774236D01*
X142604661Y-110774236D02*
X142557042Y-110869474D01*
X142557042Y-110869474D02*
X142509423Y-111059950D01*
X142509423Y-111059950D02*
X142509423Y-111202807D01*
X142509423Y-111202807D02*
X142557042Y-111393283D01*
X142557042Y-111393283D02*
X142604661Y-111488521D01*
X142604661Y-111488521D02*
X142699899Y-111583760D01*
X142699899Y-111583760D02*
X142842756Y-111631379D01*
X142842756Y-111631379D02*
X142937994Y-111631379D01*
X142937994Y-111631379D02*
X143080851Y-111583760D01*
X143080851Y-111583760D02*
X143128470Y-111536140D01*
X143128470Y-111536140D02*
X143128470Y-111202807D01*
X143128470Y-111202807D02*
X142937994Y-111202807D01*
X143557042Y-111631379D02*
X143557042Y-110631379D01*
X143557042Y-110631379D02*
X144128470Y-111631379D01*
X144128470Y-111631379D02*
X144128470Y-110631379D01*
X144604661Y-111631379D02*
X144604661Y-110631379D01*
X144604661Y-110631379D02*
X144842756Y-110631379D01*
X144842756Y-110631379D02*
X144985613Y-110678998D01*
X144985613Y-110678998D02*
X145080851Y-110774236D01*
X145080851Y-110774236D02*
X145128470Y-110869474D01*
X145128470Y-110869474D02*
X145176089Y-111059950D01*
X145176089Y-111059950D02*
X145176089Y-111202807D01*
X145176089Y-111202807D02*
X145128470Y-111393283D01*
X145128470Y-111393283D02*
X145080851Y-111488521D01*
X145080851Y-111488521D02*
X144985613Y-111583760D01*
X144985613Y-111583760D02*
X144842756Y-111631379D01*
X144842756Y-111631379D02*
X144604661Y-111631379D01*
X183720851Y-84008998D02*
X183625613Y-83961379D01*
X183625613Y-83961379D02*
X183482756Y-83961379D01*
X183482756Y-83961379D02*
X183339899Y-84008998D01*
X183339899Y-84008998D02*
X183244661Y-84104236D01*
X183244661Y-84104236D02*
X183197042Y-84199474D01*
X183197042Y-84199474D02*
X183149423Y-84389950D01*
X183149423Y-84389950D02*
X183149423Y-84532807D01*
X183149423Y-84532807D02*
X183197042Y-84723283D01*
X183197042Y-84723283D02*
X183244661Y-84818521D01*
X183244661Y-84818521D02*
X183339899Y-84913760D01*
X183339899Y-84913760D02*
X183482756Y-84961379D01*
X183482756Y-84961379D02*
X183577994Y-84961379D01*
X183577994Y-84961379D02*
X183720851Y-84913760D01*
X183720851Y-84913760D02*
X183768470Y-84866140D01*
X183768470Y-84866140D02*
X183768470Y-84532807D01*
X183768470Y-84532807D02*
X183577994Y-84532807D01*
X184197042Y-84961379D02*
X184197042Y-83961379D01*
X184197042Y-83961379D02*
X184768470Y-84961379D01*
X184768470Y-84961379D02*
X184768470Y-83961379D01*
X185244661Y-84961379D02*
X185244661Y-83961379D01*
X185244661Y-83961379D02*
X185482756Y-83961379D01*
X185482756Y-83961379D02*
X185625613Y-84008998D01*
X185625613Y-84008998D02*
X185720851Y-84104236D01*
X185720851Y-84104236D02*
X185768470Y-84199474D01*
X185768470Y-84199474D02*
X185816089Y-84389950D01*
X185816089Y-84389950D02*
X185816089Y-84532807D01*
X185816089Y-84532807D02*
X185768470Y-84723283D01*
X185768470Y-84723283D02*
X185720851Y-84818521D01*
X185720851Y-84818521D02*
X185625613Y-84913760D01*
X185625613Y-84913760D02*
X185482756Y-84961379D01*
X185482756Y-84961379D02*
X185244661Y-84961379D01*
X183054185Y-76341379D02*
X183387518Y-77341379D01*
X183387518Y-77341379D02*
X183720851Y-76341379D01*
X184054185Y-77341379D02*
X184054185Y-76341379D01*
X184054185Y-76341379D02*
X184292280Y-76341379D01*
X184292280Y-76341379D02*
X184435137Y-76388998D01*
X184435137Y-76388998D02*
X184530375Y-76484236D01*
X184530375Y-76484236D02*
X184577994Y-76579474D01*
X184577994Y-76579474D02*
X184625613Y-76769950D01*
X184625613Y-76769950D02*
X184625613Y-76912807D01*
X184625613Y-76912807D02*
X184577994Y-77103283D01*
X184577994Y-77103283D02*
X184530375Y-77198521D01*
X184530375Y-77198521D02*
X184435137Y-77293760D01*
X184435137Y-77293760D02*
X184292280Y-77341379D01*
X184292280Y-77341379D02*
X184054185Y-77341379D01*
X185054185Y-77341379D02*
X185054185Y-76341379D01*
X185054185Y-76341379D02*
X185292280Y-76341379D01*
X185292280Y-76341379D02*
X185435137Y-76388998D01*
X185435137Y-76388998D02*
X185530375Y-76484236D01*
X185530375Y-76484236D02*
X185577994Y-76579474D01*
X185577994Y-76579474D02*
X185625613Y-76769950D01*
X185625613Y-76769950D02*
X185625613Y-76912807D01*
X185625613Y-76912807D02*
X185577994Y-77103283D01*
X185577994Y-77103283D02*
X185530375Y-77198521D01*
X185530375Y-77198521D02*
X185435137Y-77293760D01*
X185435137Y-77293760D02*
X185292280Y-77341379D01*
X185292280Y-77341379D02*
X185054185Y-77341379D01*
X154940000Y-97790000D02*
X142240000Y-97790000D01*
X157480000Y-95250000D02*
X154940000Y-97790000D01*
X158750000Y-93980000D02*
X157480000Y-95250000D01*
X158750000Y-71120000D02*
X158750000Y-93980000D01*
X156210000Y-68580000D02*
X158750000Y-71120000D01*
X143510000Y-68580000D02*
X156210000Y-68580000D01*
X143731804Y-95391379D02*
X143969899Y-96391379D01*
X143969899Y-96391379D02*
X144160375Y-95677093D01*
X144160375Y-95677093D02*
X144350851Y-96391379D01*
X144350851Y-96391379D02*
X144588947Y-95391379D01*
X144969899Y-96391379D02*
X144969899Y-95724712D01*
X144969899Y-95391379D02*
X144922280Y-95438998D01*
X144922280Y-95438998D02*
X144969899Y-95486617D01*
X144969899Y-95486617D02*
X145017518Y-95438998D01*
X145017518Y-95438998D02*
X144969899Y-95391379D01*
X144969899Y-95391379D02*
X144969899Y-95486617D01*
X145446089Y-96391379D02*
X145446089Y-95724712D01*
X145446089Y-95915188D02*
X145493708Y-95819950D01*
X145493708Y-95819950D02*
X145541327Y-95772331D01*
X145541327Y-95772331D02*
X145636565Y-95724712D01*
X145636565Y-95724712D02*
X145731803Y-95724712D01*
X146446089Y-96343760D02*
X146350851Y-96391379D01*
X146350851Y-96391379D02*
X146160375Y-96391379D01*
X146160375Y-96391379D02*
X146065137Y-96343760D01*
X146065137Y-96343760D02*
X146017518Y-96248521D01*
X146017518Y-96248521D02*
X146017518Y-95867569D01*
X146017518Y-95867569D02*
X146065137Y-95772331D01*
X146065137Y-95772331D02*
X146160375Y-95724712D01*
X146160375Y-95724712D02*
X146350851Y-95724712D01*
X146350851Y-95724712D02*
X146446089Y-95772331D01*
X146446089Y-95772331D02*
X146493708Y-95867569D01*
X146493708Y-95867569D02*
X146493708Y-95962807D01*
X146493708Y-95962807D02*
X146017518Y-96058045D01*
X148112756Y-96343760D02*
X148017518Y-96391379D01*
X148017518Y-96391379D02*
X147827042Y-96391379D01*
X147827042Y-96391379D02*
X147731804Y-96343760D01*
X147731804Y-96343760D02*
X147684185Y-96296140D01*
X147684185Y-96296140D02*
X147636566Y-96200902D01*
X147636566Y-96200902D02*
X147636566Y-95915188D01*
X147636566Y-95915188D02*
X147684185Y-95819950D01*
X147684185Y-95819950D02*
X147731804Y-95772331D01*
X147731804Y-95772331D02*
X147827042Y-95724712D01*
X147827042Y-95724712D02*
X148017518Y-95724712D01*
X148017518Y-95724712D02*
X148112756Y-95772331D01*
X148684185Y-96391379D02*
X148588947Y-96343760D01*
X148588947Y-96343760D02*
X148541328Y-96296140D01*
X148541328Y-96296140D02*
X148493709Y-96200902D01*
X148493709Y-96200902D02*
X148493709Y-95915188D01*
X148493709Y-95915188D02*
X148541328Y-95819950D01*
X148541328Y-95819950D02*
X148588947Y-95772331D01*
X148588947Y-95772331D02*
X148684185Y-95724712D01*
X148684185Y-95724712D02*
X148827042Y-95724712D01*
X148827042Y-95724712D02*
X148922280Y-95772331D01*
X148922280Y-95772331D02*
X148969899Y-95819950D01*
X148969899Y-95819950D02*
X149017518Y-95915188D01*
X149017518Y-95915188D02*
X149017518Y-96200902D01*
X149017518Y-96200902D02*
X148969899Y-96296140D01*
X148969899Y-96296140D02*
X148922280Y-96343760D01*
X148922280Y-96343760D02*
X148827042Y-96391379D01*
X148827042Y-96391379D02*
X148684185Y-96391379D01*
X149446090Y-95724712D02*
X149446090Y-96391379D01*
X149446090Y-95819950D02*
X149493709Y-95772331D01*
X149493709Y-95772331D02*
X149588947Y-95724712D01*
X149588947Y-95724712D02*
X149731804Y-95724712D01*
X149731804Y-95724712D02*
X149827042Y-95772331D01*
X149827042Y-95772331D02*
X149874661Y-95867569D01*
X149874661Y-95867569D02*
X149874661Y-96391379D01*
X150350852Y-95724712D02*
X150350852Y-96391379D01*
X150350852Y-95819950D02*
X150398471Y-95772331D01*
X150398471Y-95772331D02*
X150493709Y-95724712D01*
X150493709Y-95724712D02*
X150636566Y-95724712D01*
X150636566Y-95724712D02*
X150731804Y-95772331D01*
X150731804Y-95772331D02*
X150779423Y-95867569D01*
X150779423Y-95867569D02*
X150779423Y-96391379D01*
X151636566Y-96343760D02*
X151541328Y-96391379D01*
X151541328Y-96391379D02*
X151350852Y-96391379D01*
X151350852Y-96391379D02*
X151255614Y-96343760D01*
X151255614Y-96343760D02*
X151207995Y-96248521D01*
X151207995Y-96248521D02*
X151207995Y-95867569D01*
X151207995Y-95867569D02*
X151255614Y-95772331D01*
X151255614Y-95772331D02*
X151350852Y-95724712D01*
X151350852Y-95724712D02*
X151541328Y-95724712D01*
X151541328Y-95724712D02*
X151636566Y-95772331D01*
X151636566Y-95772331D02*
X151684185Y-95867569D01*
X151684185Y-95867569D02*
X151684185Y-95962807D01*
X151684185Y-95962807D02*
X151207995Y-96058045D01*
X152541328Y-96343760D02*
X152446090Y-96391379D01*
X152446090Y-96391379D02*
X152255614Y-96391379D01*
X152255614Y-96391379D02*
X152160376Y-96343760D01*
X152160376Y-96343760D02*
X152112757Y-96296140D01*
X152112757Y-96296140D02*
X152065138Y-96200902D01*
X152065138Y-96200902D02*
X152065138Y-95915188D01*
X152065138Y-95915188D02*
X152112757Y-95819950D01*
X152112757Y-95819950D02*
X152160376Y-95772331D01*
X152160376Y-95772331D02*
X152255614Y-95724712D01*
X152255614Y-95724712D02*
X152446090Y-95724712D01*
X152446090Y-95724712D02*
X152541328Y-95772331D01*
X152827043Y-95724712D02*
X153207995Y-95724712D01*
X152969900Y-95391379D02*
X152969900Y-96248521D01*
X152969900Y-96248521D02*
X153017519Y-96343760D01*
X153017519Y-96343760D02*
X153112757Y-96391379D01*
X153112757Y-96391379D02*
X153207995Y-96391379D01*
X153541329Y-96391379D02*
X153541329Y-95724712D01*
X153541329Y-95391379D02*
X153493710Y-95438998D01*
X153493710Y-95438998D02*
X153541329Y-95486617D01*
X153541329Y-95486617D02*
X153588948Y-95438998D01*
X153588948Y-95438998D02*
X153541329Y-95391379D01*
X153541329Y-95391379D02*
X153541329Y-95486617D01*
X154160376Y-96391379D02*
X154065138Y-96343760D01*
X154065138Y-96343760D02*
X154017519Y-96296140D01*
X154017519Y-96296140D02*
X153969900Y-96200902D01*
X153969900Y-96200902D02*
X153969900Y-95915188D01*
X153969900Y-95915188D02*
X154017519Y-95819950D01*
X154017519Y-95819950D02*
X154065138Y-95772331D01*
X154065138Y-95772331D02*
X154160376Y-95724712D01*
X154160376Y-95724712D02*
X154303233Y-95724712D01*
X154303233Y-95724712D02*
X154398471Y-95772331D01*
X154398471Y-95772331D02*
X154446090Y-95819950D01*
X154446090Y-95819950D02*
X154493709Y-95915188D01*
X154493709Y-95915188D02*
X154493709Y-96200902D01*
X154493709Y-96200902D02*
X154446090Y-96296140D01*
X154446090Y-96296140D02*
X154398471Y-96343760D01*
X154398471Y-96343760D02*
X154303233Y-96391379D01*
X154303233Y-96391379D02*
X154160376Y-96391379D01*
X154922281Y-95724712D02*
X154922281Y-96391379D01*
X154922281Y-95819950D02*
X154969900Y-95772331D01*
X154969900Y-95772331D02*
X155065138Y-95724712D01*
X155065138Y-95724712D02*
X155207995Y-95724712D01*
X155207995Y-95724712D02*
X155303233Y-95772331D01*
X155303233Y-95772331D02*
X155350852Y-95867569D01*
X155350852Y-95867569D02*
X155350852Y-96391379D01*
X108267041Y-92200426D02*
X109028946Y-92200426D01*
X109505136Y-92200426D02*
X110267041Y-92200426D01*
X110743231Y-91914712D02*
X111505136Y-92200426D01*
X111505136Y-92200426D02*
X110743231Y-92486140D01*
X108759185Y-90311379D02*
X109092518Y-91311379D01*
X109092518Y-91311379D02*
X109425851Y-90311379D01*
X110187756Y-90644712D02*
X110187756Y-91454236D01*
X110187756Y-91454236D02*
X110140137Y-91549474D01*
X110140137Y-91549474D02*
X110092518Y-91597093D01*
X110092518Y-91597093D02*
X109997280Y-91644712D01*
X109997280Y-91644712D02*
X109854423Y-91644712D01*
X109854423Y-91644712D02*
X109759185Y-91597093D01*
X110187756Y-91263760D02*
X110092518Y-91311379D01*
X110092518Y-91311379D02*
X109902042Y-91311379D01*
X109902042Y-91311379D02*
X109806804Y-91263760D01*
X109806804Y-91263760D02*
X109759185Y-91216140D01*
X109759185Y-91216140D02*
X109711566Y-91120902D01*
X109711566Y-91120902D02*
X109711566Y-90835188D01*
X109711566Y-90835188D02*
X109759185Y-90739950D01*
X109759185Y-90739950D02*
X109806804Y-90692331D01*
X109806804Y-90692331D02*
X109902042Y-90644712D01*
X109902042Y-90644712D02*
X110092518Y-90644712D01*
X110092518Y-90644712D02*
X110187756Y-90692331D01*
X110616328Y-91263760D02*
X110711566Y-91311379D01*
X110711566Y-91311379D02*
X110902042Y-91311379D01*
X110902042Y-91311379D02*
X110997280Y-91263760D01*
X110997280Y-91263760D02*
X111044899Y-91168521D01*
X111044899Y-91168521D02*
X111044899Y-91120902D01*
X111044899Y-91120902D02*
X110997280Y-91025664D01*
X110997280Y-91025664D02*
X110902042Y-90978045D01*
X110902042Y-90978045D02*
X110759185Y-90978045D01*
X110759185Y-90978045D02*
X110663947Y-90930426D01*
X110663947Y-90930426D02*
X110616328Y-90835188D01*
X110616328Y-90835188D02*
X110616328Y-90787569D01*
X110616328Y-90787569D02*
X110663947Y-90692331D01*
X110663947Y-90692331D02*
X110759185Y-90644712D01*
X110759185Y-90644712D02*
X110902042Y-90644712D01*
X110902042Y-90644712D02*
X110997280Y-90692331D01*
X118919185Y-90311379D02*
X119252518Y-91311379D01*
X119252518Y-91311379D02*
X119585851Y-90311379D01*
X120347756Y-90644712D02*
X120347756Y-91454236D01*
X120347756Y-91454236D02*
X120300137Y-91549474D01*
X120300137Y-91549474D02*
X120252518Y-91597093D01*
X120252518Y-91597093D02*
X120157280Y-91644712D01*
X120157280Y-91644712D02*
X120014423Y-91644712D01*
X120014423Y-91644712D02*
X119919185Y-91597093D01*
X120347756Y-91263760D02*
X120252518Y-91311379D01*
X120252518Y-91311379D02*
X120062042Y-91311379D01*
X120062042Y-91311379D02*
X119966804Y-91263760D01*
X119966804Y-91263760D02*
X119919185Y-91216140D01*
X119919185Y-91216140D02*
X119871566Y-91120902D01*
X119871566Y-91120902D02*
X119871566Y-90835188D01*
X119871566Y-90835188D02*
X119919185Y-90739950D01*
X119919185Y-90739950D02*
X119966804Y-90692331D01*
X119966804Y-90692331D02*
X120062042Y-90644712D01*
X120062042Y-90644712D02*
X120252518Y-90644712D01*
X120252518Y-90644712D02*
X120347756Y-90692331D01*
X120776328Y-91263760D02*
X120871566Y-91311379D01*
X120871566Y-91311379D02*
X121062042Y-91311379D01*
X121062042Y-91311379D02*
X121157280Y-91263760D01*
X121157280Y-91263760D02*
X121204899Y-91168521D01*
X121204899Y-91168521D02*
X121204899Y-91120902D01*
X121204899Y-91120902D02*
X121157280Y-91025664D01*
X121157280Y-91025664D02*
X121062042Y-90978045D01*
X121062042Y-90978045D02*
X120919185Y-90978045D01*
X120919185Y-90978045D02*
X120823947Y-90930426D01*
X120823947Y-90930426D02*
X120776328Y-90835188D01*
X120776328Y-90835188D02*
X120776328Y-90787569D01*
X120776328Y-90787569D02*
X120823947Y-90692331D01*
X120823947Y-90692331D02*
X120919185Y-90644712D01*
X120919185Y-90644712D02*
X121062042Y-90644712D01*
X121062042Y-90644712D02*
X121157280Y-90692331D01*
X143684185Y-107456379D02*
X144017518Y-108456379D01*
X144017518Y-108456379D02*
X144350851Y-107456379D01*
X145112756Y-108456379D02*
X145112756Y-107456379D01*
X145112756Y-108408760D02*
X145017518Y-108456379D01*
X145017518Y-108456379D02*
X144827042Y-108456379D01*
X144827042Y-108456379D02*
X144731804Y-108408760D01*
X144731804Y-108408760D02*
X144684185Y-108361140D01*
X144684185Y-108361140D02*
X144636566Y-108265902D01*
X144636566Y-108265902D02*
X144636566Y-107980188D01*
X144636566Y-107980188D02*
X144684185Y-107884950D01*
X144684185Y-107884950D02*
X144731804Y-107837331D01*
X144731804Y-107837331D02*
X144827042Y-107789712D01*
X144827042Y-107789712D02*
X145017518Y-107789712D01*
X145017518Y-107789712D02*
X145112756Y-107837331D01*
X145541328Y-108408760D02*
X145636566Y-108456379D01*
X145636566Y-108456379D02*
X145827042Y-108456379D01*
X145827042Y-108456379D02*
X145922280Y-108408760D01*
X145922280Y-108408760D02*
X145969899Y-108313521D01*
X145969899Y-108313521D02*
X145969899Y-108265902D01*
X145969899Y-108265902D02*
X145922280Y-108170664D01*
X145922280Y-108170664D02*
X145827042Y-108123045D01*
X145827042Y-108123045D02*
X145684185Y-108123045D01*
X145684185Y-108123045D02*
X145588947Y-108075426D01*
X145588947Y-108075426D02*
X145541328Y-107980188D01*
X145541328Y-107980188D02*
X145541328Y-107932569D01*
X145541328Y-107932569D02*
X145588947Y-107837331D01*
X145588947Y-107837331D02*
X145684185Y-107789712D01*
X145684185Y-107789712D02*
X145827042Y-107789712D01*
X145827042Y-107789712D02*
X145922280Y-107837331D01*
X147874661Y-107408760D02*
X147017519Y-108694474D01*
X148827043Y-107456379D02*
X149160376Y-108456379D01*
X149160376Y-108456379D02*
X149493709Y-107456379D01*
X150255614Y-108456379D02*
X150255614Y-107456379D01*
X150255614Y-108408760D02*
X150160376Y-108456379D01*
X150160376Y-108456379D02*
X149969900Y-108456379D01*
X149969900Y-108456379D02*
X149874662Y-108408760D01*
X149874662Y-108408760D02*
X149827043Y-108361140D01*
X149827043Y-108361140D02*
X149779424Y-108265902D01*
X149779424Y-108265902D02*
X149779424Y-107980188D01*
X149779424Y-107980188D02*
X149827043Y-107884950D01*
X149827043Y-107884950D02*
X149874662Y-107837331D01*
X149874662Y-107837331D02*
X149969900Y-107789712D01*
X149969900Y-107789712D02*
X150160376Y-107789712D01*
X150160376Y-107789712D02*
X150255614Y-107837331D01*
X150731805Y-108456379D02*
X150731805Y-107789712D01*
X150731805Y-107456379D02*
X150684186Y-107503998D01*
X150684186Y-107503998D02*
X150731805Y-107551617D01*
X150731805Y-107551617D02*
X150779424Y-107503998D01*
X150779424Y-107503998D02*
X150731805Y-107456379D01*
X150731805Y-107456379D02*
X150731805Y-107551617D01*
X151350852Y-108456379D02*
X151255614Y-108408760D01*
X151255614Y-108408760D02*
X151207995Y-108361140D01*
X151207995Y-108361140D02*
X151160376Y-108265902D01*
X151160376Y-108265902D02*
X151160376Y-107980188D01*
X151160376Y-107980188D02*
X151207995Y-107884950D01*
X151207995Y-107884950D02*
X151255614Y-107837331D01*
X151255614Y-107837331D02*
X151350852Y-107789712D01*
X151350852Y-107789712D02*
X151493709Y-107789712D01*
X151493709Y-107789712D02*
X151588947Y-107837331D01*
X151588947Y-107837331D02*
X151636566Y-107884950D01*
X151636566Y-107884950D02*
X151684185Y-107980188D01*
X151684185Y-107980188D02*
X151684185Y-108265902D01*
X151684185Y-108265902D02*
X151636566Y-108361140D01*
X151636566Y-108361140D02*
X151588947Y-108408760D01*
X151588947Y-108408760D02*
X151493709Y-108456379D01*
X151493709Y-108456379D02*
X151350852Y-108456379D01*
X152541328Y-108456379D02*
X152541328Y-107456379D01*
X152541328Y-108408760D02*
X152446090Y-108456379D01*
X152446090Y-108456379D02*
X152255614Y-108456379D01*
X152255614Y-108456379D02*
X152160376Y-108408760D01*
X152160376Y-108408760D02*
X152112757Y-108361140D01*
X152112757Y-108361140D02*
X152065138Y-108265902D01*
X152065138Y-108265902D02*
X152065138Y-107980188D01*
X152065138Y-107980188D02*
X152112757Y-107884950D01*
X152112757Y-107884950D02*
X152160376Y-107837331D01*
X152160376Y-107837331D02*
X152255614Y-107789712D01*
X152255614Y-107789712D02*
X152446090Y-107789712D01*
X152446090Y-107789712D02*
X152541328Y-107837331D01*
X153398471Y-108408760D02*
X153303233Y-108456379D01*
X153303233Y-108456379D02*
X153112757Y-108456379D01*
X153112757Y-108456379D02*
X153017519Y-108408760D01*
X153017519Y-108408760D02*
X152969900Y-108313521D01*
X152969900Y-108313521D02*
X152969900Y-107932569D01*
X152969900Y-107932569D02*
X153017519Y-107837331D01*
X153017519Y-107837331D02*
X153112757Y-107789712D01*
X153112757Y-107789712D02*
X153303233Y-107789712D01*
X153303233Y-107789712D02*
X153398471Y-107837331D01*
X153398471Y-107837331D02*
X153446090Y-107932569D01*
X153446090Y-107932569D02*
X153446090Y-108027807D01*
X153446090Y-108027807D02*
X152969900Y-108123045D01*
X143000426Y-109537957D02*
X143000426Y-108776053D01*
X143000426Y-108299862D02*
X143000426Y-107537958D01*
X142714712Y-107061767D02*
X143000426Y-106299863D01*
X143000426Y-106299863D02*
X143286140Y-107061767D01*
D11*
X136525000Y-116840000D02*
X135890000Y-120015000D01*
D12*
X127971779Y-121789819D02*
X127971779Y-120789819D01*
X127971779Y-120789819D02*
X128305112Y-121504104D01*
X128305112Y-121504104D02*
X128638445Y-120789819D01*
X128638445Y-120789819D02*
X128638445Y-121789819D01*
X129305112Y-120789819D02*
X129495588Y-120789819D01*
X129495588Y-120789819D02*
X129590826Y-120837438D01*
X129590826Y-120837438D02*
X129686064Y-120932676D01*
X129686064Y-120932676D02*
X129733683Y-121123152D01*
X129733683Y-121123152D02*
X129733683Y-121456485D01*
X129733683Y-121456485D02*
X129686064Y-121646961D01*
X129686064Y-121646961D02*
X129590826Y-121742200D01*
X129590826Y-121742200D02*
X129495588Y-121789819D01*
X129495588Y-121789819D02*
X129305112Y-121789819D01*
X129305112Y-121789819D02*
X129209874Y-121742200D01*
X129209874Y-121742200D02*
X129114636Y-121646961D01*
X129114636Y-121646961D02*
X129067017Y-121456485D01*
X129067017Y-121456485D02*
X129067017Y-121123152D01*
X129067017Y-121123152D02*
X129114636Y-120932676D01*
X129114636Y-120932676D02*
X129209874Y-120837438D01*
X129209874Y-120837438D02*
X129305112Y-120789819D01*
X130114636Y-121742200D02*
X130257493Y-121789819D01*
X130257493Y-121789819D02*
X130495588Y-121789819D01*
X130495588Y-121789819D02*
X130590826Y-121742200D01*
X130590826Y-121742200D02*
X130638445Y-121694580D01*
X130638445Y-121694580D02*
X130686064Y-121599342D01*
X130686064Y-121599342D02*
X130686064Y-121504104D01*
X130686064Y-121504104D02*
X130638445Y-121408866D01*
X130638445Y-121408866D02*
X130590826Y-121361247D01*
X130590826Y-121361247D02*
X130495588Y-121313628D01*
X130495588Y-121313628D02*
X130305112Y-121266009D01*
X130305112Y-121266009D02*
X130209874Y-121218390D01*
X130209874Y-121218390D02*
X130162255Y-121170771D01*
X130162255Y-121170771D02*
X130114636Y-121075533D01*
X130114636Y-121075533D02*
X130114636Y-120980295D01*
X130114636Y-120980295D02*
X130162255Y-120885057D01*
X130162255Y-120885057D02*
X130209874Y-120837438D01*
X130209874Y-120837438D02*
X130305112Y-120789819D01*
X130305112Y-120789819D02*
X130543207Y-120789819D01*
X130543207Y-120789819D02*
X130686064Y-120837438D01*
X131447969Y-121266009D02*
X131114636Y-121266009D01*
X131114636Y-121789819D02*
X131114636Y-120789819D01*
X131114636Y-120789819D02*
X131590826Y-120789819D01*
X131971779Y-121266009D02*
X132305112Y-121266009D01*
X132447969Y-121789819D02*
X131971779Y-121789819D01*
X131971779Y-121789819D02*
X131971779Y-120789819D01*
X131971779Y-120789819D02*
X132447969Y-120789819D01*
X132733684Y-120789819D02*
X133305112Y-120789819D01*
X133019398Y-121789819D02*
X133019398Y-120789819D01*
X134828922Y-121742200D02*
X134733684Y-121789819D01*
X134733684Y-121789819D02*
X134543208Y-121789819D01*
X134543208Y-121789819D02*
X134447970Y-121742200D01*
X134447970Y-121742200D02*
X134400351Y-121694580D01*
X134400351Y-121694580D02*
X134352732Y-121599342D01*
X134352732Y-121599342D02*
X134352732Y-121313628D01*
X134352732Y-121313628D02*
X134400351Y-121218390D01*
X134400351Y-121218390D02*
X134447970Y-121170771D01*
X134447970Y-121170771D02*
X134543208Y-121123152D01*
X134543208Y-121123152D02*
X134733684Y-121123152D01*
X134733684Y-121123152D02*
X134828922Y-121170771D01*
X135400351Y-121789819D02*
X135305113Y-121742200D01*
X135305113Y-121742200D02*
X135257494Y-121694580D01*
X135257494Y-121694580D02*
X135209875Y-121599342D01*
X135209875Y-121599342D02*
X135209875Y-121313628D01*
X135209875Y-121313628D02*
X135257494Y-121218390D01*
X135257494Y-121218390D02*
X135305113Y-121170771D01*
X135305113Y-121170771D02*
X135400351Y-121123152D01*
X135400351Y-121123152D02*
X135543208Y-121123152D01*
X135543208Y-121123152D02*
X135638446Y-121170771D01*
X135638446Y-121170771D02*
X135686065Y-121218390D01*
X135686065Y-121218390D02*
X135733684Y-121313628D01*
X135733684Y-121313628D02*
X135733684Y-121599342D01*
X135733684Y-121599342D02*
X135686065Y-121694580D01*
X135686065Y-121694580D02*
X135638446Y-121742200D01*
X135638446Y-121742200D02*
X135543208Y-121789819D01*
X135543208Y-121789819D02*
X135400351Y-121789819D01*
X136162256Y-121123152D02*
X136162256Y-121789819D01*
X136162256Y-121218390D02*
X136209875Y-121170771D01*
X136209875Y-121170771D02*
X136305113Y-121123152D01*
X136305113Y-121123152D02*
X136447970Y-121123152D01*
X136447970Y-121123152D02*
X136543208Y-121170771D01*
X136543208Y-121170771D02*
X136590827Y-121266009D01*
X136590827Y-121266009D02*
X136590827Y-121789819D01*
X137067018Y-121123152D02*
X137067018Y-121789819D01*
X137067018Y-121218390D02*
X137114637Y-121170771D01*
X137114637Y-121170771D02*
X137209875Y-121123152D01*
X137209875Y-121123152D02*
X137352732Y-121123152D01*
X137352732Y-121123152D02*
X137447970Y-121170771D01*
X137447970Y-121170771D02*
X137495589Y-121266009D01*
X137495589Y-121266009D02*
X137495589Y-121789819D01*
X138352732Y-121742200D02*
X138257494Y-121789819D01*
X138257494Y-121789819D02*
X138067018Y-121789819D01*
X138067018Y-121789819D02*
X137971780Y-121742200D01*
X137971780Y-121742200D02*
X137924161Y-121646961D01*
X137924161Y-121646961D02*
X137924161Y-121266009D01*
X137924161Y-121266009D02*
X137971780Y-121170771D01*
X137971780Y-121170771D02*
X138067018Y-121123152D01*
X138067018Y-121123152D02*
X138257494Y-121123152D01*
X138257494Y-121123152D02*
X138352732Y-121170771D01*
X138352732Y-121170771D02*
X138400351Y-121266009D01*
X138400351Y-121266009D02*
X138400351Y-121361247D01*
X138400351Y-121361247D02*
X137924161Y-121456485D01*
X139257494Y-121742200D02*
X139162256Y-121789819D01*
X139162256Y-121789819D02*
X138971780Y-121789819D01*
X138971780Y-121789819D02*
X138876542Y-121742200D01*
X138876542Y-121742200D02*
X138828923Y-121694580D01*
X138828923Y-121694580D02*
X138781304Y-121599342D01*
X138781304Y-121599342D02*
X138781304Y-121313628D01*
X138781304Y-121313628D02*
X138828923Y-121218390D01*
X138828923Y-121218390D02*
X138876542Y-121170771D01*
X138876542Y-121170771D02*
X138971780Y-121123152D01*
X138971780Y-121123152D02*
X139162256Y-121123152D01*
X139162256Y-121123152D02*
X139257494Y-121170771D01*
X139543209Y-121123152D02*
X139924161Y-121123152D01*
X139686066Y-120789819D02*
X139686066Y-121646961D01*
X139686066Y-121646961D02*
X139733685Y-121742200D01*
X139733685Y-121742200D02*
X139828923Y-121789819D01*
X139828923Y-121789819D02*
X139924161Y-121789819D01*
X140257495Y-121789819D02*
X140257495Y-121123152D01*
X140257495Y-120789819D02*
X140209876Y-120837438D01*
X140209876Y-120837438D02*
X140257495Y-120885057D01*
X140257495Y-120885057D02*
X140305114Y-120837438D01*
X140305114Y-120837438D02*
X140257495Y-120789819D01*
X140257495Y-120789819D02*
X140257495Y-120885057D01*
X140876542Y-121789819D02*
X140781304Y-121742200D01*
X140781304Y-121742200D02*
X140733685Y-121694580D01*
X140733685Y-121694580D02*
X140686066Y-121599342D01*
X140686066Y-121599342D02*
X140686066Y-121313628D01*
X140686066Y-121313628D02*
X140733685Y-121218390D01*
X140733685Y-121218390D02*
X140781304Y-121170771D01*
X140781304Y-121170771D02*
X140876542Y-121123152D01*
X140876542Y-121123152D02*
X141019399Y-121123152D01*
X141019399Y-121123152D02*
X141114637Y-121170771D01*
X141114637Y-121170771D02*
X141162256Y-121218390D01*
X141162256Y-121218390D02*
X141209875Y-121313628D01*
X141209875Y-121313628D02*
X141209875Y-121599342D01*
X141209875Y-121599342D02*
X141162256Y-121694580D01*
X141162256Y-121694580D02*
X141114637Y-121742200D01*
X141114637Y-121742200D02*
X141019399Y-121789819D01*
X141019399Y-121789819D02*
X140876542Y-121789819D01*
X141638447Y-121123152D02*
X141638447Y-121789819D01*
X141638447Y-121218390D02*
X141686066Y-121170771D01*
X141686066Y-121170771D02*
X141781304Y-121123152D01*
X141781304Y-121123152D02*
X141924161Y-121123152D01*
X141924161Y-121123152D02*
X142019399Y-121170771D01*
X142019399Y-121170771D02*
X142067018Y-121266009D01*
X142067018Y-121266009D02*
X142067018Y-121789819D01*
X143162257Y-121123152D02*
X143543209Y-121123152D01*
X143305114Y-121789819D02*
X143305114Y-120932676D01*
X143305114Y-120932676D02*
X143352733Y-120837438D01*
X143352733Y-120837438D02*
X143447971Y-120789819D01*
X143447971Y-120789819D02*
X143543209Y-120789819D01*
X144019400Y-121789819D02*
X143924162Y-121742200D01*
X143924162Y-121742200D02*
X143876543Y-121694580D01*
X143876543Y-121694580D02*
X143828924Y-121599342D01*
X143828924Y-121599342D02*
X143828924Y-121313628D01*
X143828924Y-121313628D02*
X143876543Y-121218390D01*
X143876543Y-121218390D02*
X143924162Y-121170771D01*
X143924162Y-121170771D02*
X144019400Y-121123152D01*
X144019400Y-121123152D02*
X144162257Y-121123152D01*
X144162257Y-121123152D02*
X144257495Y-121170771D01*
X144257495Y-121170771D02*
X144305114Y-121218390D01*
X144305114Y-121218390D02*
X144352733Y-121313628D01*
X144352733Y-121313628D02*
X144352733Y-121599342D01*
X144352733Y-121599342D02*
X144305114Y-121694580D01*
X144305114Y-121694580D02*
X144257495Y-121742200D01*
X144257495Y-121742200D02*
X144162257Y-121789819D01*
X144162257Y-121789819D02*
X144019400Y-121789819D01*
X144781305Y-121789819D02*
X144781305Y-121123152D01*
X144781305Y-121313628D02*
X144828924Y-121218390D01*
X144828924Y-121218390D02*
X144876543Y-121170771D01*
X144876543Y-121170771D02*
X144971781Y-121123152D01*
X144971781Y-121123152D02*
X145067019Y-121123152D01*
X146162258Y-121789819D02*
X146162258Y-121123152D01*
X146162258Y-121218390D02*
X146209877Y-121170771D01*
X146209877Y-121170771D02*
X146305115Y-121123152D01*
X146305115Y-121123152D02*
X146447972Y-121123152D01*
X146447972Y-121123152D02*
X146543210Y-121170771D01*
X146543210Y-121170771D02*
X146590829Y-121266009D01*
X146590829Y-121266009D02*
X146590829Y-121789819D01*
X146590829Y-121266009D02*
X146638448Y-121170771D01*
X146638448Y-121170771D02*
X146733686Y-121123152D01*
X146733686Y-121123152D02*
X146876543Y-121123152D01*
X146876543Y-121123152D02*
X146971782Y-121170771D01*
X146971782Y-121170771D02*
X147019401Y-121266009D01*
X147019401Y-121266009D02*
X147019401Y-121789819D01*
X147876543Y-121742200D02*
X147781305Y-121789819D01*
X147781305Y-121789819D02*
X147590829Y-121789819D01*
X147590829Y-121789819D02*
X147495591Y-121742200D01*
X147495591Y-121742200D02*
X147447972Y-121646961D01*
X147447972Y-121646961D02*
X147447972Y-121266009D01*
X147447972Y-121266009D02*
X147495591Y-121170771D01*
X147495591Y-121170771D02*
X147590829Y-121123152D01*
X147590829Y-121123152D02*
X147781305Y-121123152D01*
X147781305Y-121123152D02*
X147876543Y-121170771D01*
X147876543Y-121170771D02*
X147924162Y-121266009D01*
X147924162Y-121266009D02*
X147924162Y-121361247D01*
X147924162Y-121361247D02*
X147447972Y-121456485D01*
X148781305Y-121789819D02*
X148781305Y-121266009D01*
X148781305Y-121266009D02*
X148733686Y-121170771D01*
X148733686Y-121170771D02*
X148638448Y-121123152D01*
X148638448Y-121123152D02*
X148447972Y-121123152D01*
X148447972Y-121123152D02*
X148352734Y-121170771D01*
X148781305Y-121742200D02*
X148686067Y-121789819D01*
X148686067Y-121789819D02*
X148447972Y-121789819D01*
X148447972Y-121789819D02*
X148352734Y-121742200D01*
X148352734Y-121742200D02*
X148305115Y-121646961D01*
X148305115Y-121646961D02*
X148305115Y-121551723D01*
X148305115Y-121551723D02*
X148352734Y-121456485D01*
X148352734Y-121456485D02*
X148447972Y-121408866D01*
X148447972Y-121408866D02*
X148686067Y-121408866D01*
X148686067Y-121408866D02*
X148781305Y-121361247D01*
X149209877Y-121742200D02*
X149305115Y-121789819D01*
X149305115Y-121789819D02*
X149495591Y-121789819D01*
X149495591Y-121789819D02*
X149590829Y-121742200D01*
X149590829Y-121742200D02*
X149638448Y-121646961D01*
X149638448Y-121646961D02*
X149638448Y-121599342D01*
X149638448Y-121599342D02*
X149590829Y-121504104D01*
X149590829Y-121504104D02*
X149495591Y-121456485D01*
X149495591Y-121456485D02*
X149352734Y-121456485D01*
X149352734Y-121456485D02*
X149257496Y-121408866D01*
X149257496Y-121408866D02*
X149209877Y-121313628D01*
X149209877Y-121313628D02*
X149209877Y-121266009D01*
X149209877Y-121266009D02*
X149257496Y-121170771D01*
X149257496Y-121170771D02*
X149352734Y-121123152D01*
X149352734Y-121123152D02*
X149495591Y-121123152D01*
X149495591Y-121123152D02*
X149590829Y-121170771D01*
X150495591Y-121123152D02*
X150495591Y-121789819D01*
X150067020Y-121123152D02*
X150067020Y-121646961D01*
X150067020Y-121646961D02*
X150114639Y-121742200D01*
X150114639Y-121742200D02*
X150209877Y-121789819D01*
X150209877Y-121789819D02*
X150352734Y-121789819D01*
X150352734Y-121789819D02*
X150447972Y-121742200D01*
X150447972Y-121742200D02*
X150495591Y-121694580D01*
X150971782Y-121789819D02*
X150971782Y-121123152D01*
X150971782Y-121313628D02*
X151019401Y-121218390D01*
X151019401Y-121218390D02*
X151067020Y-121170771D01*
X151067020Y-121170771D02*
X151162258Y-121123152D01*
X151162258Y-121123152D02*
X151257496Y-121123152D01*
X151590830Y-121789819D02*
X151590830Y-121123152D01*
X151590830Y-120789819D02*
X151543211Y-120837438D01*
X151543211Y-120837438D02*
X151590830Y-120885057D01*
X151590830Y-120885057D02*
X151638449Y-120837438D01*
X151638449Y-120837438D02*
X151590830Y-120789819D01*
X151590830Y-120789819D02*
X151590830Y-120885057D01*
X152067020Y-121123152D02*
X152067020Y-121789819D01*
X152067020Y-121218390D02*
X152114639Y-121170771D01*
X152114639Y-121170771D02*
X152209877Y-121123152D01*
X152209877Y-121123152D02*
X152352734Y-121123152D01*
X152352734Y-121123152D02*
X152447972Y-121170771D01*
X152447972Y-121170771D02*
X152495591Y-121266009D01*
X152495591Y-121266009D02*
X152495591Y-121789819D01*
X153400353Y-121123152D02*
X153400353Y-121932676D01*
X153400353Y-121932676D02*
X153352734Y-122027914D01*
X153352734Y-122027914D02*
X153305115Y-122075533D01*
X153305115Y-122075533D02*
X153209877Y-122123152D01*
X153209877Y-122123152D02*
X153067020Y-122123152D01*
X153067020Y-122123152D02*
X152971782Y-122075533D01*
X153400353Y-121742200D02*
X153305115Y-121789819D01*
X153305115Y-121789819D02*
X153114639Y-121789819D01*
X153114639Y-121789819D02*
X153019401Y-121742200D01*
X153019401Y-121742200D02*
X152971782Y-121694580D01*
X152971782Y-121694580D02*
X152924163Y-121599342D01*
X152924163Y-121599342D02*
X152924163Y-121313628D01*
X152924163Y-121313628D02*
X152971782Y-121218390D01*
X152971782Y-121218390D02*
X153019401Y-121170771D01*
X153019401Y-121170771D02*
X153114639Y-121123152D01*
X153114639Y-121123152D02*
X153305115Y-121123152D01*
X153305115Y-121123152D02*
X153400353Y-121170771D01*
X154971782Y-121266009D02*
X154638449Y-121266009D01*
X154638449Y-121789819D02*
X154638449Y-120789819D01*
X154638449Y-120789819D02*
X155114639Y-120789819D01*
X155638449Y-121789819D02*
X155543211Y-121742200D01*
X155543211Y-121742200D02*
X155495592Y-121694580D01*
X155495592Y-121694580D02*
X155447973Y-121599342D01*
X155447973Y-121599342D02*
X155447973Y-121313628D01*
X155447973Y-121313628D02*
X155495592Y-121218390D01*
X155495592Y-121218390D02*
X155543211Y-121170771D01*
X155543211Y-121170771D02*
X155638449Y-121123152D01*
X155638449Y-121123152D02*
X155781306Y-121123152D01*
X155781306Y-121123152D02*
X155876544Y-121170771D01*
X155876544Y-121170771D02*
X155924163Y-121218390D01*
X155924163Y-121218390D02*
X155971782Y-121313628D01*
X155971782Y-121313628D02*
X155971782Y-121599342D01*
X155971782Y-121599342D02*
X155924163Y-121694580D01*
X155924163Y-121694580D02*
X155876544Y-121742200D01*
X155876544Y-121742200D02*
X155781306Y-121789819D01*
X155781306Y-121789819D02*
X155638449Y-121789819D01*
X156400354Y-121789819D02*
X156400354Y-121123152D01*
X156400354Y-121313628D02*
X156447973Y-121218390D01*
X156447973Y-121218390D02*
X156495592Y-121170771D01*
X156495592Y-121170771D02*
X156590830Y-121123152D01*
X156590830Y-121123152D02*
X156686068Y-121123152D01*
X156924164Y-121123152D02*
X157114640Y-121789819D01*
X157114640Y-121789819D02*
X157305116Y-121313628D01*
X157305116Y-121313628D02*
X157495592Y-121789819D01*
X157495592Y-121789819D02*
X157686068Y-121123152D01*
X158495592Y-121789819D02*
X158495592Y-121266009D01*
X158495592Y-121266009D02*
X158447973Y-121170771D01*
X158447973Y-121170771D02*
X158352735Y-121123152D01*
X158352735Y-121123152D02*
X158162259Y-121123152D01*
X158162259Y-121123152D02*
X158067021Y-121170771D01*
X158495592Y-121742200D02*
X158400354Y-121789819D01*
X158400354Y-121789819D02*
X158162259Y-121789819D01*
X158162259Y-121789819D02*
X158067021Y-121742200D01*
X158067021Y-121742200D02*
X158019402Y-121646961D01*
X158019402Y-121646961D02*
X158019402Y-121551723D01*
X158019402Y-121551723D02*
X158067021Y-121456485D01*
X158067021Y-121456485D02*
X158162259Y-121408866D01*
X158162259Y-121408866D02*
X158400354Y-121408866D01*
X158400354Y-121408866D02*
X158495592Y-121361247D01*
X158971783Y-121789819D02*
X158971783Y-121123152D01*
X158971783Y-121313628D02*
X159019402Y-121218390D01*
X159019402Y-121218390D02*
X159067021Y-121170771D01*
X159067021Y-121170771D02*
X159162259Y-121123152D01*
X159162259Y-121123152D02*
X159257497Y-121123152D01*
X160019402Y-121789819D02*
X160019402Y-120789819D01*
X160019402Y-121742200D02*
X159924164Y-121789819D01*
X159924164Y-121789819D02*
X159733688Y-121789819D01*
X159733688Y-121789819D02*
X159638450Y-121742200D01*
X159638450Y-121742200D02*
X159590831Y-121694580D01*
X159590831Y-121694580D02*
X159543212Y-121599342D01*
X159543212Y-121599342D02*
X159543212Y-121313628D01*
X159543212Y-121313628D02*
X159590831Y-121218390D01*
X159590831Y-121218390D02*
X159638450Y-121170771D01*
X159638450Y-121170771D02*
X159733688Y-121123152D01*
X159733688Y-121123152D02*
X159924164Y-121123152D01*
X159924164Y-121123152D02*
X160019402Y-121170771D01*
X161257498Y-121789819D02*
X161257498Y-120789819D01*
X161590831Y-120789819D02*
X161924164Y-121789819D01*
X161924164Y-121789819D02*
X162257497Y-120789819D01*
X164067021Y-120742200D02*
X163209879Y-122027914D01*
X165162260Y-121789819D02*
X165162260Y-120789819D01*
X165162260Y-120789819D02*
X165400355Y-120789819D01*
X165400355Y-120789819D02*
X165543212Y-120837438D01*
X165543212Y-120837438D02*
X165638450Y-120932676D01*
X165638450Y-120932676D02*
X165686069Y-121027914D01*
X165686069Y-121027914D02*
X165733688Y-121218390D01*
X165733688Y-121218390D02*
X165733688Y-121361247D01*
X165733688Y-121361247D02*
X165686069Y-121551723D01*
X165686069Y-121551723D02*
X165638450Y-121646961D01*
X165638450Y-121646961D02*
X165543212Y-121742200D01*
X165543212Y-121742200D02*
X165400355Y-121789819D01*
X165400355Y-121789819D02*
X165162260Y-121789819D01*
X166162260Y-121789819D02*
X166162260Y-121123152D01*
X166162260Y-120789819D02*
X166114641Y-120837438D01*
X166114641Y-120837438D02*
X166162260Y-120885057D01*
X166162260Y-120885057D02*
X166209879Y-120837438D01*
X166209879Y-120837438D02*
X166162260Y-120789819D01*
X166162260Y-120789819D02*
X166162260Y-120885057D01*
X166781307Y-121789819D02*
X166686069Y-121742200D01*
X166686069Y-121742200D02*
X166638450Y-121694580D01*
X166638450Y-121694580D02*
X166590831Y-121599342D01*
X166590831Y-121599342D02*
X166590831Y-121313628D01*
X166590831Y-121313628D02*
X166638450Y-121218390D01*
X166638450Y-121218390D02*
X166686069Y-121170771D01*
X166686069Y-121170771D02*
X166781307Y-121123152D01*
X166781307Y-121123152D02*
X166924164Y-121123152D01*
X166924164Y-121123152D02*
X167019402Y-121170771D01*
X167019402Y-121170771D02*
X167067021Y-121218390D01*
X167067021Y-121218390D02*
X167114640Y-121313628D01*
X167114640Y-121313628D02*
X167114640Y-121599342D01*
X167114640Y-121599342D02*
X167067021Y-121694580D01*
X167067021Y-121694580D02*
X167019402Y-121742200D01*
X167019402Y-121742200D02*
X166924164Y-121789819D01*
X166924164Y-121789819D02*
X166781307Y-121789819D01*
X167971783Y-121789819D02*
X167971783Y-120789819D01*
X167971783Y-121742200D02*
X167876545Y-121789819D01*
X167876545Y-121789819D02*
X167686069Y-121789819D01*
X167686069Y-121789819D02*
X167590831Y-121742200D01*
X167590831Y-121742200D02*
X167543212Y-121694580D01*
X167543212Y-121694580D02*
X167495593Y-121599342D01*
X167495593Y-121599342D02*
X167495593Y-121313628D01*
X167495593Y-121313628D02*
X167543212Y-121218390D01*
X167543212Y-121218390D02*
X167590831Y-121170771D01*
X167590831Y-121170771D02*
X167686069Y-121123152D01*
X167686069Y-121123152D02*
X167876545Y-121123152D01*
X167876545Y-121123152D02*
X167971783Y-121170771D01*
X168828926Y-121742200D02*
X168733688Y-121789819D01*
X168733688Y-121789819D02*
X168543212Y-121789819D01*
X168543212Y-121789819D02*
X168447974Y-121742200D01*
X168447974Y-121742200D02*
X168400355Y-121646961D01*
X168400355Y-121646961D02*
X168400355Y-121266009D01*
X168400355Y-121266009D02*
X168447974Y-121170771D01*
X168447974Y-121170771D02*
X168543212Y-121123152D01*
X168543212Y-121123152D02*
X168733688Y-121123152D01*
X168733688Y-121123152D02*
X168828926Y-121170771D01*
X168828926Y-121170771D02*
X168876545Y-121266009D01*
X168876545Y-121266009D02*
X168876545Y-121361247D01*
X168876545Y-121361247D02*
X168400355Y-121456485D01*
X170067022Y-121789819D02*
X170067022Y-120789819D01*
X170400355Y-120789819D02*
X170733688Y-121789819D01*
X170733688Y-121789819D02*
X171067021Y-120789819D01*
D13*
X108040713Y-67122318D02*
X108040713Y-65852318D01*
X109371190Y-67001365D02*
X109310714Y-67061842D01*
X109310714Y-67061842D02*
X109129285Y-67122318D01*
X109129285Y-67122318D02*
X109008333Y-67122318D01*
X109008333Y-67122318D02*
X108826904Y-67061842D01*
X108826904Y-67061842D02*
X108705952Y-66940889D01*
X108705952Y-66940889D02*
X108645475Y-66819937D01*
X108645475Y-66819937D02*
X108584999Y-66578032D01*
X108584999Y-66578032D02*
X108584999Y-66396603D01*
X108584999Y-66396603D02*
X108645475Y-66154699D01*
X108645475Y-66154699D02*
X108705952Y-66033746D01*
X108705952Y-66033746D02*
X108826904Y-65912794D01*
X108826904Y-65912794D02*
X109008333Y-65852318D01*
X109008333Y-65852318D02*
X109129285Y-65852318D01*
X109129285Y-65852318D02*
X109310714Y-65912794D01*
X109310714Y-65912794D02*
X109371190Y-65973270D01*
X110580714Y-67122318D02*
X109854999Y-67122318D01*
X110217856Y-67122318D02*
X110217856Y-65852318D01*
X110217856Y-65852318D02*
X110096904Y-66033746D01*
X110096904Y-66033746D02*
X109975952Y-66154699D01*
X109975952Y-66154699D02*
X109854999Y-66215175D01*
X111366904Y-65852318D02*
X111487857Y-65852318D01*
X111487857Y-65852318D02*
X111608809Y-65912794D01*
X111608809Y-65912794D02*
X111669285Y-65973270D01*
X111669285Y-65973270D02*
X111729761Y-66094222D01*
X111729761Y-66094222D02*
X111790238Y-66336127D01*
X111790238Y-66336127D02*
X111790238Y-66638508D01*
X111790238Y-66638508D02*
X111729761Y-66880413D01*
X111729761Y-66880413D02*
X111669285Y-67001365D01*
X111669285Y-67001365D02*
X111608809Y-67061842D01*
X111608809Y-67061842D02*
X111487857Y-67122318D01*
X111487857Y-67122318D02*
X111366904Y-67122318D01*
X111366904Y-67122318D02*
X111245952Y-67061842D01*
X111245952Y-67061842D02*
X111185476Y-67001365D01*
X111185476Y-67001365D02*
X111124999Y-66880413D01*
X111124999Y-66880413D02*
X111064523Y-66638508D01*
X111064523Y-66638508D02*
X111064523Y-66336127D01*
X111064523Y-66336127D02*
X111124999Y-66094222D01*
X111124999Y-66094222D02*
X111185476Y-65973270D01*
X111185476Y-65973270D02*
X111245952Y-65912794D01*
X111245952Y-65912794D02*
X111366904Y-65852318D01*
X112999762Y-67122318D02*
X112274047Y-67122318D01*
X112636904Y-67122318D02*
X112636904Y-65852318D01*
X112636904Y-65852318D02*
X112515952Y-66033746D01*
X112515952Y-66033746D02*
X112395000Y-66154699D01*
X112395000Y-66154699D02*
X112274047Y-66215175D01*
X88712318Y-101962856D02*
X89619461Y-101962856D01*
X89619461Y-101962856D02*
X89800889Y-102023333D01*
X89800889Y-102023333D02*
X89921842Y-102144285D01*
X89921842Y-102144285D02*
X89982318Y-102325714D01*
X89982318Y-102325714D02*
X89982318Y-102446666D01*
X89982318Y-100692856D02*
X89982318Y-101418571D01*
X89982318Y-101055714D02*
X88712318Y-101055714D01*
X88712318Y-101055714D02*
X88893746Y-101176666D01*
X88893746Y-101176666D02*
X89014699Y-101297618D01*
X89014699Y-101297618D02*
X89075175Y-101418571D01*
X88712318Y-99906666D02*
X88712318Y-99785713D01*
X88712318Y-99785713D02*
X88772794Y-99664761D01*
X88772794Y-99664761D02*
X88833270Y-99604285D01*
X88833270Y-99604285D02*
X88954222Y-99543809D01*
X88954222Y-99543809D02*
X89196127Y-99483332D01*
X89196127Y-99483332D02*
X89498508Y-99483332D01*
X89498508Y-99483332D02*
X89740413Y-99543809D01*
X89740413Y-99543809D02*
X89861365Y-99604285D01*
X89861365Y-99604285D02*
X89921842Y-99664761D01*
X89921842Y-99664761D02*
X89982318Y-99785713D01*
X89982318Y-99785713D02*
X89982318Y-99906666D01*
X89982318Y-99906666D02*
X89921842Y-100027618D01*
X89921842Y-100027618D02*
X89861365Y-100088094D01*
X89861365Y-100088094D02*
X89740413Y-100148571D01*
X89740413Y-100148571D02*
X89498508Y-100209047D01*
X89498508Y-100209047D02*
X89196127Y-100209047D01*
X89196127Y-100209047D02*
X88954222Y-100148571D01*
X88954222Y-100148571D02*
X88833270Y-100088094D01*
X88833270Y-100088094D02*
X88772794Y-100027618D01*
X88772794Y-100027618D02*
X88712318Y-99906666D01*
X88833270Y-98999523D02*
X88772794Y-98939047D01*
X88772794Y-98939047D02*
X88712318Y-98818094D01*
X88712318Y-98818094D02*
X88712318Y-98515713D01*
X88712318Y-98515713D02*
X88772794Y-98394761D01*
X88772794Y-98394761D02*
X88833270Y-98334285D01*
X88833270Y-98334285D02*
X88954222Y-98273808D01*
X88954222Y-98273808D02*
X89075175Y-98273808D01*
X89075175Y-98273808D02*
X89256603Y-98334285D01*
X89256603Y-98334285D02*
X89982318Y-99059999D01*
X89982318Y-99059999D02*
X89982318Y-98273808D01*
D12*
X175585714Y-57146819D02*
X176157142Y-57146819D01*
X175871428Y-58146819D02*
X175871428Y-57146819D01*
X176490476Y-58146819D02*
X176490476Y-57146819D01*
X176490476Y-57146819D02*
X176871428Y-57146819D01*
X176871428Y-57146819D02*
X176966666Y-57194438D01*
X176966666Y-57194438D02*
X177014285Y-57242057D01*
X177014285Y-57242057D02*
X177061904Y-57337295D01*
X177061904Y-57337295D02*
X177061904Y-57480152D01*
X177061904Y-57480152D02*
X177014285Y-57575390D01*
X177014285Y-57575390D02*
X176966666Y-57623009D01*
X176966666Y-57623009D02*
X176871428Y-57670628D01*
X176871428Y-57670628D02*
X176490476Y-57670628D01*
X178014285Y-58146819D02*
X177442857Y-58146819D01*
X177728571Y-58146819D02*
X177728571Y-57146819D01*
X177728571Y-57146819D02*
X177633333Y-57289676D01*
X177633333Y-57289676D02*
X177538095Y-57384914D01*
X177538095Y-57384914D02*
X177442857Y-57432533D01*
X178633333Y-57146819D02*
X178728571Y-57146819D01*
X178728571Y-57146819D02*
X178823809Y-57194438D01*
X178823809Y-57194438D02*
X178871428Y-57242057D01*
X178871428Y-57242057D02*
X178919047Y-57337295D01*
X178919047Y-57337295D02*
X178966666Y-57527771D01*
X178966666Y-57527771D02*
X178966666Y-57765866D01*
X178966666Y-57765866D02*
X178919047Y-57956342D01*
X178919047Y-57956342D02*
X178871428Y-58051580D01*
X178871428Y-58051580D02*
X178823809Y-58099200D01*
X178823809Y-58099200D02*
X178728571Y-58146819D01*
X178728571Y-58146819D02*
X178633333Y-58146819D01*
X178633333Y-58146819D02*
X178538095Y-58099200D01*
X178538095Y-58099200D02*
X178490476Y-58051580D01*
X178490476Y-58051580D02*
X178442857Y-57956342D01*
X178442857Y-57956342D02*
X178395238Y-57765866D01*
X178395238Y-57765866D02*
X178395238Y-57527771D01*
X178395238Y-57527771D02*
X178442857Y-57337295D01*
X178442857Y-57337295D02*
X178490476Y-57242057D01*
X178490476Y-57242057D02*
X178538095Y-57194438D01*
X178538095Y-57194438D02*
X178633333Y-57146819D01*
X179823809Y-57480152D02*
X179823809Y-58146819D01*
X179585714Y-57099200D02*
X179347619Y-57813485D01*
X179347619Y-57813485D02*
X179966666Y-57813485D01*
X183104285Y-61684819D02*
X183104285Y-62399104D01*
X183104285Y-62399104D02*
X183056666Y-62541961D01*
X183056666Y-62541961D02*
X182961428Y-62637200D01*
X182961428Y-62637200D02*
X182818571Y-62684819D01*
X182818571Y-62684819D02*
X182723333Y-62684819D01*
X184104285Y-62684819D02*
X183532857Y-62684819D01*
X183818571Y-62684819D02*
X183818571Y-61684819D01*
X183818571Y-61684819D02*
X183723333Y-61827676D01*
X183723333Y-61827676D02*
X183628095Y-61922914D01*
X183628095Y-61922914D02*
X183532857Y-61970533D01*
X184723333Y-61684819D02*
X184818571Y-61684819D01*
X184818571Y-61684819D02*
X184913809Y-61732438D01*
X184913809Y-61732438D02*
X184961428Y-61780057D01*
X184961428Y-61780057D02*
X185009047Y-61875295D01*
X185009047Y-61875295D02*
X185056666Y-62065771D01*
X185056666Y-62065771D02*
X185056666Y-62303866D01*
X185056666Y-62303866D02*
X185009047Y-62494342D01*
X185009047Y-62494342D02*
X184961428Y-62589580D01*
X184961428Y-62589580D02*
X184913809Y-62637200D01*
X184913809Y-62637200D02*
X184818571Y-62684819D01*
X184818571Y-62684819D02*
X184723333Y-62684819D01*
X184723333Y-62684819D02*
X184628095Y-62637200D01*
X184628095Y-62637200D02*
X184580476Y-62589580D01*
X184580476Y-62589580D02*
X184532857Y-62494342D01*
X184532857Y-62494342D02*
X184485238Y-62303866D01*
X184485238Y-62303866D02*
X184485238Y-62065771D01*
X184485238Y-62065771D02*
X184532857Y-61875295D01*
X184532857Y-61875295D02*
X184580476Y-61780057D01*
X184580476Y-61780057D02*
X184628095Y-61732438D01*
X184628095Y-61732438D02*
X184723333Y-61684819D01*
X185913809Y-61684819D02*
X185723333Y-61684819D01*
X185723333Y-61684819D02*
X185628095Y-61732438D01*
X185628095Y-61732438D02*
X185580476Y-61780057D01*
X185580476Y-61780057D02*
X185485238Y-61922914D01*
X185485238Y-61922914D02*
X185437619Y-62113390D01*
X185437619Y-62113390D02*
X185437619Y-62494342D01*
X185437619Y-62494342D02*
X185485238Y-62589580D01*
X185485238Y-62589580D02*
X185532857Y-62637200D01*
X185532857Y-62637200D02*
X185628095Y-62684819D01*
X185628095Y-62684819D02*
X185818571Y-62684819D01*
X185818571Y-62684819D02*
X185913809Y-62637200D01*
X185913809Y-62637200D02*
X185961428Y-62589580D01*
X185961428Y-62589580D02*
X186009047Y-62494342D01*
X186009047Y-62494342D02*
X186009047Y-62256247D01*
X186009047Y-62256247D02*
X185961428Y-62161009D01*
X185961428Y-62161009D02*
X185913809Y-62113390D01*
X185913809Y-62113390D02*
X185818571Y-62065771D01*
X185818571Y-62065771D02*
X185628095Y-62065771D01*
X185628095Y-62065771D02*
X185532857Y-62113390D01*
X185532857Y-62113390D02*
X185485238Y-62161009D01*
X185485238Y-62161009D02*
X185437619Y-62256247D01*
D13*
X122784809Y-109165365D02*
X122724333Y-109225842D01*
X122724333Y-109225842D02*
X122542904Y-109286318D01*
X122542904Y-109286318D02*
X122421952Y-109286318D01*
X122421952Y-109286318D02*
X122240523Y-109225842D01*
X122240523Y-109225842D02*
X122119571Y-109104889D01*
X122119571Y-109104889D02*
X122059094Y-108983937D01*
X122059094Y-108983937D02*
X121998618Y-108742032D01*
X121998618Y-108742032D02*
X121998618Y-108560603D01*
X121998618Y-108560603D02*
X122059094Y-108318699D01*
X122059094Y-108318699D02*
X122119571Y-108197746D01*
X122119571Y-108197746D02*
X122240523Y-108076794D01*
X122240523Y-108076794D02*
X122421952Y-108016318D01*
X122421952Y-108016318D02*
X122542904Y-108016318D01*
X122542904Y-108016318D02*
X122724333Y-108076794D01*
X122724333Y-108076794D02*
X122784809Y-108137270D01*
X123994333Y-109286318D02*
X123268618Y-109286318D01*
X123631475Y-109286318D02*
X123631475Y-108016318D01*
X123631475Y-108016318D02*
X123510523Y-108197746D01*
X123510523Y-108197746D02*
X123389571Y-108318699D01*
X123389571Y-108318699D02*
X123268618Y-108379175D01*
X124780523Y-108016318D02*
X124901476Y-108016318D01*
X124901476Y-108016318D02*
X125022428Y-108076794D01*
X125022428Y-108076794D02*
X125082904Y-108137270D01*
X125082904Y-108137270D02*
X125143380Y-108258222D01*
X125143380Y-108258222D02*
X125203857Y-108500127D01*
X125203857Y-108500127D02*
X125203857Y-108802508D01*
X125203857Y-108802508D02*
X125143380Y-109044413D01*
X125143380Y-109044413D02*
X125082904Y-109165365D01*
X125082904Y-109165365D02*
X125022428Y-109225842D01*
X125022428Y-109225842D02*
X124901476Y-109286318D01*
X124901476Y-109286318D02*
X124780523Y-109286318D01*
X124780523Y-109286318D02*
X124659571Y-109225842D01*
X124659571Y-109225842D02*
X124599095Y-109165365D01*
X124599095Y-109165365D02*
X124538618Y-109044413D01*
X124538618Y-109044413D02*
X124478142Y-108802508D01*
X124478142Y-108802508D02*
X124478142Y-108500127D01*
X124478142Y-108500127D02*
X124538618Y-108258222D01*
X124538618Y-108258222D02*
X124599095Y-108137270D01*
X124599095Y-108137270D02*
X124659571Y-108076794D01*
X124659571Y-108076794D02*
X124780523Y-108016318D01*
X126352904Y-108016318D02*
X125748142Y-108016318D01*
X125748142Y-108016318D02*
X125687666Y-108621080D01*
X125687666Y-108621080D02*
X125748142Y-108560603D01*
X125748142Y-108560603D02*
X125869095Y-108500127D01*
X125869095Y-108500127D02*
X126171476Y-108500127D01*
X126171476Y-108500127D02*
X126292428Y-108560603D01*
X126292428Y-108560603D02*
X126352904Y-108621080D01*
X126352904Y-108621080D02*
X126413381Y-108742032D01*
X126413381Y-108742032D02*
X126413381Y-109044413D01*
X126413381Y-109044413D02*
X126352904Y-109165365D01*
X126352904Y-109165365D02*
X126292428Y-109225842D01*
X126292428Y-109225842D02*
X126171476Y-109286318D01*
X126171476Y-109286318D02*
X125869095Y-109286318D01*
X125869095Y-109286318D02*
X125748142Y-109225842D01*
X125748142Y-109225842D02*
X125687666Y-109165365D01*
D12*
X108775714Y-49746819D02*
X108775714Y-50556342D01*
X108775714Y-50556342D02*
X108823333Y-50651580D01*
X108823333Y-50651580D02*
X108870952Y-50699200D01*
X108870952Y-50699200D02*
X108966190Y-50746819D01*
X108966190Y-50746819D02*
X109156666Y-50746819D01*
X109156666Y-50746819D02*
X109251904Y-50699200D01*
X109251904Y-50699200D02*
X109299523Y-50651580D01*
X109299523Y-50651580D02*
X109347142Y-50556342D01*
X109347142Y-50556342D02*
X109347142Y-49746819D01*
X110347142Y-50746819D02*
X109775714Y-50746819D01*
X110061428Y-50746819D02*
X110061428Y-49746819D01*
X110061428Y-49746819D02*
X109966190Y-49889676D01*
X109966190Y-49889676D02*
X109870952Y-49984914D01*
X109870952Y-49984914D02*
X109775714Y-50032533D01*
X110966190Y-49746819D02*
X111061428Y-49746819D01*
X111061428Y-49746819D02*
X111156666Y-49794438D01*
X111156666Y-49794438D02*
X111204285Y-49842057D01*
X111204285Y-49842057D02*
X111251904Y-49937295D01*
X111251904Y-49937295D02*
X111299523Y-50127771D01*
X111299523Y-50127771D02*
X111299523Y-50365866D01*
X111299523Y-50365866D02*
X111251904Y-50556342D01*
X111251904Y-50556342D02*
X111204285Y-50651580D01*
X111204285Y-50651580D02*
X111156666Y-50699200D01*
X111156666Y-50699200D02*
X111061428Y-50746819D01*
X111061428Y-50746819D02*
X110966190Y-50746819D01*
X110966190Y-50746819D02*
X110870952Y-50699200D01*
X110870952Y-50699200D02*
X110823333Y-50651580D01*
X110823333Y-50651580D02*
X110775714Y-50556342D01*
X110775714Y-50556342D02*
X110728095Y-50365866D01*
X110728095Y-50365866D02*
X110728095Y-50127771D01*
X110728095Y-50127771D02*
X110775714Y-49937295D01*
X110775714Y-49937295D02*
X110823333Y-49842057D01*
X110823333Y-49842057D02*
X110870952Y-49794438D01*
X110870952Y-49794438D02*
X110966190Y-49746819D01*
X112251904Y-50746819D02*
X111680476Y-50746819D01*
X111966190Y-50746819D02*
X111966190Y-49746819D01*
X111966190Y-49746819D02*
X111870952Y-49889676D01*
X111870952Y-49889676D02*
X111775714Y-49984914D01*
X111775714Y-49984914D02*
X111680476Y-50032533D01*
X130397380Y-119930057D02*
X130302142Y-119882438D01*
X130302142Y-119882438D02*
X130206904Y-119787200D01*
X130206904Y-119787200D02*
X130064047Y-119644342D01*
X130064047Y-119644342D02*
X129968809Y-119596723D01*
X129968809Y-119596723D02*
X129873571Y-119596723D01*
X129921190Y-119834819D02*
X129825952Y-119787200D01*
X129825952Y-119787200D02*
X129730714Y-119691961D01*
X129730714Y-119691961D02*
X129683095Y-119501485D01*
X129683095Y-119501485D02*
X129683095Y-119168152D01*
X129683095Y-119168152D02*
X129730714Y-118977676D01*
X129730714Y-118977676D02*
X129825952Y-118882438D01*
X129825952Y-118882438D02*
X129921190Y-118834819D01*
X129921190Y-118834819D02*
X130111666Y-118834819D01*
X130111666Y-118834819D02*
X130206904Y-118882438D01*
X130206904Y-118882438D02*
X130302142Y-118977676D01*
X130302142Y-118977676D02*
X130349761Y-119168152D01*
X130349761Y-119168152D02*
X130349761Y-119501485D01*
X130349761Y-119501485D02*
X130302142Y-119691961D01*
X130302142Y-119691961D02*
X130206904Y-119787200D01*
X130206904Y-119787200D02*
X130111666Y-119834819D01*
X130111666Y-119834819D02*
X129921190Y-119834819D01*
X131302142Y-119834819D02*
X130730714Y-119834819D01*
X131016428Y-119834819D02*
X131016428Y-118834819D01*
X131016428Y-118834819D02*
X130921190Y-118977676D01*
X130921190Y-118977676D02*
X130825952Y-119072914D01*
X130825952Y-119072914D02*
X130730714Y-119120533D01*
X131921190Y-118834819D02*
X132016428Y-118834819D01*
X132016428Y-118834819D02*
X132111666Y-118882438D01*
X132111666Y-118882438D02*
X132159285Y-118930057D01*
X132159285Y-118930057D02*
X132206904Y-119025295D01*
X132206904Y-119025295D02*
X132254523Y-119215771D01*
X132254523Y-119215771D02*
X132254523Y-119453866D01*
X132254523Y-119453866D02*
X132206904Y-119644342D01*
X132206904Y-119644342D02*
X132159285Y-119739580D01*
X132159285Y-119739580D02*
X132111666Y-119787200D01*
X132111666Y-119787200D02*
X132016428Y-119834819D01*
X132016428Y-119834819D02*
X131921190Y-119834819D01*
X131921190Y-119834819D02*
X131825952Y-119787200D01*
X131825952Y-119787200D02*
X131778333Y-119739580D01*
X131778333Y-119739580D02*
X131730714Y-119644342D01*
X131730714Y-119644342D02*
X131683095Y-119453866D01*
X131683095Y-119453866D02*
X131683095Y-119215771D01*
X131683095Y-119215771D02*
X131730714Y-119025295D01*
X131730714Y-119025295D02*
X131778333Y-118930057D01*
X131778333Y-118930057D02*
X131825952Y-118882438D01*
X131825952Y-118882438D02*
X131921190Y-118834819D01*
X132635476Y-118930057D02*
X132683095Y-118882438D01*
X132683095Y-118882438D02*
X132778333Y-118834819D01*
X132778333Y-118834819D02*
X133016428Y-118834819D01*
X133016428Y-118834819D02*
X133111666Y-118882438D01*
X133111666Y-118882438D02*
X133159285Y-118930057D01*
X133159285Y-118930057D02*
X133206904Y-119025295D01*
X133206904Y-119025295D02*
X133206904Y-119120533D01*
X133206904Y-119120533D02*
X133159285Y-119263390D01*
X133159285Y-119263390D02*
X132587857Y-119834819D01*
X132587857Y-119834819D02*
X133206904Y-119834819D01*
X134829779Y-104644819D02*
X134829779Y-103644819D01*
X134829779Y-103644819D02*
X135067874Y-103644819D01*
X135067874Y-103644819D02*
X135210731Y-103692438D01*
X135210731Y-103692438D02*
X135305969Y-103787676D01*
X135305969Y-103787676D02*
X135353588Y-103882914D01*
X135353588Y-103882914D02*
X135401207Y-104073390D01*
X135401207Y-104073390D02*
X135401207Y-104216247D01*
X135401207Y-104216247D02*
X135353588Y-104406723D01*
X135353588Y-104406723D02*
X135305969Y-104501961D01*
X135305969Y-104501961D02*
X135210731Y-104597200D01*
X135210731Y-104597200D02*
X135067874Y-104644819D01*
X135067874Y-104644819D02*
X134829779Y-104644819D01*
X136544064Y-103597200D02*
X135686922Y-104882914D01*
X136829779Y-104597200D02*
X136972636Y-104644819D01*
X136972636Y-104644819D02*
X137210731Y-104644819D01*
X137210731Y-104644819D02*
X137305969Y-104597200D01*
X137305969Y-104597200D02*
X137353588Y-104549580D01*
X137353588Y-104549580D02*
X137401207Y-104454342D01*
X137401207Y-104454342D02*
X137401207Y-104359104D01*
X137401207Y-104359104D02*
X137353588Y-104263866D01*
X137353588Y-104263866D02*
X137305969Y-104216247D01*
X137305969Y-104216247D02*
X137210731Y-104168628D01*
X137210731Y-104168628D02*
X137020255Y-104121009D01*
X137020255Y-104121009D02*
X136925017Y-104073390D01*
X136925017Y-104073390D02*
X136877398Y-104025771D01*
X136877398Y-104025771D02*
X136829779Y-103930533D01*
X136829779Y-103930533D02*
X136829779Y-103835295D01*
X136829779Y-103835295D02*
X136877398Y-103740057D01*
X136877398Y-103740057D02*
X136925017Y-103692438D01*
X136925017Y-103692438D02*
X137020255Y-103644819D01*
X137020255Y-103644819D02*
X137258350Y-103644819D01*
X137258350Y-103644819D02*
X137401207Y-103692438D01*
X134909160Y-110185200D02*
X135052017Y-110232819D01*
X135052017Y-110232819D02*
X135290112Y-110232819D01*
X135290112Y-110232819D02*
X135385350Y-110185200D01*
X135385350Y-110185200D02*
X135432969Y-110137580D01*
X135432969Y-110137580D02*
X135480588Y-110042342D01*
X135480588Y-110042342D02*
X135480588Y-109947104D01*
X135480588Y-109947104D02*
X135432969Y-109851866D01*
X135432969Y-109851866D02*
X135385350Y-109804247D01*
X135385350Y-109804247D02*
X135290112Y-109756628D01*
X135290112Y-109756628D02*
X135099636Y-109709009D01*
X135099636Y-109709009D02*
X135004398Y-109661390D01*
X135004398Y-109661390D02*
X134956779Y-109613771D01*
X134956779Y-109613771D02*
X134909160Y-109518533D01*
X134909160Y-109518533D02*
X134909160Y-109423295D01*
X134909160Y-109423295D02*
X134956779Y-109328057D01*
X134956779Y-109328057D02*
X135004398Y-109280438D01*
X135004398Y-109280438D02*
X135099636Y-109232819D01*
X135099636Y-109232819D02*
X135337731Y-109232819D01*
X135337731Y-109232819D02*
X135480588Y-109280438D01*
X136623445Y-109185200D02*
X135766303Y-110470914D01*
X136956779Y-110232819D02*
X136956779Y-109232819D01*
X136956779Y-109232819D02*
X137194874Y-109232819D01*
X137194874Y-109232819D02*
X137337731Y-109280438D01*
X137337731Y-109280438D02*
X137432969Y-109375676D01*
X137432969Y-109375676D02*
X137480588Y-109470914D01*
X137480588Y-109470914D02*
X137528207Y-109661390D01*
X137528207Y-109661390D02*
X137528207Y-109804247D01*
X137528207Y-109804247D02*
X137480588Y-109994723D01*
X137480588Y-109994723D02*
X137432969Y-110089961D01*
X137432969Y-110089961D02*
X137337731Y-110185200D01*
X137337731Y-110185200D02*
X137194874Y-110232819D01*
X137194874Y-110232819D02*
X136956779Y-110232819D01*
X134321779Y-115820819D02*
X134321779Y-114820819D01*
X134321779Y-114820819D02*
X134893207Y-115820819D01*
X134893207Y-115820819D02*
X134893207Y-114820819D01*
X135940826Y-115725580D02*
X135893207Y-115773200D01*
X135893207Y-115773200D02*
X135750350Y-115820819D01*
X135750350Y-115820819D02*
X135655112Y-115820819D01*
X135655112Y-115820819D02*
X135512255Y-115773200D01*
X135512255Y-115773200D02*
X135417017Y-115677961D01*
X135417017Y-115677961D02*
X135369398Y-115582723D01*
X135369398Y-115582723D02*
X135321779Y-115392247D01*
X135321779Y-115392247D02*
X135321779Y-115249390D01*
X135321779Y-115249390D02*
X135369398Y-115058914D01*
X135369398Y-115058914D02*
X135417017Y-114963676D01*
X135417017Y-114963676D02*
X135512255Y-114868438D01*
X135512255Y-114868438D02*
X135655112Y-114820819D01*
X135655112Y-114820819D02*
X135750350Y-114820819D01*
X135750350Y-114820819D02*
X135893207Y-114868438D01*
X135893207Y-114868438D02*
X135940826Y-114916057D01*
X137083683Y-114773200D02*
X136226541Y-116058914D01*
X137940826Y-114868438D02*
X137845588Y-114820819D01*
X137845588Y-114820819D02*
X137702731Y-114820819D01*
X137702731Y-114820819D02*
X137559874Y-114868438D01*
X137559874Y-114868438D02*
X137464636Y-114963676D01*
X137464636Y-114963676D02*
X137417017Y-115058914D01*
X137417017Y-115058914D02*
X137369398Y-115249390D01*
X137369398Y-115249390D02*
X137369398Y-115392247D01*
X137369398Y-115392247D02*
X137417017Y-115582723D01*
X137417017Y-115582723D02*
X137464636Y-115677961D01*
X137464636Y-115677961D02*
X137559874Y-115773200D01*
X137559874Y-115773200D02*
X137702731Y-115820819D01*
X137702731Y-115820819D02*
X137797969Y-115820819D01*
X137797969Y-115820819D02*
X137940826Y-115773200D01*
X137940826Y-115773200D02*
X137988445Y-115725580D01*
X137988445Y-115725580D02*
X137988445Y-115392247D01*
X137988445Y-115392247D02*
X137797969Y-115392247D01*
X134845588Y-98612438D02*
X134750350Y-98564819D01*
X134750350Y-98564819D02*
X134607493Y-98564819D01*
X134607493Y-98564819D02*
X134464636Y-98612438D01*
X134464636Y-98612438D02*
X134369398Y-98707676D01*
X134369398Y-98707676D02*
X134321779Y-98802914D01*
X134321779Y-98802914D02*
X134274160Y-98993390D01*
X134274160Y-98993390D02*
X134274160Y-99136247D01*
X134274160Y-99136247D02*
X134321779Y-99326723D01*
X134321779Y-99326723D02*
X134369398Y-99421961D01*
X134369398Y-99421961D02*
X134464636Y-99517200D01*
X134464636Y-99517200D02*
X134607493Y-99564819D01*
X134607493Y-99564819D02*
X134702731Y-99564819D01*
X134702731Y-99564819D02*
X134845588Y-99517200D01*
X134845588Y-99517200D02*
X134893207Y-99469580D01*
X134893207Y-99469580D02*
X134893207Y-99136247D01*
X134893207Y-99136247D02*
X134702731Y-99136247D01*
X136036064Y-98517200D02*
X135178922Y-99802914D01*
X136369398Y-99564819D02*
X136369398Y-98564819D01*
X136369398Y-98564819D02*
X136940826Y-99564819D01*
X136940826Y-99564819D02*
X136940826Y-98564819D01*
X137988445Y-99469580D02*
X137940826Y-99517200D01*
X137940826Y-99517200D02*
X137797969Y-99564819D01*
X137797969Y-99564819D02*
X137702731Y-99564819D01*
X137702731Y-99564819D02*
X137559874Y-99517200D01*
X137559874Y-99517200D02*
X137464636Y-99421961D01*
X137464636Y-99421961D02*
X137417017Y-99326723D01*
X137417017Y-99326723D02*
X137369398Y-99136247D01*
X137369398Y-99136247D02*
X137369398Y-98993390D01*
X137369398Y-98993390D02*
X137417017Y-98802914D01*
X137417017Y-98802914D02*
X137464636Y-98707676D01*
X137464636Y-98707676D02*
X137559874Y-98612438D01*
X137559874Y-98612438D02*
X137702731Y-98564819D01*
X137702731Y-98564819D02*
X137797969Y-98564819D01*
X137797969Y-98564819D02*
X137940826Y-98612438D01*
X137940826Y-98612438D02*
X137988445Y-98660057D01*
X119739580Y-106529047D02*
X119787200Y-106576666D01*
X119787200Y-106576666D02*
X119834819Y-106719523D01*
X119834819Y-106719523D02*
X119834819Y-106814761D01*
X119834819Y-106814761D02*
X119787200Y-106957618D01*
X119787200Y-106957618D02*
X119691961Y-107052856D01*
X119691961Y-107052856D02*
X119596723Y-107100475D01*
X119596723Y-107100475D02*
X119406247Y-107148094D01*
X119406247Y-107148094D02*
X119263390Y-107148094D01*
X119263390Y-107148094D02*
X119072914Y-107100475D01*
X119072914Y-107100475D02*
X118977676Y-107052856D01*
X118977676Y-107052856D02*
X118882438Y-106957618D01*
X118882438Y-106957618D02*
X118834819Y-106814761D01*
X118834819Y-106814761D02*
X118834819Y-106719523D01*
X118834819Y-106719523D02*
X118882438Y-106576666D01*
X118882438Y-106576666D02*
X118930057Y-106529047D01*
X119834819Y-105576666D02*
X119834819Y-106148094D01*
X119834819Y-105862380D02*
X118834819Y-105862380D01*
X118834819Y-105862380D02*
X118977676Y-105957618D01*
X118977676Y-105957618D02*
X119072914Y-106052856D01*
X119072914Y-106052856D02*
X119120533Y-106148094D01*
X118834819Y-104957618D02*
X118834819Y-104862380D01*
X118834819Y-104862380D02*
X118882438Y-104767142D01*
X118882438Y-104767142D02*
X118930057Y-104719523D01*
X118930057Y-104719523D02*
X119025295Y-104671904D01*
X119025295Y-104671904D02*
X119215771Y-104624285D01*
X119215771Y-104624285D02*
X119453866Y-104624285D01*
X119453866Y-104624285D02*
X119644342Y-104671904D01*
X119644342Y-104671904D02*
X119739580Y-104719523D01*
X119739580Y-104719523D02*
X119787200Y-104767142D01*
X119787200Y-104767142D02*
X119834819Y-104862380D01*
X119834819Y-104862380D02*
X119834819Y-104957618D01*
X119834819Y-104957618D02*
X119787200Y-105052856D01*
X119787200Y-105052856D02*
X119739580Y-105100475D01*
X119739580Y-105100475D02*
X119644342Y-105148094D01*
X119644342Y-105148094D02*
X119453866Y-105195713D01*
X119453866Y-105195713D02*
X119215771Y-105195713D01*
X119215771Y-105195713D02*
X119025295Y-105148094D01*
X119025295Y-105148094D02*
X118930057Y-105100475D01*
X118930057Y-105100475D02*
X118882438Y-105052856D01*
X118882438Y-105052856D02*
X118834819Y-104957618D01*
X118834819Y-104290951D02*
X118834819Y-103671904D01*
X118834819Y-103671904D02*
X119215771Y-104005237D01*
X119215771Y-104005237D02*
X119215771Y-103862380D01*
X119215771Y-103862380D02*
X119263390Y-103767142D01*
X119263390Y-103767142D02*
X119311009Y-103719523D01*
X119311009Y-103719523D02*
X119406247Y-103671904D01*
X119406247Y-103671904D02*
X119644342Y-103671904D01*
X119644342Y-103671904D02*
X119739580Y-103719523D01*
X119739580Y-103719523D02*
X119787200Y-103767142D01*
X119787200Y-103767142D02*
X119834819Y-103862380D01*
X119834819Y-103862380D02*
X119834819Y-104148094D01*
X119834819Y-104148094D02*
X119787200Y-104243332D01*
X119787200Y-104243332D02*
X119739580Y-104290951D01*
D13*
X77409318Y-60052856D02*
X78316461Y-60052856D01*
X78316461Y-60052856D02*
X78497889Y-60113333D01*
X78497889Y-60113333D02*
X78618842Y-60234285D01*
X78618842Y-60234285D02*
X78679318Y-60415714D01*
X78679318Y-60415714D02*
X78679318Y-60536666D01*
X78679318Y-58782856D02*
X78679318Y-59508571D01*
X78679318Y-59145714D02*
X77409318Y-59145714D01*
X77409318Y-59145714D02*
X77590746Y-59266666D01*
X77590746Y-59266666D02*
X77711699Y-59387618D01*
X77711699Y-59387618D02*
X77772175Y-59508571D01*
X77409318Y-57996666D02*
X77409318Y-57875713D01*
X77409318Y-57875713D02*
X77469794Y-57754761D01*
X77469794Y-57754761D02*
X77530270Y-57694285D01*
X77530270Y-57694285D02*
X77651222Y-57633809D01*
X77651222Y-57633809D02*
X77893127Y-57573332D01*
X77893127Y-57573332D02*
X78195508Y-57573332D01*
X78195508Y-57573332D02*
X78437413Y-57633809D01*
X78437413Y-57633809D02*
X78558365Y-57694285D01*
X78558365Y-57694285D02*
X78618842Y-57754761D01*
X78618842Y-57754761D02*
X78679318Y-57875713D01*
X78679318Y-57875713D02*
X78679318Y-57996666D01*
X78679318Y-57996666D02*
X78618842Y-58117618D01*
X78618842Y-58117618D02*
X78558365Y-58178094D01*
X78558365Y-58178094D02*
X78437413Y-58238571D01*
X78437413Y-58238571D02*
X78195508Y-58299047D01*
X78195508Y-58299047D02*
X77893127Y-58299047D01*
X77893127Y-58299047D02*
X77651222Y-58238571D01*
X77651222Y-58238571D02*
X77530270Y-58178094D01*
X77530270Y-58178094D02*
X77469794Y-58117618D01*
X77469794Y-58117618D02*
X77409318Y-57996666D01*
X78679318Y-56363808D02*
X78679318Y-57089523D01*
X78679318Y-56726666D02*
X77409318Y-56726666D01*
X77409318Y-56726666D02*
X77590746Y-56847618D01*
X77590746Y-56847618D02*
X77711699Y-56968570D01*
X77711699Y-56968570D02*
X77772175Y-57089523D01*
D12*
X183705714Y-40704819D02*
X183705714Y-39704819D01*
X183705714Y-40181009D02*
X184277142Y-40181009D01*
X184277142Y-40704819D02*
X184277142Y-39704819D01*
X185277142Y-40704819D02*
X184705714Y-40704819D01*
X184991428Y-40704819D02*
X184991428Y-39704819D01*
X184991428Y-39704819D02*
X184896190Y-39847676D01*
X184896190Y-39847676D02*
X184800952Y-39942914D01*
X184800952Y-39942914D02*
X184705714Y-39990533D01*
X185896190Y-39704819D02*
X185991428Y-39704819D01*
X185991428Y-39704819D02*
X186086666Y-39752438D01*
X186086666Y-39752438D02*
X186134285Y-39800057D01*
X186134285Y-39800057D02*
X186181904Y-39895295D01*
X186181904Y-39895295D02*
X186229523Y-40085771D01*
X186229523Y-40085771D02*
X186229523Y-40323866D01*
X186229523Y-40323866D02*
X186181904Y-40514342D01*
X186181904Y-40514342D02*
X186134285Y-40609580D01*
X186134285Y-40609580D02*
X186086666Y-40657200D01*
X186086666Y-40657200D02*
X185991428Y-40704819D01*
X185991428Y-40704819D02*
X185896190Y-40704819D01*
X185896190Y-40704819D02*
X185800952Y-40657200D01*
X185800952Y-40657200D02*
X185753333Y-40609580D01*
X185753333Y-40609580D02*
X185705714Y-40514342D01*
X185705714Y-40514342D02*
X185658095Y-40323866D01*
X185658095Y-40323866D02*
X185658095Y-40085771D01*
X185658095Y-40085771D02*
X185705714Y-39895295D01*
X185705714Y-39895295D02*
X185753333Y-39800057D01*
X185753333Y-39800057D02*
X185800952Y-39752438D01*
X185800952Y-39752438D02*
X185896190Y-39704819D01*
X186610476Y-39800057D02*
X186658095Y-39752438D01*
X186658095Y-39752438D02*
X186753333Y-39704819D01*
X186753333Y-39704819D02*
X186991428Y-39704819D01*
X186991428Y-39704819D02*
X187086666Y-39752438D01*
X187086666Y-39752438D02*
X187134285Y-39800057D01*
X187134285Y-39800057D02*
X187181904Y-39895295D01*
X187181904Y-39895295D02*
X187181904Y-39990533D01*
X187181904Y-39990533D02*
X187134285Y-40133390D01*
X187134285Y-40133390D02*
X186562857Y-40704819D01*
X186562857Y-40704819D02*
X187181904Y-40704819D01*
D13*
X166218809Y-100783365D02*
X166158333Y-100843842D01*
X166158333Y-100843842D02*
X165976904Y-100904318D01*
X165976904Y-100904318D02*
X165855952Y-100904318D01*
X165855952Y-100904318D02*
X165674523Y-100843842D01*
X165674523Y-100843842D02*
X165553571Y-100722889D01*
X165553571Y-100722889D02*
X165493094Y-100601937D01*
X165493094Y-100601937D02*
X165432618Y-100360032D01*
X165432618Y-100360032D02*
X165432618Y-100178603D01*
X165432618Y-100178603D02*
X165493094Y-99936699D01*
X165493094Y-99936699D02*
X165553571Y-99815746D01*
X165553571Y-99815746D02*
X165674523Y-99694794D01*
X165674523Y-99694794D02*
X165855952Y-99634318D01*
X165855952Y-99634318D02*
X165976904Y-99634318D01*
X165976904Y-99634318D02*
X166158333Y-99694794D01*
X166158333Y-99694794D02*
X166218809Y-99755270D01*
X167428333Y-100904318D02*
X166702618Y-100904318D01*
X167065475Y-100904318D02*
X167065475Y-99634318D01*
X167065475Y-99634318D02*
X166944523Y-99815746D01*
X166944523Y-99815746D02*
X166823571Y-99936699D01*
X166823571Y-99936699D02*
X166702618Y-99997175D01*
X168214523Y-99634318D02*
X168335476Y-99634318D01*
X168335476Y-99634318D02*
X168456428Y-99694794D01*
X168456428Y-99694794D02*
X168516904Y-99755270D01*
X168516904Y-99755270D02*
X168577380Y-99876222D01*
X168577380Y-99876222D02*
X168637857Y-100118127D01*
X168637857Y-100118127D02*
X168637857Y-100420508D01*
X168637857Y-100420508D02*
X168577380Y-100662413D01*
X168577380Y-100662413D02*
X168516904Y-100783365D01*
X168516904Y-100783365D02*
X168456428Y-100843842D01*
X168456428Y-100843842D02*
X168335476Y-100904318D01*
X168335476Y-100904318D02*
X168214523Y-100904318D01*
X168214523Y-100904318D02*
X168093571Y-100843842D01*
X168093571Y-100843842D02*
X168033095Y-100783365D01*
X168033095Y-100783365D02*
X167972618Y-100662413D01*
X167972618Y-100662413D02*
X167912142Y-100420508D01*
X167912142Y-100420508D02*
X167912142Y-100118127D01*
X167912142Y-100118127D02*
X167972618Y-99876222D01*
X167972618Y-99876222D02*
X168033095Y-99755270D01*
X168033095Y-99755270D02*
X168093571Y-99694794D01*
X168093571Y-99694794D02*
X168214523Y-99634318D01*
X169363571Y-100178603D02*
X169242619Y-100118127D01*
X169242619Y-100118127D02*
X169182142Y-100057651D01*
X169182142Y-100057651D02*
X169121666Y-99936699D01*
X169121666Y-99936699D02*
X169121666Y-99876222D01*
X169121666Y-99876222D02*
X169182142Y-99755270D01*
X169182142Y-99755270D02*
X169242619Y-99694794D01*
X169242619Y-99694794D02*
X169363571Y-99634318D01*
X169363571Y-99634318D02*
X169605476Y-99634318D01*
X169605476Y-99634318D02*
X169726428Y-99694794D01*
X169726428Y-99694794D02*
X169786904Y-99755270D01*
X169786904Y-99755270D02*
X169847381Y-99876222D01*
X169847381Y-99876222D02*
X169847381Y-99936699D01*
X169847381Y-99936699D02*
X169786904Y-100057651D01*
X169786904Y-100057651D02*
X169726428Y-100118127D01*
X169726428Y-100118127D02*
X169605476Y-100178603D01*
X169605476Y-100178603D02*
X169363571Y-100178603D01*
X169363571Y-100178603D02*
X169242619Y-100239080D01*
X169242619Y-100239080D02*
X169182142Y-100299556D01*
X169182142Y-100299556D02*
X169121666Y-100420508D01*
X169121666Y-100420508D02*
X169121666Y-100662413D01*
X169121666Y-100662413D02*
X169182142Y-100783365D01*
X169182142Y-100783365D02*
X169242619Y-100843842D01*
X169242619Y-100843842D02*
X169363571Y-100904318D01*
X169363571Y-100904318D02*
X169605476Y-100904318D01*
X169605476Y-100904318D02*
X169726428Y-100843842D01*
X169726428Y-100843842D02*
X169786904Y-100783365D01*
X169786904Y-100783365D02*
X169847381Y-100662413D01*
X169847381Y-100662413D02*
X169847381Y-100420508D01*
X169847381Y-100420508D02*
X169786904Y-100299556D01*
X169786904Y-100299556D02*
X169726428Y-100239080D01*
X169726428Y-100239080D02*
X169605476Y-100178603D01*
D12*
X85280714Y-40704819D02*
X85280714Y-39704819D01*
X85280714Y-40181009D02*
X85852142Y-40181009D01*
X85852142Y-40704819D02*
X85852142Y-39704819D01*
X86852142Y-40704819D02*
X86280714Y-40704819D01*
X86566428Y-40704819D02*
X86566428Y-39704819D01*
X86566428Y-39704819D02*
X86471190Y-39847676D01*
X86471190Y-39847676D02*
X86375952Y-39942914D01*
X86375952Y-39942914D02*
X86280714Y-39990533D01*
X87471190Y-39704819D02*
X87566428Y-39704819D01*
X87566428Y-39704819D02*
X87661666Y-39752438D01*
X87661666Y-39752438D02*
X87709285Y-39800057D01*
X87709285Y-39800057D02*
X87756904Y-39895295D01*
X87756904Y-39895295D02*
X87804523Y-40085771D01*
X87804523Y-40085771D02*
X87804523Y-40323866D01*
X87804523Y-40323866D02*
X87756904Y-40514342D01*
X87756904Y-40514342D02*
X87709285Y-40609580D01*
X87709285Y-40609580D02*
X87661666Y-40657200D01*
X87661666Y-40657200D02*
X87566428Y-40704819D01*
X87566428Y-40704819D02*
X87471190Y-40704819D01*
X87471190Y-40704819D02*
X87375952Y-40657200D01*
X87375952Y-40657200D02*
X87328333Y-40609580D01*
X87328333Y-40609580D02*
X87280714Y-40514342D01*
X87280714Y-40514342D02*
X87233095Y-40323866D01*
X87233095Y-40323866D02*
X87233095Y-40085771D01*
X87233095Y-40085771D02*
X87280714Y-39895295D01*
X87280714Y-39895295D02*
X87328333Y-39800057D01*
X87328333Y-39800057D02*
X87375952Y-39752438D01*
X87375952Y-39752438D02*
X87471190Y-39704819D01*
X88661666Y-40038152D02*
X88661666Y-40704819D01*
X88423571Y-39657200D02*
X88185476Y-40371485D01*
X88185476Y-40371485D02*
X88804523Y-40371485D01*
D13*
X95395143Y-46040318D02*
X95395143Y-46947461D01*
X95395143Y-46947461D02*
X95334666Y-47128889D01*
X95334666Y-47128889D02*
X95213714Y-47249842D01*
X95213714Y-47249842D02*
X95032285Y-47310318D01*
X95032285Y-47310318D02*
X94911333Y-47310318D01*
X96665143Y-47310318D02*
X95939428Y-47310318D01*
X96302285Y-47310318D02*
X96302285Y-46040318D01*
X96302285Y-46040318D02*
X96181333Y-46221746D01*
X96181333Y-46221746D02*
X96060381Y-46342699D01*
X96060381Y-46342699D02*
X95939428Y-46403175D01*
X97451333Y-46040318D02*
X97572286Y-46040318D01*
X97572286Y-46040318D02*
X97693238Y-46100794D01*
X97693238Y-46100794D02*
X97753714Y-46161270D01*
X97753714Y-46161270D02*
X97814190Y-46282222D01*
X97814190Y-46282222D02*
X97874667Y-46524127D01*
X97874667Y-46524127D02*
X97874667Y-46826508D01*
X97874667Y-46826508D02*
X97814190Y-47068413D01*
X97814190Y-47068413D02*
X97753714Y-47189365D01*
X97753714Y-47189365D02*
X97693238Y-47249842D01*
X97693238Y-47249842D02*
X97572286Y-47310318D01*
X97572286Y-47310318D02*
X97451333Y-47310318D01*
X97451333Y-47310318D02*
X97330381Y-47249842D01*
X97330381Y-47249842D02*
X97269905Y-47189365D01*
X97269905Y-47189365D02*
X97209428Y-47068413D01*
X97209428Y-47068413D02*
X97148952Y-46826508D01*
X97148952Y-46826508D02*
X97148952Y-46524127D01*
X97148952Y-46524127D02*
X97209428Y-46282222D01*
X97209428Y-46282222D02*
X97269905Y-46161270D01*
X97269905Y-46161270D02*
X97330381Y-46100794D01*
X97330381Y-46100794D02*
X97451333Y-46040318D01*
X98298000Y-46040318D02*
X99084191Y-46040318D01*
X99084191Y-46040318D02*
X98660857Y-46524127D01*
X98660857Y-46524127D02*
X98842286Y-46524127D01*
X98842286Y-46524127D02*
X98963238Y-46584603D01*
X98963238Y-46584603D02*
X99023714Y-46645080D01*
X99023714Y-46645080D02*
X99084191Y-46766032D01*
X99084191Y-46766032D02*
X99084191Y-47068413D01*
X99084191Y-47068413D02*
X99023714Y-47189365D01*
X99023714Y-47189365D02*
X98963238Y-47249842D01*
X98963238Y-47249842D02*
X98842286Y-47310318D01*
X98842286Y-47310318D02*
X98479429Y-47310318D01*
X98479429Y-47310318D02*
X98358476Y-47249842D01*
X98358476Y-47249842D02*
X98298000Y-47189365D01*
D12*
X137485714Y-106134819D02*
X138057142Y-106134819D01*
X137771428Y-107134819D02*
X137771428Y-106134819D01*
X138390476Y-107134819D02*
X138390476Y-106134819D01*
X138390476Y-106134819D02*
X138771428Y-106134819D01*
X138771428Y-106134819D02*
X138866666Y-106182438D01*
X138866666Y-106182438D02*
X138914285Y-106230057D01*
X138914285Y-106230057D02*
X138961904Y-106325295D01*
X138961904Y-106325295D02*
X138961904Y-106468152D01*
X138961904Y-106468152D02*
X138914285Y-106563390D01*
X138914285Y-106563390D02*
X138866666Y-106611009D01*
X138866666Y-106611009D02*
X138771428Y-106658628D01*
X138771428Y-106658628D02*
X138390476Y-106658628D01*
X139914285Y-107134819D02*
X139342857Y-107134819D01*
X139628571Y-107134819D02*
X139628571Y-106134819D01*
X139628571Y-106134819D02*
X139533333Y-106277676D01*
X139533333Y-106277676D02*
X139438095Y-106372914D01*
X139438095Y-106372914D02*
X139342857Y-106420533D01*
X140533333Y-106134819D02*
X140628571Y-106134819D01*
X140628571Y-106134819D02*
X140723809Y-106182438D01*
X140723809Y-106182438D02*
X140771428Y-106230057D01*
X140771428Y-106230057D02*
X140819047Y-106325295D01*
X140819047Y-106325295D02*
X140866666Y-106515771D01*
X140866666Y-106515771D02*
X140866666Y-106753866D01*
X140866666Y-106753866D02*
X140819047Y-106944342D01*
X140819047Y-106944342D02*
X140771428Y-107039580D01*
X140771428Y-107039580D02*
X140723809Y-107087200D01*
X140723809Y-107087200D02*
X140628571Y-107134819D01*
X140628571Y-107134819D02*
X140533333Y-107134819D01*
X140533333Y-107134819D02*
X140438095Y-107087200D01*
X140438095Y-107087200D02*
X140390476Y-107039580D01*
X140390476Y-107039580D02*
X140342857Y-106944342D01*
X140342857Y-106944342D02*
X140295238Y-106753866D01*
X140295238Y-106753866D02*
X140295238Y-106515771D01*
X140295238Y-106515771D02*
X140342857Y-106325295D01*
X140342857Y-106325295D02*
X140390476Y-106230057D01*
X140390476Y-106230057D02*
X140438095Y-106182438D01*
X140438095Y-106182438D02*
X140533333Y-106134819D01*
X141200000Y-106134819D02*
X141819047Y-106134819D01*
X141819047Y-106134819D02*
X141485714Y-106515771D01*
X141485714Y-106515771D02*
X141628571Y-106515771D01*
X141628571Y-106515771D02*
X141723809Y-106563390D01*
X141723809Y-106563390D02*
X141771428Y-106611009D01*
X141771428Y-106611009D02*
X141819047Y-106706247D01*
X141819047Y-106706247D02*
X141819047Y-106944342D01*
X141819047Y-106944342D02*
X141771428Y-107039580D01*
X141771428Y-107039580D02*
X141723809Y-107087200D01*
X141723809Y-107087200D02*
X141628571Y-107134819D01*
X141628571Y-107134819D02*
X141342857Y-107134819D01*
X141342857Y-107134819D02*
X141247619Y-107087200D01*
X141247619Y-107087200D02*
X141200000Y-107039580D01*
X124914819Y-65889047D02*
X124438628Y-66222380D01*
X124914819Y-66460475D02*
X123914819Y-66460475D01*
X123914819Y-66460475D02*
X123914819Y-66079523D01*
X123914819Y-66079523D02*
X123962438Y-65984285D01*
X123962438Y-65984285D02*
X124010057Y-65936666D01*
X124010057Y-65936666D02*
X124105295Y-65889047D01*
X124105295Y-65889047D02*
X124248152Y-65889047D01*
X124248152Y-65889047D02*
X124343390Y-65936666D01*
X124343390Y-65936666D02*
X124391009Y-65984285D01*
X124391009Y-65984285D02*
X124438628Y-66079523D01*
X124438628Y-66079523D02*
X124438628Y-66460475D01*
X124914819Y-64936666D02*
X124914819Y-65508094D01*
X124914819Y-65222380D02*
X123914819Y-65222380D01*
X123914819Y-65222380D02*
X124057676Y-65317618D01*
X124057676Y-65317618D02*
X124152914Y-65412856D01*
X124152914Y-65412856D02*
X124200533Y-65508094D01*
X123914819Y-64317618D02*
X123914819Y-64222380D01*
X123914819Y-64222380D02*
X123962438Y-64127142D01*
X123962438Y-64127142D02*
X124010057Y-64079523D01*
X124010057Y-64079523D02*
X124105295Y-64031904D01*
X124105295Y-64031904D02*
X124295771Y-63984285D01*
X124295771Y-63984285D02*
X124533866Y-63984285D01*
X124533866Y-63984285D02*
X124724342Y-64031904D01*
X124724342Y-64031904D02*
X124819580Y-64079523D01*
X124819580Y-64079523D02*
X124867200Y-64127142D01*
X124867200Y-64127142D02*
X124914819Y-64222380D01*
X124914819Y-64222380D02*
X124914819Y-64317618D01*
X124914819Y-64317618D02*
X124867200Y-64412856D01*
X124867200Y-64412856D02*
X124819580Y-64460475D01*
X124819580Y-64460475D02*
X124724342Y-64508094D01*
X124724342Y-64508094D02*
X124533866Y-64555713D01*
X124533866Y-64555713D02*
X124295771Y-64555713D01*
X124295771Y-64555713D02*
X124105295Y-64508094D01*
X124105295Y-64508094D02*
X124010057Y-64460475D01*
X124010057Y-64460475D02*
X123962438Y-64412856D01*
X123962438Y-64412856D02*
X123914819Y-64317618D01*
X123914819Y-63079523D02*
X123914819Y-63555713D01*
X123914819Y-63555713D02*
X124391009Y-63603332D01*
X124391009Y-63603332D02*
X124343390Y-63555713D01*
X124343390Y-63555713D02*
X124295771Y-63460475D01*
X124295771Y-63460475D02*
X124295771Y-63222380D01*
X124295771Y-63222380D02*
X124343390Y-63127142D01*
X124343390Y-63127142D02*
X124391009Y-63079523D01*
X124391009Y-63079523D02*
X124486247Y-63031904D01*
X124486247Y-63031904D02*
X124724342Y-63031904D01*
X124724342Y-63031904D02*
X124819580Y-63079523D01*
X124819580Y-63079523D02*
X124867200Y-63127142D01*
X124867200Y-63127142D02*
X124914819Y-63222380D01*
X124914819Y-63222380D02*
X124914819Y-63460475D01*
X124914819Y-63460475D02*
X124867200Y-63555713D01*
X124867200Y-63555713D02*
X124819580Y-63603332D01*
X118729285Y-97244819D02*
X118729285Y-97959104D01*
X118729285Y-97959104D02*
X118681666Y-98101961D01*
X118681666Y-98101961D02*
X118586428Y-98197200D01*
X118586428Y-98197200D02*
X118443571Y-98244819D01*
X118443571Y-98244819D02*
X118348333Y-98244819D01*
X119729285Y-98244819D02*
X119157857Y-98244819D01*
X119443571Y-98244819D02*
X119443571Y-97244819D01*
X119443571Y-97244819D02*
X119348333Y-97387676D01*
X119348333Y-97387676D02*
X119253095Y-97482914D01*
X119253095Y-97482914D02*
X119157857Y-97530533D01*
X120348333Y-97244819D02*
X120443571Y-97244819D01*
X120443571Y-97244819D02*
X120538809Y-97292438D01*
X120538809Y-97292438D02*
X120586428Y-97340057D01*
X120586428Y-97340057D02*
X120634047Y-97435295D01*
X120634047Y-97435295D02*
X120681666Y-97625771D01*
X120681666Y-97625771D02*
X120681666Y-97863866D01*
X120681666Y-97863866D02*
X120634047Y-98054342D01*
X120634047Y-98054342D02*
X120586428Y-98149580D01*
X120586428Y-98149580D02*
X120538809Y-98197200D01*
X120538809Y-98197200D02*
X120443571Y-98244819D01*
X120443571Y-98244819D02*
X120348333Y-98244819D01*
X120348333Y-98244819D02*
X120253095Y-98197200D01*
X120253095Y-98197200D02*
X120205476Y-98149580D01*
X120205476Y-98149580D02*
X120157857Y-98054342D01*
X120157857Y-98054342D02*
X120110238Y-97863866D01*
X120110238Y-97863866D02*
X120110238Y-97625771D01*
X120110238Y-97625771D02*
X120157857Y-97435295D01*
X120157857Y-97435295D02*
X120205476Y-97340057D01*
X120205476Y-97340057D02*
X120253095Y-97292438D01*
X120253095Y-97292438D02*
X120348333Y-97244819D01*
X121538809Y-97578152D02*
X121538809Y-98244819D01*
X121300714Y-97197200D02*
X121062619Y-97911485D01*
X121062619Y-97911485D02*
X121681666Y-97911485D01*
X114881819Y-106529047D02*
X114405628Y-106862380D01*
X114881819Y-107100475D02*
X113881819Y-107100475D01*
X113881819Y-107100475D02*
X113881819Y-106719523D01*
X113881819Y-106719523D02*
X113929438Y-106624285D01*
X113929438Y-106624285D02*
X113977057Y-106576666D01*
X113977057Y-106576666D02*
X114072295Y-106529047D01*
X114072295Y-106529047D02*
X114215152Y-106529047D01*
X114215152Y-106529047D02*
X114310390Y-106576666D01*
X114310390Y-106576666D02*
X114358009Y-106624285D01*
X114358009Y-106624285D02*
X114405628Y-106719523D01*
X114405628Y-106719523D02*
X114405628Y-107100475D01*
X114881819Y-105576666D02*
X114881819Y-106148094D01*
X114881819Y-105862380D02*
X113881819Y-105862380D01*
X113881819Y-105862380D02*
X114024676Y-105957618D01*
X114024676Y-105957618D02*
X114119914Y-106052856D01*
X114119914Y-106052856D02*
X114167533Y-106148094D01*
X113881819Y-104957618D02*
X113881819Y-104862380D01*
X113881819Y-104862380D02*
X113929438Y-104767142D01*
X113929438Y-104767142D02*
X113977057Y-104719523D01*
X113977057Y-104719523D02*
X114072295Y-104671904D01*
X114072295Y-104671904D02*
X114262771Y-104624285D01*
X114262771Y-104624285D02*
X114500866Y-104624285D01*
X114500866Y-104624285D02*
X114691342Y-104671904D01*
X114691342Y-104671904D02*
X114786580Y-104719523D01*
X114786580Y-104719523D02*
X114834200Y-104767142D01*
X114834200Y-104767142D02*
X114881819Y-104862380D01*
X114881819Y-104862380D02*
X114881819Y-104957618D01*
X114881819Y-104957618D02*
X114834200Y-105052856D01*
X114834200Y-105052856D02*
X114786580Y-105100475D01*
X114786580Y-105100475D02*
X114691342Y-105148094D01*
X114691342Y-105148094D02*
X114500866Y-105195713D01*
X114500866Y-105195713D02*
X114262771Y-105195713D01*
X114262771Y-105195713D02*
X114072295Y-105148094D01*
X114072295Y-105148094D02*
X113977057Y-105100475D01*
X113977057Y-105100475D02*
X113929438Y-105052856D01*
X113929438Y-105052856D02*
X113881819Y-104957618D01*
X113881819Y-104290951D02*
X113881819Y-103671904D01*
X113881819Y-103671904D02*
X114262771Y-104005237D01*
X114262771Y-104005237D02*
X114262771Y-103862380D01*
X114262771Y-103862380D02*
X114310390Y-103767142D01*
X114310390Y-103767142D02*
X114358009Y-103719523D01*
X114358009Y-103719523D02*
X114453247Y-103671904D01*
X114453247Y-103671904D02*
X114691342Y-103671904D01*
X114691342Y-103671904D02*
X114786580Y-103719523D01*
X114786580Y-103719523D02*
X114834200Y-103767142D01*
X114834200Y-103767142D02*
X114881819Y-103862380D01*
X114881819Y-103862380D02*
X114881819Y-104148094D01*
X114881819Y-104148094D02*
X114834200Y-104243332D01*
X114834200Y-104243332D02*
X114786580Y-104290951D01*
X183259285Y-86559819D02*
X183259285Y-87274104D01*
X183259285Y-87274104D02*
X183211666Y-87416961D01*
X183211666Y-87416961D02*
X183116428Y-87512200D01*
X183116428Y-87512200D02*
X182973571Y-87559819D01*
X182973571Y-87559819D02*
X182878333Y-87559819D01*
X184259285Y-87559819D02*
X183687857Y-87559819D01*
X183973571Y-87559819D02*
X183973571Y-86559819D01*
X183973571Y-86559819D02*
X183878333Y-86702676D01*
X183878333Y-86702676D02*
X183783095Y-86797914D01*
X183783095Y-86797914D02*
X183687857Y-86845533D01*
X184878333Y-86559819D02*
X184973571Y-86559819D01*
X184973571Y-86559819D02*
X185068809Y-86607438D01*
X185068809Y-86607438D02*
X185116428Y-86655057D01*
X185116428Y-86655057D02*
X185164047Y-86750295D01*
X185164047Y-86750295D02*
X185211666Y-86940771D01*
X185211666Y-86940771D02*
X185211666Y-87178866D01*
X185211666Y-87178866D02*
X185164047Y-87369342D01*
X185164047Y-87369342D02*
X185116428Y-87464580D01*
X185116428Y-87464580D02*
X185068809Y-87512200D01*
X185068809Y-87512200D02*
X184973571Y-87559819D01*
X184973571Y-87559819D02*
X184878333Y-87559819D01*
X184878333Y-87559819D02*
X184783095Y-87512200D01*
X184783095Y-87512200D02*
X184735476Y-87464580D01*
X184735476Y-87464580D02*
X184687857Y-87369342D01*
X184687857Y-87369342D02*
X184640238Y-87178866D01*
X184640238Y-87178866D02*
X184640238Y-86940771D01*
X184640238Y-86940771D02*
X184687857Y-86750295D01*
X184687857Y-86750295D02*
X184735476Y-86655057D01*
X184735476Y-86655057D02*
X184783095Y-86607438D01*
X184783095Y-86607438D02*
X184878333Y-86559819D01*
X185783095Y-86988390D02*
X185687857Y-86940771D01*
X185687857Y-86940771D02*
X185640238Y-86893152D01*
X185640238Y-86893152D02*
X185592619Y-86797914D01*
X185592619Y-86797914D02*
X185592619Y-86750295D01*
X185592619Y-86750295D02*
X185640238Y-86655057D01*
X185640238Y-86655057D02*
X185687857Y-86607438D01*
X185687857Y-86607438D02*
X185783095Y-86559819D01*
X185783095Y-86559819D02*
X185973571Y-86559819D01*
X185973571Y-86559819D02*
X186068809Y-86607438D01*
X186068809Y-86607438D02*
X186116428Y-86655057D01*
X186116428Y-86655057D02*
X186164047Y-86750295D01*
X186164047Y-86750295D02*
X186164047Y-86797914D01*
X186164047Y-86797914D02*
X186116428Y-86893152D01*
X186116428Y-86893152D02*
X186068809Y-86940771D01*
X186068809Y-86940771D02*
X185973571Y-86988390D01*
X185973571Y-86988390D02*
X185783095Y-86988390D01*
X185783095Y-86988390D02*
X185687857Y-87036009D01*
X185687857Y-87036009D02*
X185640238Y-87083628D01*
X185640238Y-87083628D02*
X185592619Y-87178866D01*
X185592619Y-87178866D02*
X185592619Y-87369342D01*
X185592619Y-87369342D02*
X185640238Y-87464580D01*
X185640238Y-87464580D02*
X185687857Y-87512200D01*
X185687857Y-87512200D02*
X185783095Y-87559819D01*
X185783095Y-87559819D02*
X185973571Y-87559819D01*
X185973571Y-87559819D02*
X186068809Y-87512200D01*
X186068809Y-87512200D02*
X186116428Y-87464580D01*
X186116428Y-87464580D02*
X186164047Y-87369342D01*
X186164047Y-87369342D02*
X186164047Y-87178866D01*
X186164047Y-87178866D02*
X186116428Y-87083628D01*
X186116428Y-87083628D02*
X186068809Y-87036009D01*
X186068809Y-87036009D02*
X185973571Y-86988390D01*
X138755714Y-113754819D02*
X139327142Y-113754819D01*
X139041428Y-114754819D02*
X139041428Y-113754819D01*
X139660476Y-114754819D02*
X139660476Y-113754819D01*
X139660476Y-113754819D02*
X140041428Y-113754819D01*
X140041428Y-113754819D02*
X140136666Y-113802438D01*
X140136666Y-113802438D02*
X140184285Y-113850057D01*
X140184285Y-113850057D02*
X140231904Y-113945295D01*
X140231904Y-113945295D02*
X140231904Y-114088152D01*
X140231904Y-114088152D02*
X140184285Y-114183390D01*
X140184285Y-114183390D02*
X140136666Y-114231009D01*
X140136666Y-114231009D02*
X140041428Y-114278628D01*
X140041428Y-114278628D02*
X139660476Y-114278628D01*
X141184285Y-114754819D02*
X140612857Y-114754819D01*
X140898571Y-114754819D02*
X140898571Y-113754819D01*
X140898571Y-113754819D02*
X140803333Y-113897676D01*
X140803333Y-113897676D02*
X140708095Y-113992914D01*
X140708095Y-113992914D02*
X140612857Y-114040533D01*
X141803333Y-113754819D02*
X141898571Y-113754819D01*
X141898571Y-113754819D02*
X141993809Y-113802438D01*
X141993809Y-113802438D02*
X142041428Y-113850057D01*
X142041428Y-113850057D02*
X142089047Y-113945295D01*
X142089047Y-113945295D02*
X142136666Y-114135771D01*
X142136666Y-114135771D02*
X142136666Y-114373866D01*
X142136666Y-114373866D02*
X142089047Y-114564342D01*
X142089047Y-114564342D02*
X142041428Y-114659580D01*
X142041428Y-114659580D02*
X141993809Y-114707200D01*
X141993809Y-114707200D02*
X141898571Y-114754819D01*
X141898571Y-114754819D02*
X141803333Y-114754819D01*
X141803333Y-114754819D02*
X141708095Y-114707200D01*
X141708095Y-114707200D02*
X141660476Y-114659580D01*
X141660476Y-114659580D02*
X141612857Y-114564342D01*
X141612857Y-114564342D02*
X141565238Y-114373866D01*
X141565238Y-114373866D02*
X141565238Y-114135771D01*
X141565238Y-114135771D02*
X141612857Y-113945295D01*
X141612857Y-113945295D02*
X141660476Y-113850057D01*
X141660476Y-113850057D02*
X141708095Y-113802438D01*
X141708095Y-113802438D02*
X141803333Y-113754819D01*
X143041428Y-113754819D02*
X142565238Y-113754819D01*
X142565238Y-113754819D02*
X142517619Y-114231009D01*
X142517619Y-114231009D02*
X142565238Y-114183390D01*
X142565238Y-114183390D02*
X142660476Y-114135771D01*
X142660476Y-114135771D02*
X142898571Y-114135771D01*
X142898571Y-114135771D02*
X142993809Y-114183390D01*
X142993809Y-114183390D02*
X143041428Y-114231009D01*
X143041428Y-114231009D02*
X143089047Y-114326247D01*
X143089047Y-114326247D02*
X143089047Y-114564342D01*
X143089047Y-114564342D02*
X143041428Y-114659580D01*
X143041428Y-114659580D02*
X142993809Y-114707200D01*
X142993809Y-114707200D02*
X142898571Y-114754819D01*
X142898571Y-114754819D02*
X142660476Y-114754819D01*
X142660476Y-114754819D02*
X142565238Y-114707200D01*
X142565238Y-114707200D02*
X142517619Y-114659580D01*
X175585714Y-100961819D02*
X176157142Y-100961819D01*
X175871428Y-101961819D02*
X175871428Y-100961819D01*
X176490476Y-101961819D02*
X176490476Y-100961819D01*
X176490476Y-100961819D02*
X176871428Y-100961819D01*
X176871428Y-100961819D02*
X176966666Y-101009438D01*
X176966666Y-101009438D02*
X177014285Y-101057057D01*
X177014285Y-101057057D02*
X177061904Y-101152295D01*
X177061904Y-101152295D02*
X177061904Y-101295152D01*
X177061904Y-101295152D02*
X177014285Y-101390390D01*
X177014285Y-101390390D02*
X176966666Y-101438009D01*
X176966666Y-101438009D02*
X176871428Y-101485628D01*
X176871428Y-101485628D02*
X176490476Y-101485628D01*
X178014285Y-101961819D02*
X177442857Y-101961819D01*
X177728571Y-101961819D02*
X177728571Y-100961819D01*
X177728571Y-100961819D02*
X177633333Y-101104676D01*
X177633333Y-101104676D02*
X177538095Y-101199914D01*
X177538095Y-101199914D02*
X177442857Y-101247533D01*
X178633333Y-100961819D02*
X178728571Y-100961819D01*
X178728571Y-100961819D02*
X178823809Y-101009438D01*
X178823809Y-101009438D02*
X178871428Y-101057057D01*
X178871428Y-101057057D02*
X178919047Y-101152295D01*
X178919047Y-101152295D02*
X178966666Y-101342771D01*
X178966666Y-101342771D02*
X178966666Y-101580866D01*
X178966666Y-101580866D02*
X178919047Y-101771342D01*
X178919047Y-101771342D02*
X178871428Y-101866580D01*
X178871428Y-101866580D02*
X178823809Y-101914200D01*
X178823809Y-101914200D02*
X178728571Y-101961819D01*
X178728571Y-101961819D02*
X178633333Y-101961819D01*
X178633333Y-101961819D02*
X178538095Y-101914200D01*
X178538095Y-101914200D02*
X178490476Y-101866580D01*
X178490476Y-101866580D02*
X178442857Y-101771342D01*
X178442857Y-101771342D02*
X178395238Y-101580866D01*
X178395238Y-101580866D02*
X178395238Y-101342771D01*
X178395238Y-101342771D02*
X178442857Y-101152295D01*
X178442857Y-101152295D02*
X178490476Y-101057057D01*
X178490476Y-101057057D02*
X178538095Y-101009438D01*
X178538095Y-101009438D02*
X178633333Y-100961819D01*
X179823809Y-100961819D02*
X179633333Y-100961819D01*
X179633333Y-100961819D02*
X179538095Y-101009438D01*
X179538095Y-101009438D02*
X179490476Y-101057057D01*
X179490476Y-101057057D02*
X179395238Y-101199914D01*
X179395238Y-101199914D02*
X179347619Y-101390390D01*
X179347619Y-101390390D02*
X179347619Y-101771342D01*
X179347619Y-101771342D02*
X179395238Y-101866580D01*
X179395238Y-101866580D02*
X179442857Y-101914200D01*
X179442857Y-101914200D02*
X179538095Y-101961819D01*
X179538095Y-101961819D02*
X179728571Y-101961819D01*
X179728571Y-101961819D02*
X179823809Y-101914200D01*
X179823809Y-101914200D02*
X179871428Y-101866580D01*
X179871428Y-101866580D02*
X179919047Y-101771342D01*
X179919047Y-101771342D02*
X179919047Y-101533247D01*
X179919047Y-101533247D02*
X179871428Y-101438009D01*
X179871428Y-101438009D02*
X179823809Y-101390390D01*
X179823809Y-101390390D02*
X179728571Y-101342771D01*
X179728571Y-101342771D02*
X179538095Y-101342771D01*
X179538095Y-101342771D02*
X179442857Y-101390390D01*
X179442857Y-101390390D02*
X179395238Y-101438009D01*
X179395238Y-101438009D02*
X179347619Y-101533247D01*
X139049285Y-95364819D02*
X139049285Y-96079104D01*
X139049285Y-96079104D02*
X139001666Y-96221961D01*
X139001666Y-96221961D02*
X138906428Y-96317200D01*
X138906428Y-96317200D02*
X138763571Y-96364819D01*
X138763571Y-96364819D02*
X138668333Y-96364819D01*
X140049285Y-96364819D02*
X139477857Y-96364819D01*
X139763571Y-96364819D02*
X139763571Y-95364819D01*
X139763571Y-95364819D02*
X139668333Y-95507676D01*
X139668333Y-95507676D02*
X139573095Y-95602914D01*
X139573095Y-95602914D02*
X139477857Y-95650533D01*
X141001666Y-96364819D02*
X140430238Y-96364819D01*
X140715952Y-96364819D02*
X140715952Y-95364819D01*
X140715952Y-95364819D02*
X140620714Y-95507676D01*
X140620714Y-95507676D02*
X140525476Y-95602914D01*
X140525476Y-95602914D02*
X140430238Y-95650533D01*
X141382619Y-95460057D02*
X141430238Y-95412438D01*
X141430238Y-95412438D02*
X141525476Y-95364819D01*
X141525476Y-95364819D02*
X141763571Y-95364819D01*
X141763571Y-95364819D02*
X141858809Y-95412438D01*
X141858809Y-95412438D02*
X141906428Y-95460057D01*
X141906428Y-95460057D02*
X141954047Y-95555295D01*
X141954047Y-95555295D02*
X141954047Y-95650533D01*
X141954047Y-95650533D02*
X141906428Y-95793390D01*
X141906428Y-95793390D02*
X141335000Y-96364819D01*
X141335000Y-96364819D02*
X141954047Y-96364819D01*
X117199580Y-106529047D02*
X117247200Y-106576666D01*
X117247200Y-106576666D02*
X117294819Y-106719523D01*
X117294819Y-106719523D02*
X117294819Y-106814761D01*
X117294819Y-106814761D02*
X117247200Y-106957618D01*
X117247200Y-106957618D02*
X117151961Y-107052856D01*
X117151961Y-107052856D02*
X117056723Y-107100475D01*
X117056723Y-107100475D02*
X116866247Y-107148094D01*
X116866247Y-107148094D02*
X116723390Y-107148094D01*
X116723390Y-107148094D02*
X116532914Y-107100475D01*
X116532914Y-107100475D02*
X116437676Y-107052856D01*
X116437676Y-107052856D02*
X116342438Y-106957618D01*
X116342438Y-106957618D02*
X116294819Y-106814761D01*
X116294819Y-106814761D02*
X116294819Y-106719523D01*
X116294819Y-106719523D02*
X116342438Y-106576666D01*
X116342438Y-106576666D02*
X116390057Y-106529047D01*
X117294819Y-105576666D02*
X117294819Y-106148094D01*
X117294819Y-105862380D02*
X116294819Y-105862380D01*
X116294819Y-105862380D02*
X116437676Y-105957618D01*
X116437676Y-105957618D02*
X116532914Y-106052856D01*
X116532914Y-106052856D02*
X116580533Y-106148094D01*
X116294819Y-104957618D02*
X116294819Y-104862380D01*
X116294819Y-104862380D02*
X116342438Y-104767142D01*
X116342438Y-104767142D02*
X116390057Y-104719523D01*
X116390057Y-104719523D02*
X116485295Y-104671904D01*
X116485295Y-104671904D02*
X116675771Y-104624285D01*
X116675771Y-104624285D02*
X116913866Y-104624285D01*
X116913866Y-104624285D02*
X117104342Y-104671904D01*
X117104342Y-104671904D02*
X117199580Y-104719523D01*
X117199580Y-104719523D02*
X117247200Y-104767142D01*
X117247200Y-104767142D02*
X117294819Y-104862380D01*
X117294819Y-104862380D02*
X117294819Y-104957618D01*
X117294819Y-104957618D02*
X117247200Y-105052856D01*
X117247200Y-105052856D02*
X117199580Y-105100475D01*
X117199580Y-105100475D02*
X117104342Y-105148094D01*
X117104342Y-105148094D02*
X116913866Y-105195713D01*
X116913866Y-105195713D02*
X116675771Y-105195713D01*
X116675771Y-105195713D02*
X116485295Y-105148094D01*
X116485295Y-105148094D02*
X116390057Y-105100475D01*
X116390057Y-105100475D02*
X116342438Y-105052856D01*
X116342438Y-105052856D02*
X116294819Y-104957618D01*
X116628152Y-103767142D02*
X117294819Y-103767142D01*
X116247200Y-104005237D02*
X116961485Y-104243332D01*
X116961485Y-104243332D02*
X116961485Y-103624285D01*
X110180714Y-97244819D02*
X110752142Y-97244819D01*
X110466428Y-98244819D02*
X110466428Y-97244819D01*
X111085476Y-98244819D02*
X111085476Y-97244819D01*
X111085476Y-97244819D02*
X111466428Y-97244819D01*
X111466428Y-97244819D02*
X111561666Y-97292438D01*
X111561666Y-97292438D02*
X111609285Y-97340057D01*
X111609285Y-97340057D02*
X111656904Y-97435295D01*
X111656904Y-97435295D02*
X111656904Y-97578152D01*
X111656904Y-97578152D02*
X111609285Y-97673390D01*
X111609285Y-97673390D02*
X111561666Y-97721009D01*
X111561666Y-97721009D02*
X111466428Y-97768628D01*
X111466428Y-97768628D02*
X111085476Y-97768628D01*
X112609285Y-98244819D02*
X112037857Y-98244819D01*
X112323571Y-98244819D02*
X112323571Y-97244819D01*
X112323571Y-97244819D02*
X112228333Y-97387676D01*
X112228333Y-97387676D02*
X112133095Y-97482914D01*
X112133095Y-97482914D02*
X112037857Y-97530533D01*
X113228333Y-97244819D02*
X113323571Y-97244819D01*
X113323571Y-97244819D02*
X113418809Y-97292438D01*
X113418809Y-97292438D02*
X113466428Y-97340057D01*
X113466428Y-97340057D02*
X113514047Y-97435295D01*
X113514047Y-97435295D02*
X113561666Y-97625771D01*
X113561666Y-97625771D02*
X113561666Y-97863866D01*
X113561666Y-97863866D02*
X113514047Y-98054342D01*
X113514047Y-98054342D02*
X113466428Y-98149580D01*
X113466428Y-98149580D02*
X113418809Y-98197200D01*
X113418809Y-98197200D02*
X113323571Y-98244819D01*
X113323571Y-98244819D02*
X113228333Y-98244819D01*
X113228333Y-98244819D02*
X113133095Y-98197200D01*
X113133095Y-98197200D02*
X113085476Y-98149580D01*
X113085476Y-98149580D02*
X113037857Y-98054342D01*
X113037857Y-98054342D02*
X112990238Y-97863866D01*
X112990238Y-97863866D02*
X112990238Y-97625771D01*
X112990238Y-97625771D02*
X113037857Y-97435295D01*
X113037857Y-97435295D02*
X113085476Y-97340057D01*
X113085476Y-97340057D02*
X113133095Y-97292438D01*
X113133095Y-97292438D02*
X113228333Y-97244819D01*
X114514047Y-98244819D02*
X113942619Y-98244819D01*
X114228333Y-98244819D02*
X114228333Y-97244819D01*
X114228333Y-97244819D02*
X114133095Y-97387676D01*
X114133095Y-97387676D02*
X114037857Y-97482914D01*
X114037857Y-97482914D02*
X113942619Y-97530533D01*
X183705714Y-113094819D02*
X183705714Y-112094819D01*
X183705714Y-112571009D02*
X184277142Y-112571009D01*
X184277142Y-113094819D02*
X184277142Y-112094819D01*
X185277142Y-113094819D02*
X184705714Y-113094819D01*
X184991428Y-113094819D02*
X184991428Y-112094819D01*
X184991428Y-112094819D02*
X184896190Y-112237676D01*
X184896190Y-112237676D02*
X184800952Y-112332914D01*
X184800952Y-112332914D02*
X184705714Y-112380533D01*
X185896190Y-112094819D02*
X185991428Y-112094819D01*
X185991428Y-112094819D02*
X186086666Y-112142438D01*
X186086666Y-112142438D02*
X186134285Y-112190057D01*
X186134285Y-112190057D02*
X186181904Y-112285295D01*
X186181904Y-112285295D02*
X186229523Y-112475771D01*
X186229523Y-112475771D02*
X186229523Y-112713866D01*
X186229523Y-112713866D02*
X186181904Y-112904342D01*
X186181904Y-112904342D02*
X186134285Y-112999580D01*
X186134285Y-112999580D02*
X186086666Y-113047200D01*
X186086666Y-113047200D02*
X185991428Y-113094819D01*
X185991428Y-113094819D02*
X185896190Y-113094819D01*
X185896190Y-113094819D02*
X185800952Y-113047200D01*
X185800952Y-113047200D02*
X185753333Y-112999580D01*
X185753333Y-112999580D02*
X185705714Y-112904342D01*
X185705714Y-112904342D02*
X185658095Y-112713866D01*
X185658095Y-112713866D02*
X185658095Y-112475771D01*
X185658095Y-112475771D02*
X185705714Y-112285295D01*
X185705714Y-112285295D02*
X185753333Y-112190057D01*
X185753333Y-112190057D02*
X185800952Y-112142438D01*
X185800952Y-112142438D02*
X185896190Y-112094819D01*
X186562857Y-112094819D02*
X187181904Y-112094819D01*
X187181904Y-112094819D02*
X186848571Y-112475771D01*
X186848571Y-112475771D02*
X186991428Y-112475771D01*
X186991428Y-112475771D02*
X187086666Y-112523390D01*
X187086666Y-112523390D02*
X187134285Y-112571009D01*
X187134285Y-112571009D02*
X187181904Y-112666247D01*
X187181904Y-112666247D02*
X187181904Y-112904342D01*
X187181904Y-112904342D02*
X187134285Y-112999580D01*
X187134285Y-112999580D02*
X187086666Y-113047200D01*
X187086666Y-113047200D02*
X186991428Y-113094819D01*
X186991428Y-113094819D02*
X186705714Y-113094819D01*
X186705714Y-113094819D02*
X186610476Y-113047200D01*
X186610476Y-113047200D02*
X186562857Y-112999580D01*
X105052952Y-55223580D02*
X105005333Y-55271200D01*
X105005333Y-55271200D02*
X104862476Y-55318819D01*
X104862476Y-55318819D02*
X104767238Y-55318819D01*
X104767238Y-55318819D02*
X104624381Y-55271200D01*
X104624381Y-55271200D02*
X104529143Y-55175961D01*
X104529143Y-55175961D02*
X104481524Y-55080723D01*
X104481524Y-55080723D02*
X104433905Y-54890247D01*
X104433905Y-54890247D02*
X104433905Y-54747390D01*
X104433905Y-54747390D02*
X104481524Y-54556914D01*
X104481524Y-54556914D02*
X104529143Y-54461676D01*
X104529143Y-54461676D02*
X104624381Y-54366438D01*
X104624381Y-54366438D02*
X104767238Y-54318819D01*
X104767238Y-54318819D02*
X104862476Y-54318819D01*
X104862476Y-54318819D02*
X105005333Y-54366438D01*
X105005333Y-54366438D02*
X105052952Y-54414057D01*
X106005333Y-55318819D02*
X105433905Y-55318819D01*
X105719619Y-55318819D02*
X105719619Y-54318819D01*
X105719619Y-54318819D02*
X105624381Y-54461676D01*
X105624381Y-54461676D02*
X105529143Y-54556914D01*
X105529143Y-54556914D02*
X105433905Y-54604533D01*
X106624381Y-54318819D02*
X106719619Y-54318819D01*
X106719619Y-54318819D02*
X106814857Y-54366438D01*
X106814857Y-54366438D02*
X106862476Y-54414057D01*
X106862476Y-54414057D02*
X106910095Y-54509295D01*
X106910095Y-54509295D02*
X106957714Y-54699771D01*
X106957714Y-54699771D02*
X106957714Y-54937866D01*
X106957714Y-54937866D02*
X106910095Y-55128342D01*
X106910095Y-55128342D02*
X106862476Y-55223580D01*
X106862476Y-55223580D02*
X106814857Y-55271200D01*
X106814857Y-55271200D02*
X106719619Y-55318819D01*
X106719619Y-55318819D02*
X106624381Y-55318819D01*
X106624381Y-55318819D02*
X106529143Y-55271200D01*
X106529143Y-55271200D02*
X106481524Y-55223580D01*
X106481524Y-55223580D02*
X106433905Y-55128342D01*
X106433905Y-55128342D02*
X106386286Y-54937866D01*
X106386286Y-54937866D02*
X106386286Y-54699771D01*
X106386286Y-54699771D02*
X106433905Y-54509295D01*
X106433905Y-54509295D02*
X106481524Y-54414057D01*
X106481524Y-54414057D02*
X106529143Y-54366438D01*
X106529143Y-54366438D02*
X106624381Y-54318819D01*
X107338667Y-54414057D02*
X107386286Y-54366438D01*
X107386286Y-54366438D02*
X107481524Y-54318819D01*
X107481524Y-54318819D02*
X107719619Y-54318819D01*
X107719619Y-54318819D02*
X107814857Y-54366438D01*
X107814857Y-54366438D02*
X107862476Y-54414057D01*
X107862476Y-54414057D02*
X107910095Y-54509295D01*
X107910095Y-54509295D02*
X107910095Y-54604533D01*
X107910095Y-54604533D02*
X107862476Y-54747390D01*
X107862476Y-54747390D02*
X107291048Y-55318819D01*
X107291048Y-55318819D02*
X107910095Y-55318819D01*
X105100714Y-97244819D02*
X105672142Y-97244819D01*
X105386428Y-98244819D02*
X105386428Y-97244819D01*
X106005476Y-98244819D02*
X106005476Y-97244819D01*
X106005476Y-97244819D02*
X106386428Y-97244819D01*
X106386428Y-97244819D02*
X106481666Y-97292438D01*
X106481666Y-97292438D02*
X106529285Y-97340057D01*
X106529285Y-97340057D02*
X106576904Y-97435295D01*
X106576904Y-97435295D02*
X106576904Y-97578152D01*
X106576904Y-97578152D02*
X106529285Y-97673390D01*
X106529285Y-97673390D02*
X106481666Y-97721009D01*
X106481666Y-97721009D02*
X106386428Y-97768628D01*
X106386428Y-97768628D02*
X106005476Y-97768628D01*
X107529285Y-98244819D02*
X106957857Y-98244819D01*
X107243571Y-98244819D02*
X107243571Y-97244819D01*
X107243571Y-97244819D02*
X107148333Y-97387676D01*
X107148333Y-97387676D02*
X107053095Y-97482914D01*
X107053095Y-97482914D02*
X106957857Y-97530533D01*
X108148333Y-97244819D02*
X108243571Y-97244819D01*
X108243571Y-97244819D02*
X108338809Y-97292438D01*
X108338809Y-97292438D02*
X108386428Y-97340057D01*
X108386428Y-97340057D02*
X108434047Y-97435295D01*
X108434047Y-97435295D02*
X108481666Y-97625771D01*
X108481666Y-97625771D02*
X108481666Y-97863866D01*
X108481666Y-97863866D02*
X108434047Y-98054342D01*
X108434047Y-98054342D02*
X108386428Y-98149580D01*
X108386428Y-98149580D02*
X108338809Y-98197200D01*
X108338809Y-98197200D02*
X108243571Y-98244819D01*
X108243571Y-98244819D02*
X108148333Y-98244819D01*
X108148333Y-98244819D02*
X108053095Y-98197200D01*
X108053095Y-98197200D02*
X108005476Y-98149580D01*
X108005476Y-98149580D02*
X107957857Y-98054342D01*
X107957857Y-98054342D02*
X107910238Y-97863866D01*
X107910238Y-97863866D02*
X107910238Y-97625771D01*
X107910238Y-97625771D02*
X107957857Y-97435295D01*
X107957857Y-97435295D02*
X108005476Y-97340057D01*
X108005476Y-97340057D02*
X108053095Y-97292438D01*
X108053095Y-97292438D02*
X108148333Y-97244819D01*
X108862619Y-97340057D02*
X108910238Y-97292438D01*
X108910238Y-97292438D02*
X109005476Y-97244819D01*
X109005476Y-97244819D02*
X109243571Y-97244819D01*
X109243571Y-97244819D02*
X109338809Y-97292438D01*
X109338809Y-97292438D02*
X109386428Y-97340057D01*
X109386428Y-97340057D02*
X109434047Y-97435295D01*
X109434047Y-97435295D02*
X109434047Y-97530533D01*
X109434047Y-97530533D02*
X109386428Y-97673390D01*
X109386428Y-97673390D02*
X108815000Y-98244819D01*
X108815000Y-98244819D02*
X109434047Y-98244819D01*
X105052952Y-57763580D02*
X105005333Y-57811200D01*
X105005333Y-57811200D02*
X104862476Y-57858819D01*
X104862476Y-57858819D02*
X104767238Y-57858819D01*
X104767238Y-57858819D02*
X104624381Y-57811200D01*
X104624381Y-57811200D02*
X104529143Y-57715961D01*
X104529143Y-57715961D02*
X104481524Y-57620723D01*
X104481524Y-57620723D02*
X104433905Y-57430247D01*
X104433905Y-57430247D02*
X104433905Y-57287390D01*
X104433905Y-57287390D02*
X104481524Y-57096914D01*
X104481524Y-57096914D02*
X104529143Y-57001676D01*
X104529143Y-57001676D02*
X104624381Y-56906438D01*
X104624381Y-56906438D02*
X104767238Y-56858819D01*
X104767238Y-56858819D02*
X104862476Y-56858819D01*
X104862476Y-56858819D02*
X105005333Y-56906438D01*
X105005333Y-56906438D02*
X105052952Y-56954057D01*
X106005333Y-57858819D02*
X105433905Y-57858819D01*
X105719619Y-57858819D02*
X105719619Y-56858819D01*
X105719619Y-56858819D02*
X105624381Y-57001676D01*
X105624381Y-57001676D02*
X105529143Y-57096914D01*
X105529143Y-57096914D02*
X105433905Y-57144533D01*
X106624381Y-56858819D02*
X106719619Y-56858819D01*
X106719619Y-56858819D02*
X106814857Y-56906438D01*
X106814857Y-56906438D02*
X106862476Y-56954057D01*
X106862476Y-56954057D02*
X106910095Y-57049295D01*
X106910095Y-57049295D02*
X106957714Y-57239771D01*
X106957714Y-57239771D02*
X106957714Y-57477866D01*
X106957714Y-57477866D02*
X106910095Y-57668342D01*
X106910095Y-57668342D02*
X106862476Y-57763580D01*
X106862476Y-57763580D02*
X106814857Y-57811200D01*
X106814857Y-57811200D02*
X106719619Y-57858819D01*
X106719619Y-57858819D02*
X106624381Y-57858819D01*
X106624381Y-57858819D02*
X106529143Y-57811200D01*
X106529143Y-57811200D02*
X106481524Y-57763580D01*
X106481524Y-57763580D02*
X106433905Y-57668342D01*
X106433905Y-57668342D02*
X106386286Y-57477866D01*
X106386286Y-57477866D02*
X106386286Y-57239771D01*
X106386286Y-57239771D02*
X106433905Y-57049295D01*
X106433905Y-57049295D02*
X106481524Y-56954057D01*
X106481524Y-56954057D02*
X106529143Y-56906438D01*
X106529143Y-56906438D02*
X106624381Y-56858819D01*
X107910095Y-57858819D02*
X107338667Y-57858819D01*
X107624381Y-57858819D02*
X107624381Y-56858819D01*
X107624381Y-56858819D02*
X107529143Y-57001676D01*
X107529143Y-57001676D02*
X107433905Y-57096914D01*
X107433905Y-57096914D02*
X107338667Y-57144533D01*
X85280714Y-113094819D02*
X85280714Y-112094819D01*
X85280714Y-112571009D02*
X85852142Y-112571009D01*
X85852142Y-113094819D02*
X85852142Y-112094819D01*
X86852142Y-113094819D02*
X86280714Y-113094819D01*
X86566428Y-113094819D02*
X86566428Y-112094819D01*
X86566428Y-112094819D02*
X86471190Y-112237676D01*
X86471190Y-112237676D02*
X86375952Y-112332914D01*
X86375952Y-112332914D02*
X86280714Y-112380533D01*
X87471190Y-112094819D02*
X87566428Y-112094819D01*
X87566428Y-112094819D02*
X87661666Y-112142438D01*
X87661666Y-112142438D02*
X87709285Y-112190057D01*
X87709285Y-112190057D02*
X87756904Y-112285295D01*
X87756904Y-112285295D02*
X87804523Y-112475771D01*
X87804523Y-112475771D02*
X87804523Y-112713866D01*
X87804523Y-112713866D02*
X87756904Y-112904342D01*
X87756904Y-112904342D02*
X87709285Y-112999580D01*
X87709285Y-112999580D02*
X87661666Y-113047200D01*
X87661666Y-113047200D02*
X87566428Y-113094819D01*
X87566428Y-113094819D02*
X87471190Y-113094819D01*
X87471190Y-113094819D02*
X87375952Y-113047200D01*
X87375952Y-113047200D02*
X87328333Y-112999580D01*
X87328333Y-112999580D02*
X87280714Y-112904342D01*
X87280714Y-112904342D02*
X87233095Y-112713866D01*
X87233095Y-112713866D02*
X87233095Y-112475771D01*
X87233095Y-112475771D02*
X87280714Y-112285295D01*
X87280714Y-112285295D02*
X87328333Y-112190057D01*
X87328333Y-112190057D02*
X87375952Y-112142438D01*
X87375952Y-112142438D02*
X87471190Y-112094819D01*
X88756904Y-113094819D02*
X88185476Y-113094819D01*
X88471190Y-113094819D02*
X88471190Y-112094819D01*
X88471190Y-112094819D02*
X88375952Y-112237676D01*
X88375952Y-112237676D02*
X88280714Y-112332914D01*
X88280714Y-112332914D02*
X88185476Y-112380533D01*
X139049285Y-64249819D02*
X139049285Y-64964104D01*
X139049285Y-64964104D02*
X139001666Y-65106961D01*
X139001666Y-65106961D02*
X138906428Y-65202200D01*
X138906428Y-65202200D02*
X138763571Y-65249819D01*
X138763571Y-65249819D02*
X138668333Y-65249819D01*
X140049285Y-65249819D02*
X139477857Y-65249819D01*
X139763571Y-65249819D02*
X139763571Y-64249819D01*
X139763571Y-64249819D02*
X139668333Y-64392676D01*
X139668333Y-64392676D02*
X139573095Y-64487914D01*
X139573095Y-64487914D02*
X139477857Y-64535533D01*
X141001666Y-65249819D02*
X140430238Y-65249819D01*
X140715952Y-65249819D02*
X140715952Y-64249819D01*
X140715952Y-64249819D02*
X140620714Y-64392676D01*
X140620714Y-64392676D02*
X140525476Y-64487914D01*
X140525476Y-64487914D02*
X140430238Y-64535533D01*
X141954047Y-65249819D02*
X141382619Y-65249819D01*
X141668333Y-65249819D02*
X141668333Y-64249819D01*
X141668333Y-64249819D02*
X141573095Y-64392676D01*
X141573095Y-64392676D02*
X141477857Y-64487914D01*
X141477857Y-64487914D02*
X141382619Y-64535533D01*
X120800952Y-55223580D02*
X120753333Y-55271200D01*
X120753333Y-55271200D02*
X120610476Y-55318819D01*
X120610476Y-55318819D02*
X120515238Y-55318819D01*
X120515238Y-55318819D02*
X120372381Y-55271200D01*
X120372381Y-55271200D02*
X120277143Y-55175961D01*
X120277143Y-55175961D02*
X120229524Y-55080723D01*
X120229524Y-55080723D02*
X120181905Y-54890247D01*
X120181905Y-54890247D02*
X120181905Y-54747390D01*
X120181905Y-54747390D02*
X120229524Y-54556914D01*
X120229524Y-54556914D02*
X120277143Y-54461676D01*
X120277143Y-54461676D02*
X120372381Y-54366438D01*
X120372381Y-54366438D02*
X120515238Y-54318819D01*
X120515238Y-54318819D02*
X120610476Y-54318819D01*
X120610476Y-54318819D02*
X120753333Y-54366438D01*
X120753333Y-54366438D02*
X120800952Y-54414057D01*
X121753333Y-55318819D02*
X121181905Y-55318819D01*
X121467619Y-55318819D02*
X121467619Y-54318819D01*
X121467619Y-54318819D02*
X121372381Y-54461676D01*
X121372381Y-54461676D02*
X121277143Y-54556914D01*
X121277143Y-54556914D02*
X121181905Y-54604533D01*
X122372381Y-54318819D02*
X122467619Y-54318819D01*
X122467619Y-54318819D02*
X122562857Y-54366438D01*
X122562857Y-54366438D02*
X122610476Y-54414057D01*
X122610476Y-54414057D02*
X122658095Y-54509295D01*
X122658095Y-54509295D02*
X122705714Y-54699771D01*
X122705714Y-54699771D02*
X122705714Y-54937866D01*
X122705714Y-54937866D02*
X122658095Y-55128342D01*
X122658095Y-55128342D02*
X122610476Y-55223580D01*
X122610476Y-55223580D02*
X122562857Y-55271200D01*
X122562857Y-55271200D02*
X122467619Y-55318819D01*
X122467619Y-55318819D02*
X122372381Y-55318819D01*
X122372381Y-55318819D02*
X122277143Y-55271200D01*
X122277143Y-55271200D02*
X122229524Y-55223580D01*
X122229524Y-55223580D02*
X122181905Y-55128342D01*
X122181905Y-55128342D02*
X122134286Y-54937866D01*
X122134286Y-54937866D02*
X122134286Y-54699771D01*
X122134286Y-54699771D02*
X122181905Y-54509295D01*
X122181905Y-54509295D02*
X122229524Y-54414057D01*
X122229524Y-54414057D02*
X122277143Y-54366438D01*
X122277143Y-54366438D02*
X122372381Y-54318819D01*
X123562857Y-54318819D02*
X123372381Y-54318819D01*
X123372381Y-54318819D02*
X123277143Y-54366438D01*
X123277143Y-54366438D02*
X123229524Y-54414057D01*
X123229524Y-54414057D02*
X123134286Y-54556914D01*
X123134286Y-54556914D02*
X123086667Y-54747390D01*
X123086667Y-54747390D02*
X123086667Y-55128342D01*
X123086667Y-55128342D02*
X123134286Y-55223580D01*
X123134286Y-55223580D02*
X123181905Y-55271200D01*
X123181905Y-55271200D02*
X123277143Y-55318819D01*
X123277143Y-55318819D02*
X123467619Y-55318819D01*
X123467619Y-55318819D02*
X123562857Y-55271200D01*
X123562857Y-55271200D02*
X123610476Y-55223580D01*
X123610476Y-55223580D02*
X123658095Y-55128342D01*
X123658095Y-55128342D02*
X123658095Y-54890247D01*
X123658095Y-54890247D02*
X123610476Y-54795009D01*
X123610476Y-54795009D02*
X123562857Y-54747390D01*
X123562857Y-54747390D02*
X123467619Y-54699771D01*
X123467619Y-54699771D02*
X123277143Y-54699771D01*
X123277143Y-54699771D02*
X123181905Y-54747390D01*
X123181905Y-54747390D02*
X123134286Y-54795009D01*
X123134286Y-54795009D02*
X123086667Y-54890247D01*
X127222380Y-70400057D02*
X127127142Y-70352438D01*
X127127142Y-70352438D02*
X127031904Y-70257200D01*
X127031904Y-70257200D02*
X126889047Y-70114342D01*
X126889047Y-70114342D02*
X126793809Y-70066723D01*
X126793809Y-70066723D02*
X126698571Y-70066723D01*
X126746190Y-70304819D02*
X126650952Y-70257200D01*
X126650952Y-70257200D02*
X126555714Y-70161961D01*
X126555714Y-70161961D02*
X126508095Y-69971485D01*
X126508095Y-69971485D02*
X126508095Y-69638152D01*
X126508095Y-69638152D02*
X126555714Y-69447676D01*
X126555714Y-69447676D02*
X126650952Y-69352438D01*
X126650952Y-69352438D02*
X126746190Y-69304819D01*
X126746190Y-69304819D02*
X126936666Y-69304819D01*
X126936666Y-69304819D02*
X127031904Y-69352438D01*
X127031904Y-69352438D02*
X127127142Y-69447676D01*
X127127142Y-69447676D02*
X127174761Y-69638152D01*
X127174761Y-69638152D02*
X127174761Y-69971485D01*
X127174761Y-69971485D02*
X127127142Y-70161961D01*
X127127142Y-70161961D02*
X127031904Y-70257200D01*
X127031904Y-70257200D02*
X126936666Y-70304819D01*
X126936666Y-70304819D02*
X126746190Y-70304819D01*
X128127142Y-70304819D02*
X127555714Y-70304819D01*
X127841428Y-70304819D02*
X127841428Y-69304819D01*
X127841428Y-69304819D02*
X127746190Y-69447676D01*
X127746190Y-69447676D02*
X127650952Y-69542914D01*
X127650952Y-69542914D02*
X127555714Y-69590533D01*
X128746190Y-69304819D02*
X128841428Y-69304819D01*
X128841428Y-69304819D02*
X128936666Y-69352438D01*
X128936666Y-69352438D02*
X128984285Y-69400057D01*
X128984285Y-69400057D02*
X129031904Y-69495295D01*
X129031904Y-69495295D02*
X129079523Y-69685771D01*
X129079523Y-69685771D02*
X129079523Y-69923866D01*
X129079523Y-69923866D02*
X129031904Y-70114342D01*
X129031904Y-70114342D02*
X128984285Y-70209580D01*
X128984285Y-70209580D02*
X128936666Y-70257200D01*
X128936666Y-70257200D02*
X128841428Y-70304819D01*
X128841428Y-70304819D02*
X128746190Y-70304819D01*
X128746190Y-70304819D02*
X128650952Y-70257200D01*
X128650952Y-70257200D02*
X128603333Y-70209580D01*
X128603333Y-70209580D02*
X128555714Y-70114342D01*
X128555714Y-70114342D02*
X128508095Y-69923866D01*
X128508095Y-69923866D02*
X128508095Y-69685771D01*
X128508095Y-69685771D02*
X128555714Y-69495295D01*
X128555714Y-69495295D02*
X128603333Y-69400057D01*
X128603333Y-69400057D02*
X128650952Y-69352438D01*
X128650952Y-69352438D02*
X128746190Y-69304819D01*
X130031904Y-70304819D02*
X129460476Y-70304819D01*
X129746190Y-70304819D02*
X129746190Y-69304819D01*
X129746190Y-69304819D02*
X129650952Y-69447676D01*
X129650952Y-69447676D02*
X129555714Y-69542914D01*
X129555714Y-69542914D02*
X129460476Y-69590533D01*
X120800952Y-57763580D02*
X120753333Y-57811200D01*
X120753333Y-57811200D02*
X120610476Y-57858819D01*
X120610476Y-57858819D02*
X120515238Y-57858819D01*
X120515238Y-57858819D02*
X120372381Y-57811200D01*
X120372381Y-57811200D02*
X120277143Y-57715961D01*
X120277143Y-57715961D02*
X120229524Y-57620723D01*
X120229524Y-57620723D02*
X120181905Y-57430247D01*
X120181905Y-57430247D02*
X120181905Y-57287390D01*
X120181905Y-57287390D02*
X120229524Y-57096914D01*
X120229524Y-57096914D02*
X120277143Y-57001676D01*
X120277143Y-57001676D02*
X120372381Y-56906438D01*
X120372381Y-56906438D02*
X120515238Y-56858819D01*
X120515238Y-56858819D02*
X120610476Y-56858819D01*
X120610476Y-56858819D02*
X120753333Y-56906438D01*
X120753333Y-56906438D02*
X120800952Y-56954057D01*
X121753333Y-57858819D02*
X121181905Y-57858819D01*
X121467619Y-57858819D02*
X121467619Y-56858819D01*
X121467619Y-56858819D02*
X121372381Y-57001676D01*
X121372381Y-57001676D02*
X121277143Y-57096914D01*
X121277143Y-57096914D02*
X121181905Y-57144533D01*
X122372381Y-56858819D02*
X122467619Y-56858819D01*
X122467619Y-56858819D02*
X122562857Y-56906438D01*
X122562857Y-56906438D02*
X122610476Y-56954057D01*
X122610476Y-56954057D02*
X122658095Y-57049295D01*
X122658095Y-57049295D02*
X122705714Y-57239771D01*
X122705714Y-57239771D02*
X122705714Y-57477866D01*
X122705714Y-57477866D02*
X122658095Y-57668342D01*
X122658095Y-57668342D02*
X122610476Y-57763580D01*
X122610476Y-57763580D02*
X122562857Y-57811200D01*
X122562857Y-57811200D02*
X122467619Y-57858819D01*
X122467619Y-57858819D02*
X122372381Y-57858819D01*
X122372381Y-57858819D02*
X122277143Y-57811200D01*
X122277143Y-57811200D02*
X122229524Y-57763580D01*
X122229524Y-57763580D02*
X122181905Y-57668342D01*
X122181905Y-57668342D02*
X122134286Y-57477866D01*
X122134286Y-57477866D02*
X122134286Y-57239771D01*
X122134286Y-57239771D02*
X122181905Y-57049295D01*
X122181905Y-57049295D02*
X122229524Y-56954057D01*
X122229524Y-56954057D02*
X122277143Y-56906438D01*
X122277143Y-56906438D02*
X122372381Y-56858819D01*
X123039048Y-56858819D02*
X123705714Y-56858819D01*
X123705714Y-56858819D02*
X123277143Y-57858819D01*
X121435952Y-59594819D02*
X121102619Y-59118628D01*
X120864524Y-59594819D02*
X120864524Y-58594819D01*
X120864524Y-58594819D02*
X121245476Y-58594819D01*
X121245476Y-58594819D02*
X121340714Y-58642438D01*
X121340714Y-58642438D02*
X121388333Y-58690057D01*
X121388333Y-58690057D02*
X121435952Y-58785295D01*
X121435952Y-58785295D02*
X121435952Y-58928152D01*
X121435952Y-58928152D02*
X121388333Y-59023390D01*
X121388333Y-59023390D02*
X121340714Y-59071009D01*
X121340714Y-59071009D02*
X121245476Y-59118628D01*
X121245476Y-59118628D02*
X120864524Y-59118628D01*
X122388333Y-59594819D02*
X121816905Y-59594819D01*
X122102619Y-59594819D02*
X122102619Y-58594819D01*
X122102619Y-58594819D02*
X122007381Y-58737676D01*
X122007381Y-58737676D02*
X121912143Y-58832914D01*
X121912143Y-58832914D02*
X121816905Y-58880533D01*
X123007381Y-58594819D02*
X123102619Y-58594819D01*
X123102619Y-58594819D02*
X123197857Y-58642438D01*
X123197857Y-58642438D02*
X123245476Y-58690057D01*
X123245476Y-58690057D02*
X123293095Y-58785295D01*
X123293095Y-58785295D02*
X123340714Y-58975771D01*
X123340714Y-58975771D02*
X123340714Y-59213866D01*
X123340714Y-59213866D02*
X123293095Y-59404342D01*
X123293095Y-59404342D02*
X123245476Y-59499580D01*
X123245476Y-59499580D02*
X123197857Y-59547200D01*
X123197857Y-59547200D02*
X123102619Y-59594819D01*
X123102619Y-59594819D02*
X123007381Y-59594819D01*
X123007381Y-59594819D02*
X122912143Y-59547200D01*
X122912143Y-59547200D02*
X122864524Y-59499580D01*
X122864524Y-59499580D02*
X122816905Y-59404342D01*
X122816905Y-59404342D02*
X122769286Y-59213866D01*
X122769286Y-59213866D02*
X122769286Y-58975771D01*
X122769286Y-58975771D02*
X122816905Y-58785295D01*
X122816905Y-58785295D02*
X122864524Y-58690057D01*
X122864524Y-58690057D02*
X122912143Y-58642438D01*
X122912143Y-58642438D02*
X123007381Y-58594819D01*
X124197857Y-58928152D02*
X124197857Y-59594819D01*
X123959762Y-58547200D02*
X123721667Y-59261485D01*
X123721667Y-59261485D02*
X124340714Y-59261485D01*
X100200951Y-101334819D02*
X99867618Y-100858628D01*
X99629523Y-101334819D02*
X99629523Y-100334819D01*
X99629523Y-100334819D02*
X100010475Y-100334819D01*
X100010475Y-100334819D02*
X100105713Y-100382438D01*
X100105713Y-100382438D02*
X100153332Y-100430057D01*
X100153332Y-100430057D02*
X100200951Y-100525295D01*
X100200951Y-100525295D02*
X100200951Y-100668152D01*
X100200951Y-100668152D02*
X100153332Y-100763390D01*
X100153332Y-100763390D02*
X100105713Y-100811009D01*
X100105713Y-100811009D02*
X100010475Y-100858628D01*
X100010475Y-100858628D02*
X99629523Y-100858628D01*
X101153332Y-101334819D02*
X100581904Y-101334819D01*
X100867618Y-101334819D02*
X100867618Y-100334819D01*
X100867618Y-100334819D02*
X100772380Y-100477676D01*
X100772380Y-100477676D02*
X100677142Y-100572914D01*
X100677142Y-100572914D02*
X100581904Y-100620533D01*
X101772380Y-100334819D02*
X101867618Y-100334819D01*
X101867618Y-100334819D02*
X101962856Y-100382438D01*
X101962856Y-100382438D02*
X102010475Y-100430057D01*
X102010475Y-100430057D02*
X102058094Y-100525295D01*
X102058094Y-100525295D02*
X102105713Y-100715771D01*
X102105713Y-100715771D02*
X102105713Y-100953866D01*
X102105713Y-100953866D02*
X102058094Y-101144342D01*
X102058094Y-101144342D02*
X102010475Y-101239580D01*
X102010475Y-101239580D02*
X101962856Y-101287200D01*
X101962856Y-101287200D02*
X101867618Y-101334819D01*
X101867618Y-101334819D02*
X101772380Y-101334819D01*
X101772380Y-101334819D02*
X101677142Y-101287200D01*
X101677142Y-101287200D02*
X101629523Y-101239580D01*
X101629523Y-101239580D02*
X101581904Y-101144342D01*
X101581904Y-101144342D02*
X101534285Y-100953866D01*
X101534285Y-100953866D02*
X101534285Y-100715771D01*
X101534285Y-100715771D02*
X101581904Y-100525295D01*
X101581904Y-100525295D02*
X101629523Y-100430057D01*
X101629523Y-100430057D02*
X101677142Y-100382438D01*
X101677142Y-100382438D02*
X101772380Y-100334819D01*
X102486666Y-100430057D02*
X102534285Y-100382438D01*
X102534285Y-100382438D02*
X102629523Y-100334819D01*
X102629523Y-100334819D02*
X102867618Y-100334819D01*
X102867618Y-100334819D02*
X102962856Y-100382438D01*
X102962856Y-100382438D02*
X103010475Y-100430057D01*
X103010475Y-100430057D02*
X103058094Y-100525295D01*
X103058094Y-100525295D02*
X103058094Y-100620533D01*
X103058094Y-100620533D02*
X103010475Y-100763390D01*
X103010475Y-100763390D02*
X102439047Y-101334819D01*
X102439047Y-101334819D02*
X103058094Y-101334819D01*
D14*
X115582500Y-65315000D02*
X112382500Y-65315000D01*
X115582500Y-60415000D02*
X115582500Y-65315000D01*
X112382500Y-65315000D02*
X112382500Y-60415000D01*
X112382500Y-60415000D02*
X115582500Y-60415000D01*
X110507500Y-60260000D02*
X112032500Y-60260000D01*
D11*
X81665000Y-97830000D02*
X87665000Y-97830000D01*
X81665000Y-99080000D02*
X76165000Y-99080001D01*
X81665000Y-101580000D02*
X76165000Y-101579999D01*
X81665000Y-102830000D02*
X81665000Y-97830000D01*
X87665000Y-97830000D02*
X87665000Y-102830000D01*
X87665000Y-102830000D02*
X81665000Y-102830000D01*
D10*
X176600000Y-58490000D02*
X179000000Y-58490000D01*
X176600000Y-60890000D02*
X176600000Y-58490000D01*
X179000000Y-58490000D02*
X179000000Y-60890000D01*
X179000000Y-60890000D02*
X176600000Y-60890000D01*
X188090000Y-68255000D02*
X188090000Y-70655000D01*
X185590000Y-73155000D02*
X183190000Y-73155000D01*
X183190000Y-65755000D02*
X185590000Y-65755000D01*
X180690000Y-70655000D02*
X180690000Y-68255000D01*
D14*
X126635000Y-105885000D02*
X126635000Y-97985000D01*
X122285000Y-98585000D02*
X122285000Y-105885000D01*
D10*
X104775000Y-38830000D02*
X106775000Y-38830000D01*
X104775000Y-40830000D02*
X104775000Y-38830000D01*
X105075000Y-39130000D02*
X105075000Y-49150000D01*
X105075000Y-39130000D02*
X124795000Y-39130000D01*
X105075000Y-49150000D02*
X124795000Y-49150000D01*
X124795000Y-39130000D02*
X124795000Y-49150000D01*
X134106000Y-118103000D02*
X128835000Y-118103000D01*
X134076000Y-96523000D02*
X134106000Y-118103000D01*
X134076000Y-96523000D02*
X128805000Y-96523000D01*
X128805000Y-96523000D02*
X128835000Y-118103000D01*
X118645000Y-100068747D02*
X118645000Y-100591253D01*
X120115000Y-100068747D02*
X120115000Y-100591253D01*
D11*
X81460000Y-51040000D02*
X95570000Y-51040000D01*
X81460000Y-65800000D02*
X81460000Y-51040000D01*
X95570000Y-51040000D02*
X95570000Y-65800000D01*
X95570000Y-65800000D02*
X81460000Y-65800000D01*
D14*
X96090000Y-58320000D02*
X96090000Y-58320000D01*
X96090000Y-58520000D02*
X96090000Y-58520000D01*
X96090000Y-58320000D02*
G75*
G02*
X96090000Y-58520000I0J-100000D01*
G01*
X96090000Y-58520000D02*
G75*
G02*
X96090000Y-58320000I0J100000D01*
G01*
X160890000Y-64895000D02*
X174390000Y-64895000D01*
X160890000Y-96395000D02*
X160890000Y-64895000D01*
D11*
X167640000Y-96895000D02*
X167640000Y-96895000D01*
X167640000Y-96995000D02*
X167640000Y-96995000D01*
D14*
X174390000Y-64895000D02*
X174390000Y-96395000D01*
X174390000Y-96395000D02*
X160890000Y-96395000D01*
D11*
X167640000Y-96895000D02*
G75*
G02*
X167640000Y-96995000I0J-50000D01*
G01*
X167640000Y-96995000D02*
G75*
G02*
X167640000Y-96895000I0J50000D01*
G01*
X94655000Y-38485000D02*
X99655000Y-38485000D01*
X94655000Y-44485000D02*
X94655000Y-38485000D01*
X95905000Y-38485000D02*
X95905001Y-32985000D01*
X98405000Y-38485000D02*
X98404999Y-32985000D01*
X99655000Y-38485000D02*
X99655000Y-44485000D01*
X99655000Y-44485000D02*
X94655000Y-44485000D01*
D10*
X139135000Y-103575000D02*
X141535000Y-103575000D01*
X139135000Y-105975000D02*
X139135000Y-103575000D01*
X141535000Y-103575000D02*
X141535000Y-105975000D01*
X141535000Y-105975000D02*
X139135000Y-105975000D01*
X125545000Y-64542936D02*
X125545000Y-64997064D01*
X127015000Y-64542936D02*
X127015000Y-64997064D01*
X121885000Y-95235000D02*
X121885000Y-93995000D01*
X120635000Y-96485000D02*
X119395000Y-96485000D01*
X120635000Y-92745000D02*
X119395000Y-92745000D01*
X118145000Y-95235000D02*
X118145000Y-93995000D01*
X113565000Y-100102936D02*
X113565000Y-100557064D01*
X115035000Y-100102936D02*
X115035000Y-100557064D01*
X188245000Y-91905000D02*
X188245000Y-94305000D01*
X185745000Y-96805000D02*
X183345000Y-96805000D01*
X183345000Y-89405000D02*
X185745000Y-89405000D01*
X180845000Y-94305000D02*
X180845000Y-91905000D01*
X139135000Y-110560000D02*
X141535000Y-110560000D01*
X139135000Y-112960000D02*
X139135000Y-110560000D01*
X141535000Y-110560000D02*
X141535000Y-112960000D01*
X141535000Y-112960000D02*
X139135000Y-112960000D01*
X176600000Y-102305000D02*
X179000000Y-102305000D01*
X176600000Y-104705000D02*
X176600000Y-102305000D01*
X179000000Y-102305000D02*
X179000000Y-104705000D01*
X179000000Y-104705000D02*
X176600000Y-104705000D01*
X116105000Y-100068747D02*
X116105000Y-100591253D01*
X117575000Y-100068747D02*
X117575000Y-100591253D01*
X113595000Y-96132500D02*
X111195000Y-96132500D01*
X113595000Y-93732500D02*
X113595000Y-96132500D01*
X111195000Y-96132500D02*
X111195000Y-93732500D01*
X111195000Y-93732500D02*
X113595000Y-93732500D01*
X111068753Y-55145000D02*
X110546247Y-55145000D01*
X111068753Y-56615000D02*
X110546247Y-56615000D01*
X106115000Y-93732500D02*
X108515000Y-93732500D01*
X106115000Y-96132500D02*
X106115000Y-93732500D01*
X108515000Y-93732500D02*
X108515000Y-96132500D01*
X108515000Y-96132500D02*
X106115000Y-96132500D01*
X111068753Y-57685000D02*
X110546247Y-57685000D01*
X111068753Y-59155000D02*
X110546247Y-59155000D01*
X117531247Y-55145000D02*
X118053753Y-55145000D01*
X117531247Y-56615000D02*
X118053753Y-56615000D01*
X128805000Y-52835000D02*
X128805000Y-68975000D01*
X134076000Y-52835000D02*
X128805000Y-52835000D01*
X134076000Y-52835000D02*
X134076000Y-68975000D01*
X134076000Y-68975000D02*
X128805000Y-68975000D01*
X117531247Y-57685000D02*
X118053753Y-57685000D01*
X117531247Y-59155000D02*
X118053753Y-59155000D01*
X121827936Y-60050000D02*
X123282064Y-60050000D01*
X121827936Y-61870000D02*
X123282064Y-61870000D01*
X102047063Y-98150000D02*
X100592935Y-98150000D01*
X102047063Y-99970000D02*
X100592935Y-99970000D01*
%LPC*%
D15*
X116982500Y-60960000D03*
X116982500Y-62230000D03*
X116982500Y-63500000D03*
X116982500Y-64770000D03*
X110982500Y-64770000D03*
X110982500Y-63500000D03*
X110982500Y-62230000D03*
X110982500Y-60960000D03*
D16*
X84665000Y-99080000D03*
X84665000Y-101580000D03*
D17*
X177800000Y-59690000D03*
D18*
X187325000Y-72390000D03*
X187325000Y-66520000D03*
X181455000Y-72390000D03*
X181455000Y-66520000D03*
D19*
X124460000Y-105534999D03*
X124460000Y-98935001D03*
D20*
X107315000Y-41910000D03*
D21*
X109855000Y-41910000D03*
X117475000Y-41910000D03*
D22*
X120015000Y-41910000D03*
D21*
X122555000Y-41910000D03*
D23*
X131445000Y-115570000D03*
X131445000Y-110109000D03*
X131445000Y-104648000D03*
X131445000Y-99187000D03*
D24*
X119380000Y-99292500D03*
X119380000Y-101367500D03*
D25*
X94290000Y-58420000D03*
D26*
X89210000Y-63500000D03*
D25*
X94290000Y-60960000D03*
D26*
X89210000Y-53340000D03*
D18*
X185420000Y-44450000D03*
D27*
X167640000Y-94395000D03*
D28*
X167640000Y-66895000D03*
D18*
X86995000Y-44450000D03*
D16*
X98405000Y-41485000D03*
X95905000Y-41485000D03*
D17*
X140335000Y-104775000D03*
D29*
X126280000Y-63770000D03*
X126280000Y-65770000D03*
D30*
X121285000Y-95885000D03*
X121285000Y-93345000D03*
X118745000Y-95885000D03*
X118745000Y-93345000D03*
X120015000Y-94615000D03*
D29*
X114300000Y-99330000D03*
X114300000Y-101330000D03*
D18*
X187480000Y-96040000D03*
X187480000Y-90170000D03*
X181610000Y-96040000D03*
X181610000Y-90170000D03*
D17*
X140335000Y-111760000D03*
X177800000Y-103505000D03*
D31*
X140335000Y-99060000D03*
D24*
X116840000Y-99292500D03*
X116840000Y-101367500D03*
D17*
X112395000Y-94932500D03*
D18*
X185420000Y-116840000D03*
D32*
X111845000Y-55880000D03*
X109770000Y-55880000D03*
D17*
X107315000Y-94932500D03*
D32*
X111845000Y-58420000D03*
X109770000Y-58420000D03*
D18*
X86995000Y-116840000D03*
D31*
X140335000Y-67945000D03*
D33*
X116755000Y-55880000D03*
X118830000Y-55880000D03*
D23*
X131445000Y-55499000D03*
X131445000Y-60960000D03*
X131445000Y-66421000D03*
D33*
X116755000Y-58420000D03*
X118830000Y-58420000D03*
D34*
X121005000Y-60960000D03*
X124105000Y-60960000D03*
D35*
X102870000Y-99060000D03*
X99769998Y-99060000D03*
%LPD*%
M02*
