G04 #@! TF.GenerationSoftware,KiCad,Pcbnew,8.0.5*
G04 #@! TF.CreationDate,2024-10-07T10:38:08+09:00*
G04 #@! TF.ProjectId,drainpulse,64726169-6e70-4756-9c73-652e6b696361,rev?*
G04 #@! TF.SameCoordinates,Original*
G04 #@! TF.FileFunction,Legend,Bot*
G04 #@! TF.FilePolarity,Positive*
%FSLAX46Y46*%
G04 Gerber Fmt 4.6, Leading zero omitted, Abs format (unit mm)*
G04 Created by KiCad (PCBNEW 8.0.5) date 2024-10-07 10:38:08*
%MOMM*%
%LPD*%
G01*
G04 APERTURE LIST*
G04 Aperture macros list*
%AMRoundRect*
0 Rectangle with rounded corners*
0 $1 Rounding radius*
0 $2 $3 $4 $5 $6 $7 $8 $9 X,Y pos of 4 corners*
0 Add a 4 corners polygon primitive as box body*
4,1,4,$2,$3,$4,$5,$6,$7,$8,$9,$2,$3,0*
0 Add four circle primitives for the rounded corners*
1,1,$1+$1,$2,$3*
1,1,$1+$1,$4,$5*
1,1,$1+$1,$6,$7*
1,1,$1+$1,$8,$9*
0 Add four rect primitives between the rounded corners*
20,1,$1+$1,$2,$3,$4,$5,0*
20,1,$1+$1,$4,$5,$6,$7,0*
20,1,$1+$1,$6,$7,$8,$9,0*
20,1,$1+$1,$8,$9,$2,$3,0*%
G04 Aperture macros list end*
%ADD10C,0.150000*%
%ADD11C,0.120000*%
%ADD12C,1.900000*%
%ADD13RoundRect,0.050000X-1.150000X-1.150000X1.150000X-1.150000X1.150000X1.150000X-1.150000X1.150000X0*%
%ADD14C,3.300000*%
%ADD15RoundRect,0.050000X-0.850000X-0.850000X0.850000X-0.850000X0.850000X0.850000X-0.850000X0.850000X0*%
%ADD16O,1.800000X1.800000*%
%ADD17O,1.800000X1.700000*%
%ADD18C,4.100000*%
%ADD19O,2.600000X1.700000*%
%ADD20O,7.100000X3.600000*%
%ADD21RoundRect,0.050000X0.750000X-0.750000X0.750000X0.750000X-0.750000X0.750000X-0.750000X-0.750000X0*%
%ADD22C,1.600000*%
%ADD23C,1.500000*%
%ADD24RoundRect,0.256412X-1.743588X-1.743588X1.743588X-1.743588X1.743588X1.743588X-1.743588X1.743588X0*%
%ADD25RoundRect,0.270833X-0.479167X0.379167X-0.479167X-0.379167X0.479167X-0.379167X0.479167X0.379167X0*%
G04 APERTURE END LIST*
D10*
X116279819Y-45235952D02*
X115803628Y-44902619D01*
X116279819Y-44664524D02*
X115279819Y-44664524D01*
X115279819Y-44664524D02*
X115279819Y-45045476D01*
X115279819Y-45045476D02*
X115327438Y-45140714D01*
X115327438Y-45140714D02*
X115375057Y-45188333D01*
X115375057Y-45188333D02*
X115470295Y-45235952D01*
X115470295Y-45235952D02*
X115613152Y-45235952D01*
X115613152Y-45235952D02*
X115708390Y-45188333D01*
X115708390Y-45188333D02*
X115756009Y-45140714D01*
X115756009Y-45140714D02*
X115803628Y-45045476D01*
X115803628Y-45045476D02*
X115803628Y-44664524D01*
X116279819Y-46188333D02*
X116279819Y-45616905D01*
X116279819Y-45902619D02*
X115279819Y-45902619D01*
X115279819Y-45902619D02*
X115422676Y-45807381D01*
X115422676Y-45807381D02*
X115517914Y-45712143D01*
X115517914Y-45712143D02*
X115565533Y-45616905D01*
X116279819Y-47140714D02*
X116279819Y-46569286D01*
X116279819Y-46855000D02*
X115279819Y-46855000D01*
X115279819Y-46855000D02*
X115422676Y-46759762D01*
X115422676Y-46759762D02*
X115517914Y-46664524D01*
X115517914Y-46664524D02*
X115565533Y-46569286D01*
X116279819Y-48093095D02*
X116279819Y-47521667D01*
X116279819Y-47807381D02*
X115279819Y-47807381D01*
X115279819Y-47807381D02*
X115422676Y-47712143D01*
X115422676Y-47712143D02*
X115517914Y-47616905D01*
X115517914Y-47616905D02*
X115565533Y-47521667D01*
X121359819Y-45235952D02*
X120883628Y-44902619D01*
X121359819Y-44664524D02*
X120359819Y-44664524D01*
X120359819Y-44664524D02*
X120359819Y-45045476D01*
X120359819Y-45045476D02*
X120407438Y-45140714D01*
X120407438Y-45140714D02*
X120455057Y-45188333D01*
X120455057Y-45188333D02*
X120550295Y-45235952D01*
X120550295Y-45235952D02*
X120693152Y-45235952D01*
X120693152Y-45235952D02*
X120788390Y-45188333D01*
X120788390Y-45188333D02*
X120836009Y-45140714D01*
X120836009Y-45140714D02*
X120883628Y-45045476D01*
X120883628Y-45045476D02*
X120883628Y-44664524D01*
X121359819Y-46188333D02*
X121359819Y-45616905D01*
X121359819Y-45902619D02*
X120359819Y-45902619D01*
X120359819Y-45902619D02*
X120502676Y-45807381D01*
X120502676Y-45807381D02*
X120597914Y-45712143D01*
X120597914Y-45712143D02*
X120645533Y-45616905D01*
X121359819Y-47140714D02*
X121359819Y-46569286D01*
X121359819Y-46855000D02*
X120359819Y-46855000D01*
X120359819Y-46855000D02*
X120502676Y-46759762D01*
X120502676Y-46759762D02*
X120597914Y-46664524D01*
X120597914Y-46664524D02*
X120645533Y-46569286D01*
X120455057Y-47521667D02*
X120407438Y-47569286D01*
X120407438Y-47569286D02*
X120359819Y-47664524D01*
X120359819Y-47664524D02*
X120359819Y-47902619D01*
X120359819Y-47902619D02*
X120407438Y-47997857D01*
X120407438Y-47997857D02*
X120455057Y-48045476D01*
X120455057Y-48045476D02*
X120550295Y-48093095D01*
X120550295Y-48093095D02*
X120645533Y-48093095D01*
X120645533Y-48093095D02*
X120788390Y-48045476D01*
X120788390Y-48045476D02*
X121359819Y-47474048D01*
X121359819Y-47474048D02*
X121359819Y-48093095D01*
D11*
X116740000Y-46582064D02*
X116740000Y-46127936D01*
X118210000Y-46582064D02*
X118210000Y-46127936D01*
X121820000Y-46582064D02*
X121820000Y-46127936D01*
X123290000Y-46582064D02*
X123290000Y-46127936D01*
%LPC*%
D12*
X84665000Y-99080000D03*
X84665000Y-101580000D03*
D13*
X177800000Y-59690000D03*
D14*
X187325000Y-72390000D03*
X187325000Y-66520000D03*
X181455000Y-72390000D03*
X181455000Y-66520000D03*
D15*
X107315000Y-41910000D03*
D16*
X109855000Y-41910000D03*
X117475000Y-41910000D03*
D17*
X120015000Y-41910000D03*
D16*
X122555000Y-41910000D03*
D18*
X131445000Y-115570000D03*
X131445000Y-110109000D03*
X131445000Y-104648000D03*
X131445000Y-99187000D03*
D19*
X94290000Y-58420000D03*
D20*
X89210000Y-63500000D03*
D19*
X94290000Y-60960000D03*
D20*
X89210000Y-53340000D03*
D14*
X185420000Y-44450000D03*
D21*
X167640000Y-94395000D03*
D22*
X167640000Y-66895000D03*
D14*
X86995000Y-44450000D03*
D12*
X98405000Y-41485000D03*
X95905000Y-41485000D03*
D13*
X140335000Y-104775000D03*
D23*
X121285000Y-95885000D03*
X121285000Y-93345000D03*
X118745000Y-95885000D03*
X118745000Y-93345000D03*
X120015000Y-94615000D03*
D14*
X187480000Y-96040000D03*
X187480000Y-90170000D03*
X181610000Y-96040000D03*
X181610000Y-90170000D03*
D13*
X140335000Y-111760000D03*
X177800000Y-103505000D03*
D24*
X140335000Y-99060000D03*
D13*
X112395000Y-94932500D03*
D14*
X185420000Y-116840000D03*
D13*
X107315000Y-94932500D03*
D14*
X86995000Y-116840000D03*
D24*
X140335000Y-67945000D03*
D18*
X131445000Y-55499000D03*
X131445000Y-60960000D03*
X131445000Y-66421000D03*
D25*
X117475000Y-45355000D03*
X117475000Y-47355000D03*
X122555000Y-45355000D03*
X122555000Y-47355000D03*
%LPD*%
M02*
