G04 #@! TF.GenerationSoftware,KiCad,Pcbnew,8.0.5*
G04 #@! TF.CreationDate,2024-10-07T10:38:08+09:00*
G04 #@! TF.ProjectId,drainpulse,64726169-6e70-4756-9c73-652e6b696361,rev?*
G04 #@! TF.SameCoordinates,Original*
G04 #@! TF.FileFunction,Copper,L1,Top*
G04 #@! TF.FilePolarity,Positive*
%FSLAX46Y46*%
G04 Gerber Fmt 4.6, Leading zero omitted, Abs format (unit mm)*
G04 Created by KiCad (PCBNEW 8.0.5) date 2024-10-07 10:38:08*
%MOMM*%
%LPD*%
G01*
G04 APERTURE LIST*
G04 Aperture macros list*
%AMRoundRect*
0 Rectangle with rounded corners*
0 $1 Rounding radius*
0 $2 $3 $4 $5 $6 $7 $8 $9 X,Y pos of 4 corners*
0 Add a 4 corners polygon primitive as box body*
4,1,4,$2,$3,$4,$5,$6,$7,$8,$9,$2,$3,0*
0 Add four circle primitives for the rounded corners*
1,1,$1+$1,$2,$3*
1,1,$1+$1,$4,$5*
1,1,$1+$1,$6,$7*
1,1,$1+$1,$8,$9*
0 Add four rect primitives between the rounded corners*
20,1,$1+$1,$2,$3,$4,$5,0*
20,1,$1+$1,$4,$5,$6,$7,0*
20,1,$1+$1,$6,$7,$8,$9,0*
20,1,$1+$1,$8,$9,$2,$3,0*%
G04 Aperture macros list end*
G04 #@! TA.AperFunction,SMDPad,CuDef*
%ADD10R,1.700000X0.850000*%
G04 #@! TD*
G04 #@! TA.AperFunction,ComponentPad*
%ADD11C,1.800000*%
G04 #@! TD*
G04 #@! TA.AperFunction,ComponentPad*
%ADD12R,2.300000X2.300000*%
G04 #@! TD*
G04 #@! TA.AperFunction,ComponentPad*
%ADD13C,3.200000*%
G04 #@! TD*
G04 #@! TA.AperFunction,SMDPad,CuDef*
%ADD14R,2.900000X2.700000*%
G04 #@! TD*
G04 #@! TA.AperFunction,ComponentPad*
%ADD15R,1.700000X1.700000*%
G04 #@! TD*
G04 #@! TA.AperFunction,ComponentPad*
%ADD16O,1.700000X1.700000*%
G04 #@! TD*
G04 #@! TA.AperFunction,ComponentPad*
%ADD17O,1.700000X1.600000*%
G04 #@! TD*
G04 #@! TA.AperFunction,ComponentPad*
%ADD18C,4.000000*%
G04 #@! TD*
G04 #@! TA.AperFunction,SMDPad,CuDef*
%ADD19RoundRect,0.250000X-0.475000X0.337500X-0.475000X-0.337500X0.475000X-0.337500X0.475000X0.337500X0*%
G04 #@! TD*
G04 #@! TA.AperFunction,ComponentPad*
%ADD20O,2.500000X1.600000*%
G04 #@! TD*
G04 #@! TA.AperFunction,ComponentPad*
%ADD21O,7.000000X3.500000*%
G04 #@! TD*
G04 #@! TA.AperFunction,ComponentPad*
%ADD22R,1.500000X1.500000*%
G04 #@! TD*
G04 #@! TA.AperFunction,ComponentPad*
%ADD23C,1.500000*%
G04 #@! TD*
G04 #@! TA.AperFunction,SMDPad,CuDef*
%ADD24RoundRect,0.250000X-0.450000X0.350000X-0.450000X-0.350000X0.450000X-0.350000X0.450000X0.350000X0*%
G04 #@! TD*
G04 #@! TA.AperFunction,ComponentPad*
%ADD25C,1.400000*%
G04 #@! TD*
G04 #@! TA.AperFunction,ComponentPad*
%ADD26RoundRect,0.250002X-1.699998X-1.699998X1.699998X-1.699998X1.699998X1.699998X-1.699998X1.699998X0*%
G04 #@! TD*
G04 #@! TA.AperFunction,SMDPad,CuDef*
%ADD27RoundRect,0.250000X0.337500X0.475000X-0.337500X0.475000X-0.337500X-0.475000X0.337500X-0.475000X0*%
G04 #@! TD*
G04 #@! TA.AperFunction,SMDPad,CuDef*
%ADD28RoundRect,0.250000X-0.337500X-0.475000X0.337500X-0.475000X0.337500X0.475000X-0.337500X0.475000X0*%
G04 #@! TD*
G04 #@! TA.AperFunction,SMDPad,CuDef*
%ADD29RoundRect,0.250000X-0.400000X-0.625000X0.400000X-0.625000X0.400000X0.625000X-0.400000X0.625000X0*%
G04 #@! TD*
G04 #@! TA.AperFunction,SMDPad,CuDef*
%ADD30RoundRect,0.250000X0.400000X0.625000X-0.400000X0.625000X-0.400000X-0.625000X0.400000X-0.625000X0*%
G04 #@! TD*
G04 #@! TA.AperFunction,ViaPad*
%ADD31C,0.600000*%
G04 #@! TD*
G04 #@! TA.AperFunction,ViaPad*
%ADD32C,0.800000*%
G04 #@! TD*
G04 #@! TA.AperFunction,Conductor*
%ADD33C,0.500000*%
G04 #@! TD*
G04 #@! TA.AperFunction,Conductor*
%ADD34C,0.800000*%
G04 #@! TD*
G04 #@! TA.AperFunction,Conductor*
%ADD35C,1.000000*%
G04 #@! TD*
G04 APERTURE END LIST*
D10*
X116982500Y-60960000D03*
X116982500Y-62230000D03*
X116982500Y-63500000D03*
X116982500Y-64770000D03*
X110982500Y-64770000D03*
X110982500Y-63500000D03*
X110982500Y-62230000D03*
X110982500Y-60960000D03*
D11*
X84665000Y-99080000D03*
X84665000Y-101580000D03*
D12*
X177800000Y-59690000D03*
D13*
X187325000Y-72390000D03*
X187325000Y-66520000D03*
X181455000Y-72390000D03*
X181455000Y-66520000D03*
D14*
X124460000Y-105534999D03*
X124460000Y-98935001D03*
D15*
X107315000Y-41910000D03*
D16*
X109855000Y-41910000D03*
X117475000Y-41910000D03*
D17*
X120015000Y-41910000D03*
D16*
X122555000Y-41910000D03*
D18*
X131445000Y-115570000D03*
X131445000Y-110109000D03*
X131445000Y-104648000D03*
X131445000Y-99187000D03*
D19*
X119380000Y-99292500D03*
X119380000Y-101367500D03*
D20*
X94290000Y-58420000D03*
D21*
X89210000Y-63500000D03*
D20*
X94290000Y-60960000D03*
D21*
X89210000Y-53340000D03*
D22*
X167640000Y-94395000D03*
D23*
X167640000Y-66895000D03*
D11*
X98405000Y-41485000D03*
X95905000Y-41485000D03*
D12*
X140335000Y-104775000D03*
D24*
X126280000Y-63770000D03*
X126280000Y-65770000D03*
D25*
X121285000Y-95885000D03*
X121285000Y-93345000D03*
X118745000Y-95885000D03*
X118745000Y-93345000D03*
X120015000Y-94615000D03*
D24*
X114300000Y-99330000D03*
X114300000Y-101330000D03*
D13*
X187480000Y-96040000D03*
X187480000Y-90170000D03*
X181610000Y-96040000D03*
X181610000Y-90170000D03*
D12*
X140335000Y-111760000D03*
X177800000Y-103505000D03*
D26*
X140335000Y-99060000D03*
D19*
X116840000Y-99292500D03*
X116840000Y-101367500D03*
D12*
X112395000Y-94932500D03*
D27*
X111845000Y-55880000D03*
X109770000Y-55880000D03*
D12*
X107315000Y-94932500D03*
D27*
X111845000Y-58420000D03*
X109770000Y-58420000D03*
D26*
X140335000Y-67945000D03*
D28*
X116755000Y-55880000D03*
X118830000Y-55880000D03*
D18*
X131445000Y-55499000D03*
X131445000Y-60960000D03*
X131445000Y-66421000D03*
D28*
X116755000Y-58420000D03*
X118830000Y-58420000D03*
D29*
X121005000Y-60960000D03*
X124105000Y-60960000D03*
D30*
X102870000Y-99060000D03*
X99769998Y-99060000D03*
D31*
X111125000Y-101600000D03*
D32*
X123698000Y-106426000D03*
X119380000Y-102870000D03*
X108267500Y-55880000D03*
X125222000Y-104902000D03*
X125222000Y-106426000D03*
D31*
X109537500Y-63500000D03*
D32*
X108267500Y-58420000D03*
X114300000Y-102870000D03*
X116840000Y-102870000D03*
X123698000Y-104902000D03*
D31*
X110982500Y-63500000D03*
D32*
X115570000Y-64770000D03*
X118745000Y-64770000D03*
X120015000Y-58420000D03*
X120015000Y-55880000D03*
D33*
X120015000Y-98657500D02*
X119380000Y-99292500D01*
X120015000Y-94615000D02*
X120015000Y-98657500D01*
D34*
X130810000Y-115570000D02*
X131445000Y-115570000D01*
X127635000Y-112395000D02*
X130810000Y-115570000D01*
X127635000Y-107315000D02*
X127635000Y-112395000D01*
X130302000Y-104648000D02*
X127635000Y-107315000D01*
X131445000Y-104648000D02*
X130302000Y-104648000D01*
D33*
X125095000Y-99060000D02*
X121285000Y-99060000D01*
X113665000Y-96202500D02*
X113665000Y-99377500D01*
D35*
X124460000Y-99060000D02*
X131445000Y-99060000D01*
D33*
X112395000Y-94932500D02*
X113665000Y-96202500D01*
D34*
X112712500Y-62230000D02*
X112712500Y-64770000D01*
X106045000Y-47625000D02*
X103590000Y-47625000D01*
X110982500Y-64770000D02*
X112712500Y-64770000D01*
X111845000Y-55880000D02*
X111845000Y-53425000D01*
X111845000Y-55880000D02*
X111845000Y-58420000D01*
X98405000Y-41930000D02*
X98425000Y-41910000D01*
X98405000Y-42440000D02*
X98405000Y-41930000D01*
X103590000Y-47625000D02*
X98405000Y-42440000D01*
X111845000Y-53425000D02*
X106045000Y-47625000D01*
D35*
X98740000Y-41910000D02*
X107035000Y-41910000D01*
D34*
X111845000Y-58420000D02*
X112712500Y-59287500D01*
X112712500Y-59287500D02*
X112712500Y-62230000D01*
X110982500Y-62230000D02*
X112712500Y-62230000D01*
D33*
X108267500Y-58420000D02*
X109770000Y-58420000D01*
X108267500Y-55880000D02*
X109770000Y-55880000D01*
X109770000Y-55880000D02*
X109770000Y-58420000D01*
X109537500Y-63500000D02*
X110982500Y-63500000D01*
X102870000Y-58420000D02*
X94290000Y-58420000D01*
X110982500Y-60960000D02*
X105410000Y-60960000D01*
X105410000Y-60960000D02*
X102870000Y-58420000D01*
D35*
X121005000Y-60960000D02*
X119100000Y-62865000D01*
X117617500Y-62865000D02*
X116982500Y-63500000D01*
X119100000Y-62865000D02*
X117617500Y-62865000D01*
X116982500Y-62230000D02*
X116982500Y-63500000D01*
X117617500Y-62865000D02*
X116982500Y-62230000D01*
X124105000Y-61595000D02*
X126280000Y-63770000D01*
X124105000Y-60680000D02*
X124105000Y-60960000D01*
X131445000Y-55499000D02*
X129286000Y-55499000D01*
X129286000Y-55499000D02*
X124105000Y-60680000D01*
X124105000Y-60960000D02*
X124105000Y-61595000D01*
X126931000Y-66421000D02*
X126280000Y-65770000D01*
X118830000Y-55880000D02*
X118830000Y-58420000D01*
X115570000Y-64770000D02*
X116982500Y-64770000D01*
X117332500Y-64770000D02*
X118745000Y-64770000D01*
X120015000Y-58420000D02*
X118830000Y-58420000D01*
X131445000Y-66421000D02*
X126931000Y-66421000D01*
X120015000Y-55880000D02*
X118830000Y-55880000D01*
D34*
X122555000Y-46990000D02*
X116755000Y-52790000D01*
D35*
X116755000Y-60732500D02*
X116982500Y-60960000D01*
D34*
X122555000Y-41910000D02*
X122555000Y-46990000D01*
X116755000Y-52790000D02*
X116755000Y-55880000D01*
D35*
X116755000Y-60732500D02*
X116755000Y-55880000D01*
X102870000Y-99060000D02*
X125095000Y-99060000D01*
X84685000Y-99060000D02*
X84665000Y-99080000D01*
X99769998Y-99060000D02*
X84685000Y-99060000D01*
G04 #@! TA.AperFunction,Conductor*
G36*
X113343039Y-100984685D02*
G01*
X113388794Y-101037489D01*
X113400000Y-101089000D01*
X113400000Y-101180000D01*
X115199999Y-101180000D01*
X115199999Y-101089000D01*
X115219684Y-101021961D01*
X115272488Y-100976206D01*
X115323999Y-100965000D01*
X115791000Y-100965000D01*
X115858039Y-100984685D01*
X115903794Y-101037489D01*
X115915000Y-101089000D01*
X115915000Y-101217500D01*
X117764999Y-101217500D01*
X117764999Y-101089000D01*
X117784684Y-101021961D01*
X117837488Y-100976206D01*
X117888999Y-100965000D01*
X118331000Y-100965000D01*
X118398039Y-100984685D01*
X118443794Y-101037489D01*
X118455000Y-101089000D01*
X118455000Y-101217500D01*
X120304999Y-101217500D01*
X120304999Y-101089000D01*
X120324684Y-101021961D01*
X120377488Y-100976206D01*
X120428999Y-100965000D01*
X120526000Y-100965000D01*
X120593039Y-100984685D01*
X120638794Y-101037489D01*
X120650000Y-101089000D01*
X120650000Y-103381000D01*
X120630315Y-103448039D01*
X120577511Y-103493794D01*
X120526000Y-103505000D01*
X110614000Y-103505000D01*
X110546961Y-103485315D01*
X110501206Y-103432511D01*
X110490000Y-103381000D01*
X110490000Y-101734196D01*
X113400001Y-101734196D01*
X113402851Y-101764606D01*
X113447653Y-101892645D01*
X113528207Y-102001792D01*
X113637354Y-102082346D01*
X113765397Y-102127149D01*
X113795792Y-102129999D01*
X114149999Y-102129999D01*
X114450000Y-102129999D01*
X114804196Y-102129999D01*
X114834606Y-102127148D01*
X114962645Y-102082346D01*
X115071792Y-102001792D01*
X115152346Y-101892645D01*
X115197149Y-101764604D01*
X115197149Y-101764600D01*
X115197656Y-101759196D01*
X115915001Y-101759196D01*
X115917851Y-101789606D01*
X115962653Y-101917645D01*
X116043207Y-102026792D01*
X116152354Y-102107346D01*
X116280397Y-102152149D01*
X116310792Y-102154999D01*
X116689999Y-102154999D01*
X116990000Y-102154999D01*
X117369196Y-102154999D01*
X117399606Y-102152148D01*
X117527645Y-102107346D01*
X117636792Y-102026792D01*
X117717346Y-101917645D01*
X117762149Y-101789604D01*
X117762149Y-101789600D01*
X117765000Y-101759206D01*
X117765000Y-101759196D01*
X118455001Y-101759196D01*
X118457851Y-101789606D01*
X118502653Y-101917645D01*
X118583207Y-102026792D01*
X118692354Y-102107346D01*
X118820397Y-102152149D01*
X118850792Y-102154999D01*
X119229999Y-102154999D01*
X119530000Y-102154999D01*
X119909196Y-102154999D01*
X119939606Y-102152148D01*
X120067645Y-102107346D01*
X120176792Y-102026792D01*
X120257346Y-101917645D01*
X120302149Y-101789604D01*
X120302149Y-101789600D01*
X120305000Y-101759206D01*
X120305000Y-101517500D01*
X119530000Y-101517500D01*
X119530000Y-102154999D01*
X119229999Y-102154999D01*
X119230000Y-102154998D01*
X119230000Y-101517500D01*
X118455001Y-101517500D01*
X118455001Y-101759196D01*
X117765000Y-101759196D01*
X117765000Y-101517500D01*
X116990000Y-101517500D01*
X116990000Y-102154999D01*
X116689999Y-102154999D01*
X116690000Y-102154998D01*
X116690000Y-101517500D01*
X115915001Y-101517500D01*
X115915001Y-101759196D01*
X115197656Y-101759196D01*
X115200000Y-101734206D01*
X115200000Y-101480000D01*
X114450000Y-101480000D01*
X114450000Y-102129999D01*
X114149999Y-102129999D01*
X114150000Y-102129998D01*
X114150000Y-101480000D01*
X113400001Y-101480000D01*
X113400001Y-101734196D01*
X110490000Y-101734196D01*
X110490000Y-101089000D01*
X110509685Y-101021961D01*
X110562489Y-100976206D01*
X110614000Y-100965000D01*
X113276000Y-100965000D01*
X113343039Y-100984685D01*
G37*
G04 #@! TD.AperFunction*
G04 #@! TA.AperFunction,Conductor*
G36*
X180360447Y-48279685D02*
G01*
X180375063Y-48290680D01*
X190457655Y-57112948D01*
X190495145Y-57171908D01*
X190500000Y-57206268D01*
X190500000Y-74806000D01*
X190480315Y-74873039D01*
X190427511Y-74918794D01*
X190376000Y-74930000D01*
X188097233Y-74930000D01*
X187325000Y-74157767D01*
X186552767Y-74930000D01*
X182227233Y-74930000D01*
X181455000Y-74157767D01*
X180682767Y-74930000D01*
X160067583Y-74930000D01*
X160000544Y-74910315D01*
X159984631Y-74898168D01*
X157821548Y-72951393D01*
X157784887Y-72891915D01*
X157780500Y-72859225D01*
X157780500Y-72389996D01*
X178650255Y-72389996D01*
X178650255Y-72390003D01*
X178669220Y-72715611D01*
X178669221Y-72715622D01*
X178725853Y-73036801D01*
X178725856Y-73036812D01*
X178798332Y-73278899D01*
X179687233Y-72390000D01*
X179596128Y-72298895D01*
X180530000Y-72298895D01*
X180530000Y-72481105D01*
X180565547Y-72659813D01*
X180635275Y-72828152D01*
X180736505Y-72979653D01*
X180865347Y-73108495D01*
X181016848Y-73209725D01*
X181185187Y-73279453D01*
X181363895Y-73315000D01*
X181546105Y-73315000D01*
X181724813Y-73279453D01*
X181893152Y-73209725D01*
X182044653Y-73108495D01*
X182173495Y-72979653D01*
X182274725Y-72828152D01*
X182344453Y-72659813D01*
X182380000Y-72481105D01*
X182380000Y-72389999D01*
X183222767Y-72389999D01*
X183222767Y-72390000D01*
X184111666Y-73278899D01*
X184184143Y-73036813D01*
X184184146Y-73036802D01*
X184240778Y-72715622D01*
X184240779Y-72715611D01*
X184259745Y-72390003D01*
X184259745Y-72389996D01*
X184520255Y-72389996D01*
X184520255Y-72390003D01*
X184539220Y-72715611D01*
X184539221Y-72715622D01*
X184595853Y-73036801D01*
X184595856Y-73036812D01*
X184668332Y-73278899D01*
X185557233Y-72390000D01*
X185557233Y-72389999D01*
X185466129Y-72298895D01*
X186400000Y-72298895D01*
X186400000Y-72481105D01*
X186435547Y-72659813D01*
X186505275Y-72828152D01*
X186606505Y-72979653D01*
X186735347Y-73108495D01*
X186886848Y-73209725D01*
X187055187Y-73279453D01*
X187233895Y-73315000D01*
X187416105Y-73315000D01*
X187594813Y-73279453D01*
X187763152Y-73209725D01*
X187914653Y-73108495D01*
X188043495Y-72979653D01*
X188144725Y-72828152D01*
X188214453Y-72659813D01*
X188250000Y-72481105D01*
X188250000Y-72389999D01*
X189092767Y-72389999D01*
X189092767Y-72390000D01*
X189981666Y-73278899D01*
X190054143Y-73036813D01*
X190054146Y-73036802D01*
X190110778Y-72715622D01*
X190110779Y-72715611D01*
X190129745Y-72390003D01*
X190129745Y-72389996D01*
X190110779Y-72064388D01*
X190110778Y-72064377D01*
X190054146Y-71743197D01*
X190054143Y-71743186D01*
X189981666Y-71501099D01*
X189092767Y-72389999D01*
X188250000Y-72389999D01*
X188250000Y-72298895D01*
X188214453Y-72120187D01*
X188144725Y-71951848D01*
X188043495Y-71800347D01*
X187914653Y-71671505D01*
X187763152Y-71570275D01*
X187594813Y-71500547D01*
X187416105Y-71465000D01*
X187233895Y-71465000D01*
X187055187Y-71500547D01*
X186886848Y-71570275D01*
X186735347Y-71671505D01*
X186606505Y-71800347D01*
X186505275Y-71951848D01*
X186435547Y-72120187D01*
X186400000Y-72298895D01*
X185466129Y-72298895D01*
X184668332Y-71501099D01*
X184595856Y-71743187D01*
X184595853Y-71743198D01*
X184539221Y-72064377D01*
X184539220Y-72064388D01*
X184520255Y-72389996D01*
X184259745Y-72389996D01*
X184240779Y-72064388D01*
X184240778Y-72064377D01*
X184184146Y-71743197D01*
X184184143Y-71743186D01*
X184111666Y-71501099D01*
X183222767Y-72389999D01*
X182380000Y-72389999D01*
X182380000Y-72298895D01*
X182344453Y-72120187D01*
X182274725Y-71951848D01*
X182173495Y-71800347D01*
X182044653Y-71671505D01*
X181893152Y-71570275D01*
X181724813Y-71500547D01*
X181546105Y-71465000D01*
X181363895Y-71465000D01*
X181185187Y-71500547D01*
X181016848Y-71570275D01*
X180865347Y-71671505D01*
X180736505Y-71800347D01*
X180635275Y-71951848D01*
X180565547Y-72120187D01*
X180530000Y-72298895D01*
X179596128Y-72298895D01*
X178798332Y-71501099D01*
X178725856Y-71743187D01*
X178725853Y-71743198D01*
X178669221Y-72064377D01*
X178669220Y-72064388D01*
X178650255Y-72389996D01*
X157780500Y-72389996D01*
X157780500Y-71715439D01*
X157760020Y-71639009D01*
X157760017Y-71639004D01*
X157720464Y-71570495D01*
X157720458Y-71570487D01*
X157664512Y-71514541D01*
X157664504Y-71514535D01*
X157595995Y-71474982D01*
X157595990Y-71474979D01*
X157570513Y-71468152D01*
X157519562Y-71454500D01*
X156205916Y-71454500D01*
X156138877Y-71434815D01*
X156122964Y-71422668D01*
X154246333Y-69733700D01*
X180566468Y-69733700D01*
X180566468Y-69733701D01*
X181455000Y-70622233D01*
X181455001Y-70622233D01*
X182343530Y-69733701D01*
X182343530Y-69733700D01*
X186436468Y-69733700D01*
X186436468Y-69733701D01*
X187325000Y-70622233D01*
X187325001Y-70622233D01*
X188213530Y-69733701D01*
X188213530Y-69733700D01*
X188129422Y-69703088D01*
X188129401Y-69703081D01*
X187812054Y-69627867D01*
X187812039Y-69627865D01*
X187488074Y-69590000D01*
X187161926Y-69590000D01*
X186837961Y-69627865D01*
X186520587Y-69703084D01*
X186436468Y-69733700D01*
X182343530Y-69733700D01*
X182259422Y-69703088D01*
X182259401Y-69703081D01*
X181942054Y-69627867D01*
X181942039Y-69627865D01*
X181618074Y-69590000D01*
X181291926Y-69590000D01*
X180967961Y-69627865D01*
X180650587Y-69703084D01*
X180566468Y-69733700D01*
X154246333Y-69733700D01*
X153626996Y-69176297D01*
X180566467Y-69176297D01*
X180566467Y-69176298D01*
X180650577Y-69206911D01*
X180650598Y-69206918D01*
X180967945Y-69282132D01*
X180967960Y-69282134D01*
X181291925Y-69319999D01*
X181291926Y-69320000D01*
X181618074Y-69320000D01*
X181618074Y-69319999D01*
X181942039Y-69282134D01*
X181942054Y-69282132D01*
X182259411Y-69206915D01*
X182343531Y-69176297D01*
X186436467Y-69176297D01*
X186436467Y-69176298D01*
X186520577Y-69206911D01*
X186520598Y-69206918D01*
X186837945Y-69282132D01*
X186837960Y-69282134D01*
X187161925Y-69319999D01*
X187161926Y-69320000D01*
X187488074Y-69320000D01*
X187488074Y-69319999D01*
X187812039Y-69282134D01*
X187812054Y-69282132D01*
X188129411Y-69206915D01*
X188213531Y-69176297D01*
X187325000Y-68287767D01*
X186436467Y-69176297D01*
X182343531Y-69176297D01*
X181455000Y-68287767D01*
X180566467Y-69176297D01*
X153626996Y-69176297D01*
X153096641Y-68698977D01*
X166896680Y-68698977D01*
X167089222Y-68770792D01*
X167361769Y-68830080D01*
X167361776Y-68830081D01*
X167639999Y-68849981D01*
X167640001Y-68849981D01*
X167918223Y-68830081D01*
X167918230Y-68830080D01*
X168190774Y-68770792D01*
X168383318Y-68698977D01*
X167640000Y-67955660D01*
X166896680Y-68698977D01*
X153096641Y-68698977D01*
X151092220Y-66894998D01*
X165685019Y-66894998D01*
X165685019Y-66895001D01*
X165704918Y-67173223D01*
X165704919Y-67173230D01*
X165764207Y-67445777D01*
X165836021Y-67638318D01*
X166579340Y-66895000D01*
X166579340Y-66894999D01*
X166513515Y-66829174D01*
X167140000Y-66829174D01*
X167140000Y-66960826D01*
X167174075Y-67087993D01*
X167239901Y-67202007D01*
X167332993Y-67295099D01*
X167447007Y-67360925D01*
X167574174Y-67395000D01*
X167705826Y-67395000D01*
X167832993Y-67360925D01*
X167947007Y-67295099D01*
X168040099Y-67202007D01*
X168105925Y-67087993D01*
X168140000Y-66960826D01*
X168140000Y-66894999D01*
X168700660Y-66894999D01*
X168700660Y-66895001D01*
X169443977Y-67638318D01*
X169515792Y-67445774D01*
X169575080Y-67173230D01*
X169575081Y-67173223D01*
X169594981Y-66895001D01*
X169594981Y-66894998D01*
X169575081Y-66616776D01*
X169575080Y-66616769D01*
X169554029Y-66519996D01*
X178650255Y-66519996D01*
X178650255Y-66520003D01*
X178669220Y-66845611D01*
X178669221Y-66845622D01*
X178725853Y-67166801D01*
X178725856Y-67166812D01*
X178798332Y-67408899D01*
X179687233Y-66520000D01*
X179687233Y-66519999D01*
X179596129Y-66428895D01*
X180530000Y-66428895D01*
X180530000Y-66611105D01*
X180565547Y-66789813D01*
X180635275Y-66958152D01*
X180736505Y-67109653D01*
X180865347Y-67238495D01*
X181016848Y-67339725D01*
X181185187Y-67409453D01*
X181363895Y-67445000D01*
X181546105Y-67445000D01*
X181724813Y-67409453D01*
X181893152Y-67339725D01*
X182044653Y-67238495D01*
X182173495Y-67109653D01*
X182274725Y-66958152D01*
X182344453Y-66789813D01*
X182380000Y-66611105D01*
X182380000Y-66519999D01*
X183222767Y-66519999D01*
X183222767Y-66520000D01*
X184111666Y-67408899D01*
X184184143Y-67166813D01*
X184184146Y-67166802D01*
X184240778Y-66845622D01*
X184240779Y-66845611D01*
X184259745Y-66520003D01*
X184259745Y-66519996D01*
X184520255Y-66519996D01*
X184520255Y-66520003D01*
X184539220Y-66845611D01*
X184539221Y-66845622D01*
X184595853Y-67166801D01*
X184595856Y-67166812D01*
X184668332Y-67408899D01*
X185557233Y-66520000D01*
X185466128Y-66428895D01*
X186400000Y-66428895D01*
X186400000Y-66611105D01*
X186435547Y-66789813D01*
X186505275Y-66958152D01*
X186606505Y-67109653D01*
X186735347Y-67238495D01*
X186886848Y-67339725D01*
X187055187Y-67409453D01*
X187233895Y-67445000D01*
X187416105Y-67445000D01*
X187594813Y-67409453D01*
X187763152Y-67339725D01*
X187914653Y-67238495D01*
X188043495Y-67109653D01*
X188144725Y-66958152D01*
X188214453Y-66789813D01*
X188250000Y-66611105D01*
X188250000Y-66519999D01*
X189092767Y-66519999D01*
X189092767Y-66520000D01*
X189981666Y-67408899D01*
X190054143Y-67166813D01*
X190054146Y-67166802D01*
X190110778Y-66845622D01*
X190110779Y-66845611D01*
X190129745Y-66520003D01*
X190129745Y-66519996D01*
X190110779Y-66194388D01*
X190110778Y-66194377D01*
X190054146Y-65873197D01*
X190054143Y-65873186D01*
X189981666Y-65631099D01*
X189092767Y-66519999D01*
X188250000Y-66519999D01*
X188250000Y-66428895D01*
X188214453Y-66250187D01*
X188144725Y-66081848D01*
X188043495Y-65930347D01*
X187914653Y-65801505D01*
X187763152Y-65700275D01*
X187594813Y-65630547D01*
X187416105Y-65595000D01*
X187233895Y-65595000D01*
X187055187Y-65630547D01*
X186886848Y-65700275D01*
X186735347Y-65801505D01*
X186606505Y-65930347D01*
X186505275Y-66081848D01*
X186435547Y-66250187D01*
X186400000Y-66428895D01*
X185466128Y-66428895D01*
X184668332Y-65631099D01*
X184595856Y-65873187D01*
X184595853Y-65873198D01*
X184539221Y-66194377D01*
X184539220Y-66194388D01*
X184520255Y-66519996D01*
X184259745Y-66519996D01*
X184240779Y-66194388D01*
X184240778Y-66194377D01*
X184184146Y-65873197D01*
X184184143Y-65873186D01*
X184111666Y-65631099D01*
X183222767Y-66519999D01*
X182380000Y-66519999D01*
X182380000Y-66428895D01*
X182344453Y-66250187D01*
X182274725Y-66081848D01*
X182173495Y-65930347D01*
X182044653Y-65801505D01*
X181893152Y-65700275D01*
X181724813Y-65630547D01*
X181546105Y-65595000D01*
X181363895Y-65595000D01*
X181185187Y-65630547D01*
X181016848Y-65700275D01*
X180865347Y-65801505D01*
X180736505Y-65930347D01*
X180635275Y-66081848D01*
X180565547Y-66250187D01*
X180530000Y-66428895D01*
X179596129Y-66428895D01*
X178798332Y-65631099D01*
X178725856Y-65873187D01*
X178725853Y-65873198D01*
X178669221Y-66194377D01*
X178669220Y-66194388D01*
X178650255Y-66519996D01*
X169554029Y-66519996D01*
X169515792Y-66344222D01*
X169443977Y-66151680D01*
X168700660Y-66894999D01*
X168140000Y-66894999D01*
X168140000Y-66829174D01*
X168105925Y-66702007D01*
X168040099Y-66587993D01*
X167947007Y-66494901D01*
X167832993Y-66429075D01*
X167705826Y-66395000D01*
X167574174Y-66395000D01*
X167447007Y-66429075D01*
X167332993Y-66494901D01*
X167239901Y-66587993D01*
X167174075Y-66702007D01*
X167140000Y-66829174D01*
X166513515Y-66829174D01*
X165836021Y-66151681D01*
X165764208Y-66344218D01*
X165704919Y-66616769D01*
X165704918Y-66616776D01*
X165685019Y-66894998D01*
X151092220Y-66894998D01*
X149087802Y-65091021D01*
X166896681Y-65091021D01*
X167640000Y-65834340D01*
X167640001Y-65834340D01*
X168383318Y-65091021D01*
X168190777Y-65019207D01*
X167918230Y-64959919D01*
X167918223Y-64959918D01*
X167640001Y-64940019D01*
X167639999Y-64940019D01*
X167361776Y-64959918D01*
X167361769Y-64959919D01*
X167089218Y-65019208D01*
X166896681Y-65091021D01*
X149087802Y-65091021D01*
X147724112Y-63863700D01*
X180566468Y-63863700D01*
X180566468Y-63863701D01*
X181455000Y-64752233D01*
X181455001Y-64752233D01*
X182343530Y-63863701D01*
X182343530Y-63863700D01*
X186436468Y-63863700D01*
X186436468Y-63863701D01*
X187325000Y-64752233D01*
X187325001Y-64752233D01*
X188213530Y-63863701D01*
X188213530Y-63863700D01*
X188129422Y-63833088D01*
X188129401Y-63833081D01*
X187812054Y-63757867D01*
X187812039Y-63757865D01*
X187488074Y-63720000D01*
X187161926Y-63720000D01*
X186837961Y-63757865D01*
X186520587Y-63833084D01*
X186436468Y-63863700D01*
X182343530Y-63863700D01*
X182259422Y-63833088D01*
X182259401Y-63833081D01*
X181942054Y-63757867D01*
X181942039Y-63757865D01*
X181618074Y-63720000D01*
X181291926Y-63720000D01*
X180967961Y-63757865D01*
X180650587Y-63833084D01*
X180566468Y-63863700D01*
X147724112Y-63863700D01*
X147320001Y-63500000D01*
X147320000Y-63500000D01*
X147320000Y-60914067D01*
X175450001Y-60914067D01*
X175456415Y-61006491D01*
X175456417Y-61006507D01*
X175507330Y-61222975D01*
X175507336Y-61222991D01*
X175597160Y-61426424D01*
X175722843Y-61609899D01*
X175880100Y-61767156D01*
X176063575Y-61892839D01*
X176267008Y-61982663D01*
X176267024Y-61982669D01*
X176483491Y-62033582D01*
X176483507Y-62033584D01*
X176575930Y-62039999D01*
X178950000Y-62039999D01*
X179024068Y-62039999D01*
X179116491Y-62033584D01*
X179116507Y-62033582D01*
X179332975Y-61982669D01*
X179332991Y-61982663D01*
X179536424Y-61892839D01*
X179719899Y-61767156D01*
X179877156Y-61609899D01*
X180002839Y-61426424D01*
X180092663Y-61222991D01*
X180092669Y-61222975D01*
X180143582Y-61006508D01*
X180143584Y-61006492D01*
X180150000Y-60914068D01*
X180150000Y-60840000D01*
X178950000Y-60840000D01*
X178950000Y-62039999D01*
X176575930Y-62039999D01*
X176649999Y-62039998D01*
X176650000Y-62039998D01*
X176650000Y-60840000D01*
X175450001Y-60840000D01*
X175450001Y-60914067D01*
X147320000Y-60914067D01*
X147320000Y-59624174D01*
X177300000Y-59624174D01*
X177300000Y-59755826D01*
X177334075Y-59882993D01*
X177399901Y-59997007D01*
X177492993Y-60090099D01*
X177607007Y-60155925D01*
X177734174Y-60190000D01*
X177865826Y-60190000D01*
X177992993Y-60155925D01*
X178107007Y-60090099D01*
X178200099Y-59997007D01*
X178265925Y-59882993D01*
X178300000Y-59755826D01*
X178300000Y-59624174D01*
X178265925Y-59497007D01*
X178200099Y-59382993D01*
X178107007Y-59289901D01*
X177992993Y-59224075D01*
X177865826Y-59190000D01*
X177734174Y-59190000D01*
X177607007Y-59224075D01*
X177492993Y-59289901D01*
X177399901Y-59382993D01*
X177334075Y-59497007D01*
X177300000Y-59624174D01*
X147320000Y-59624174D01*
X147320000Y-58465931D01*
X175450000Y-58465931D01*
X175450000Y-58540000D01*
X176650000Y-58540000D01*
X178950000Y-58540000D01*
X180149999Y-58540000D01*
X180149999Y-58465932D01*
X180143584Y-58373508D01*
X180143582Y-58373492D01*
X180092669Y-58157024D01*
X180092663Y-58157008D01*
X180002839Y-57953575D01*
X179877156Y-57770100D01*
X179719899Y-57612843D01*
X179536424Y-57487160D01*
X179332991Y-57397336D01*
X179332975Y-57397330D01*
X179116508Y-57346417D01*
X179116492Y-57346415D01*
X179024069Y-57340000D01*
X178950000Y-57340000D01*
X178950000Y-58540000D01*
X176650000Y-58540000D01*
X176650000Y-57340000D01*
X176649999Y-57339999D01*
X176575932Y-57340000D01*
X176483508Y-57346415D01*
X176483492Y-57346417D01*
X176267024Y-57397330D01*
X176267008Y-57397336D01*
X176063575Y-57487160D01*
X175880100Y-57612843D01*
X175722843Y-57770100D01*
X175597160Y-57953575D01*
X175507336Y-58157008D01*
X175507330Y-58157024D01*
X175456417Y-58373491D01*
X175456415Y-58373507D01*
X175450000Y-58465931D01*
X147320000Y-58465931D01*
X147320000Y-48260000D01*
X180293408Y-48260000D01*
X180360447Y-48279685D01*
G37*
G04 #@! TD.AperFunction*
G04 #@! TA.AperFunction,Conductor*
G36*
X147278039Y-94935185D02*
G01*
X147323794Y-94987989D01*
X147335000Y-95039500D01*
X147335000Y-107189000D01*
X147315315Y-107256039D01*
X147262511Y-107301794D01*
X147211000Y-107313000D01*
X133034451Y-107313000D01*
X132974471Y-107297528D01*
X132835833Y-107220906D01*
X132503724Y-107083341D01*
X132503720Y-107083339D01*
X132503718Y-107083339D01*
X132158305Y-106983828D01*
X132158296Y-106983826D01*
X131803914Y-106923614D01*
X131803902Y-106923612D01*
X131445000Y-106903457D01*
X131086097Y-106923612D01*
X131086085Y-106923614D01*
X130731703Y-106983826D01*
X130731694Y-106983828D01*
X130386281Y-107083339D01*
X130054168Y-107220905D01*
X130018694Y-107240511D01*
X129915528Y-107297528D01*
X129855549Y-107313000D01*
X128409000Y-107313000D01*
X128341961Y-107293315D01*
X128296206Y-107240511D01*
X128285000Y-107189000D01*
X128285000Y-101724000D01*
X128304685Y-101656961D01*
X128357489Y-101611206D01*
X128409000Y-101600000D01*
X129294759Y-101600000D01*
X129361798Y-101619685D01*
X129377386Y-101631540D01*
X129446377Y-101693194D01*
X129739548Y-101901211D01*
X130054167Y-102075094D01*
X130386276Y-102212659D01*
X130731700Y-102312173D01*
X131086093Y-102372387D01*
X131445000Y-102392543D01*
X131803907Y-102372387D01*
X132158300Y-102312173D01*
X132503724Y-102212659D01*
X132835833Y-102075094D01*
X133150452Y-101901211D01*
X133443623Y-101693194D01*
X133711661Y-101453661D01*
X133951194Y-101185623D01*
X134159211Y-100892452D01*
X134333094Y-100577833D01*
X134470659Y-100245724D01*
X134570173Y-99900300D01*
X134630387Y-99545907D01*
X134650543Y-99187000D01*
X134630387Y-98828093D01*
X134624939Y-98796031D01*
X134633115Y-98726645D01*
X134644005Y-98706492D01*
X136450298Y-95997051D01*
X137134523Y-94970717D01*
X137188088Y-94925856D01*
X137237697Y-94915500D01*
X147211000Y-94915500D01*
X147278039Y-94935185D01*
G37*
G04 #@! TD.AperFunction*
G04 #@! TA.AperFunction,Conductor*
G36*
X149860000Y-63500000D02*
G01*
X132781056Y-63500000D01*
X132733604Y-63490561D01*
X132503724Y-63395341D01*
X132503720Y-63395339D01*
X132503718Y-63395339D01*
X132158305Y-63295828D01*
X132158296Y-63295826D01*
X131803914Y-63235614D01*
X131803902Y-63235612D01*
X131445000Y-63215457D01*
X131086097Y-63235612D01*
X131086085Y-63235614D01*
X130731703Y-63295826D01*
X130731694Y-63295828D01*
X130386281Y-63395339D01*
X130386276Y-63395340D01*
X130386276Y-63395341D01*
X130156395Y-63490561D01*
X130108944Y-63500000D01*
X128394000Y-63500000D01*
X128326961Y-63480315D01*
X128281206Y-63427511D01*
X128270000Y-63376000D01*
X128270000Y-58971231D01*
X128289685Y-58904192D01*
X128306319Y-58883550D01*
X128733550Y-58456319D01*
X128794873Y-58422834D01*
X128821231Y-58420000D01*
X130108944Y-58420000D01*
X130156395Y-58429438D01*
X130386276Y-58524659D01*
X130731700Y-58624173D01*
X131086093Y-58684387D01*
X131445000Y-58704543D01*
X131803907Y-58684387D01*
X132158300Y-58624173D01*
X132503724Y-58524659D01*
X132835833Y-58387094D01*
X133150452Y-58213211D01*
X133443623Y-58005194D01*
X133711661Y-57765661D01*
X133951194Y-57497623D01*
X134159211Y-57204452D01*
X134315344Y-56921947D01*
X134338875Y-56891646D01*
X143378250Y-48384000D01*
X143474191Y-48293703D01*
X143536500Y-48262091D01*
X143559176Y-48260000D01*
X149860000Y-48260000D01*
X149860000Y-63500000D01*
G37*
G04 #@! TD.AperFunction*
M02*
