G04 #@! TF.GenerationSoftware,KiCad,Pcbnew,8.0.5*
G04 #@! TF.CreationDate,2024-10-07T10:06:27+09:00*
G04 #@! TF.ProjectId,doublepulse,646f7562-6c65-4707-956c-73652e6b6963,rev?*
G04 #@! TF.SameCoordinates,Original*
G04 #@! TF.FileFunction,Copper,L1,Top*
G04 #@! TF.FilePolarity,Positive*
%FSLAX46Y46*%
G04 Gerber Fmt 4.6, Leading zero omitted, Abs format (unit mm)*
G04 Created by KiCad (PCBNEW 8.0.5) date 2024-10-07 10:06:27*
%MOMM*%
%LPD*%
G01*
G04 APERTURE LIST*
G04 Aperture macros list*
%AMRoundRect*
0 Rectangle with rounded corners*
0 $1 Rounding radius*
0 $2 $3 $4 $5 $6 $7 $8 $9 X,Y pos of 4 corners*
0 Add a 4 corners polygon primitive as box body*
4,1,4,$2,$3,$4,$5,$6,$7,$8,$9,$2,$3,0*
0 Add four circle primitives for the rounded corners*
1,1,$1+$1,$2,$3*
1,1,$1+$1,$4,$5*
1,1,$1+$1,$6,$7*
1,1,$1+$1,$8,$9*
0 Add four rect primitives between the rounded corners*
20,1,$1+$1,$2,$3,$4,$5,0*
20,1,$1+$1,$4,$5,$6,$7,0*
20,1,$1+$1,$6,$7,$8,$9,0*
20,1,$1+$1,$8,$9,$2,$3,0*%
G04 Aperture macros list end*
G04 #@! TA.AperFunction,ComponentPad*
%ADD10R,1.500000X1.500000*%
G04 #@! TD*
G04 #@! TA.AperFunction,ComponentPad*
%ADD11C,1.500000*%
G04 #@! TD*
G04 #@! TA.AperFunction,SMDPad,CuDef*
%ADD12RoundRect,0.250000X-0.337500X-0.475000X0.337500X-0.475000X0.337500X0.475000X-0.337500X0.475000X0*%
G04 #@! TD*
G04 #@! TA.AperFunction,ComponentPad*
%ADD13R,2.300000X2.300000*%
G04 #@! TD*
G04 #@! TA.AperFunction,ComponentPad*
%ADD14C,3.200000*%
G04 #@! TD*
G04 #@! TA.AperFunction,ComponentPad*
%ADD15O,2.500000X1.600000*%
G04 #@! TD*
G04 #@! TA.AperFunction,ComponentPad*
%ADD16O,7.000000X3.500000*%
G04 #@! TD*
G04 #@! TA.AperFunction,SMDPad,CuDef*
%ADD17R,1.700000X0.850000*%
G04 #@! TD*
G04 #@! TA.AperFunction,ComponentPad*
%ADD18R,2.900000X2.900000*%
G04 #@! TD*
G04 #@! TA.AperFunction,ComponentPad*
%ADD19C,3.000000*%
G04 #@! TD*
G04 #@! TA.AperFunction,ComponentPad*
%ADD20C,1.800000*%
G04 #@! TD*
G04 #@! TA.AperFunction,ComponentPad*
%ADD21C,1.400000*%
G04 #@! TD*
G04 #@! TA.AperFunction,SMDPad,CuDef*
%ADD22RoundRect,0.250000X0.400000X0.625000X-0.400000X0.625000X-0.400000X-0.625000X0.400000X-0.625000X0*%
G04 #@! TD*
G04 #@! TA.AperFunction,ComponentPad*
%ADD23C,4.000000*%
G04 #@! TD*
G04 #@! TA.AperFunction,SMDPad,CuDef*
%ADD24RoundRect,0.250000X0.337500X0.475000X-0.337500X0.475000X-0.337500X-0.475000X0.337500X-0.475000X0*%
G04 #@! TD*
G04 #@! TA.AperFunction,ViaPad*
%ADD25C,0.800000*%
G04 #@! TD*
G04 #@! TA.AperFunction,ViaPad*
%ADD26C,0.600000*%
G04 #@! TD*
G04 #@! TA.AperFunction,Conductor*
%ADD27C,1.000000*%
G04 #@! TD*
G04 #@! TA.AperFunction,Conductor*
%ADD28C,0.500000*%
G04 #@! TD*
G04 #@! TA.AperFunction,Conductor*
%ADD29C,0.800000*%
G04 #@! TD*
G04 APERTURE END LIST*
D10*
X166370000Y-99475000D03*
D11*
X166370000Y-71975000D03*
D12*
X110087500Y-90805000D03*
X112162500Y-90805000D03*
D13*
X162560000Y-59690000D03*
D14*
X182485000Y-73265000D03*
X182485000Y-79135000D03*
X188355000Y-73265000D03*
X188355000Y-79135000D03*
D15*
X93980000Y-94615000D03*
D16*
X88900000Y-99695000D03*
D15*
X93980000Y-97155000D03*
D16*
X88900000Y-89535000D03*
D14*
X182245000Y-91680000D03*
X182245000Y-97550000D03*
X188115000Y-91680000D03*
X188115000Y-97550000D03*
D17*
X110315000Y-93345000D03*
X110315000Y-94615000D03*
X110315000Y-95885000D03*
X110315000Y-97155000D03*
X104315000Y-97155000D03*
X104315000Y-95885000D03*
X104315000Y-94615000D03*
X104315000Y-93345000D03*
D18*
X179070000Y-63754000D03*
D19*
X175110000Y-63754000D03*
D20*
X98425000Y-59690000D03*
X95925000Y-59690000D03*
D13*
X139700000Y-99060000D03*
D21*
X123825000Y-99695000D03*
X122555000Y-98425000D03*
X122555000Y-100965000D03*
X125095000Y-98425000D03*
X125095000Y-100965000D03*
D12*
X110087500Y-88265000D03*
X112162500Y-88265000D03*
D22*
X120930001Y-95250000D03*
X117829999Y-95250000D03*
D13*
X139700000Y-106680000D03*
X169545000Y-59690000D03*
D21*
X114935000Y-99695000D03*
X113665000Y-98425000D03*
X113665000Y-100965000D03*
X116205000Y-98425000D03*
X116205000Y-100965000D03*
D20*
X110490000Y-59690000D03*
X107990000Y-59690000D03*
D23*
X131445000Y-95250000D03*
X131445000Y-100711000D03*
X131445000Y-106172000D03*
D13*
X116840000Y-91440000D03*
D24*
X105177500Y-88265000D03*
X103102500Y-88265000D03*
X105177500Y-90805000D03*
X103102500Y-90805000D03*
D23*
X131445000Y-60579000D03*
X131445000Y-66040000D03*
X131445000Y-71501000D03*
D25*
X113665000Y-90805000D03*
X110490000Y-98425000D03*
X113665000Y-88265000D03*
X108585000Y-97155000D03*
D26*
X102870000Y-95885000D03*
X101600000Y-90805000D03*
X101600000Y-88265000D03*
D27*
X127000000Y-63500000D02*
X127000000Y-68580000D01*
X129921000Y-60579000D02*
X127000000Y-63500000D01*
X131445000Y-60579000D02*
X129921000Y-60579000D01*
X127000000Y-68580000D02*
X129921000Y-71501000D01*
X127000000Y-66040000D02*
X127000000Y-68580000D01*
D28*
X105877000Y-94447000D02*
X105727500Y-94297500D01*
X105242000Y-97155000D02*
X105877000Y-96520000D01*
X104315000Y-97155000D02*
X105242000Y-97155000D01*
X105877000Y-96520000D02*
X105877000Y-94447000D01*
D29*
X105177500Y-88265000D02*
X105177500Y-90805000D01*
X105410000Y-94615000D02*
X106045000Y-93980000D01*
X106045000Y-93980000D02*
X106045000Y-91672500D01*
X105177500Y-88265000D02*
X105177500Y-86722500D01*
X104315000Y-94615000D02*
X105410000Y-94615000D01*
X105177500Y-86722500D02*
X98425000Y-79970000D01*
X106045000Y-91672500D02*
X105177500Y-90805000D01*
X98425000Y-79970000D02*
X98425000Y-59690000D01*
D27*
X110490000Y-87862500D02*
X110087500Y-88265000D01*
X110087500Y-93117500D02*
X110315000Y-93345000D01*
X110490000Y-59690000D02*
X110490000Y-87862500D01*
X110087500Y-90805000D02*
X110087500Y-93117500D01*
X110087500Y-88265000D02*
X110087500Y-90805000D01*
X112162500Y-88265000D02*
X112162500Y-90805000D01*
X110490000Y-97330000D02*
X110315000Y-97155000D01*
X113665000Y-88265000D02*
X112162500Y-88265000D01*
X108585000Y-97155000D02*
X110315000Y-97155000D01*
X110490000Y-98425000D02*
X110490000Y-97330000D01*
X113665000Y-90805000D02*
X112162500Y-90805000D01*
D28*
X95250000Y-93345000D02*
X104315000Y-93345000D01*
X93980000Y-94615000D02*
X95250000Y-93345000D01*
D27*
X114300000Y-95250000D02*
X110950000Y-95250000D01*
X110950000Y-95250000D02*
X110315000Y-95885000D01*
D28*
X114935000Y-99695000D02*
X114935000Y-95885000D01*
D27*
X117829999Y-95250000D02*
X114300000Y-95250000D01*
X110315000Y-94615000D02*
X110315000Y-95885000D01*
D28*
X114935000Y-95885000D02*
X114300000Y-95250000D01*
D27*
X110950000Y-95250000D02*
X110315000Y-94615000D01*
D28*
X102870000Y-95885000D02*
X104315000Y-95885000D01*
X103102500Y-88265000D02*
X103102500Y-90805000D01*
X101600000Y-88265000D02*
X103102500Y-88265000D01*
X101600000Y-90805000D02*
X103102500Y-90805000D01*
X123190000Y-95250000D02*
X120930001Y-95250000D01*
X123825000Y-95885000D02*
X124460000Y-95250000D01*
X123825000Y-99695000D02*
X123825000Y-95885000D01*
D27*
X124460000Y-95250000D02*
X131445000Y-95250000D01*
X120930001Y-95250000D02*
X124460000Y-95250000D01*
G04 #@! TA.AperFunction,Conductor*
G36*
X162226489Y-56835185D02*
G01*
X162249058Y-56853788D01*
X173749436Y-68876911D01*
X173749436Y-68876910D01*
X173749437Y-68876911D01*
X173355000Y-69215000D01*
X178435000Y-74295000D01*
X181595636Y-71134363D01*
X191345816Y-71158931D01*
X191412802Y-71178784D01*
X191458424Y-71231703D01*
X191469500Y-71282930D01*
X191469500Y-82426000D01*
X191449815Y-82493039D01*
X191397011Y-82538794D01*
X191345500Y-82550000D01*
X173406362Y-82550000D01*
X173339323Y-82530315D01*
X173318681Y-82513681D01*
X158451819Y-67646819D01*
X158418334Y-67585496D01*
X158415500Y-67559138D01*
X158415500Y-60666439D01*
X158395020Y-60590009D01*
X158395017Y-60590004D01*
X158355464Y-60521495D01*
X158355458Y-60521487D01*
X158299512Y-60465541D01*
X158299504Y-60465535D01*
X158230995Y-60425982D01*
X158230990Y-60425979D01*
X158205513Y-60419152D01*
X158154562Y-60405500D01*
X141009562Y-60405500D01*
X140930438Y-60405500D01*
X140892224Y-60415739D01*
X140854009Y-60425979D01*
X140854004Y-60425982D01*
X140785495Y-60465535D01*
X140785487Y-60465541D01*
X140729541Y-60521487D01*
X140729535Y-60521495D01*
X140689982Y-60590004D01*
X140689979Y-60590009D01*
X140669500Y-60666439D01*
X140669500Y-65085706D01*
X140649815Y-65152745D01*
X140640759Y-65165089D01*
X137832181Y-68535383D01*
X137774142Y-68574282D01*
X137736922Y-68580000D01*
X133410978Y-68580000D01*
X133343939Y-68560315D01*
X133343443Y-68559995D01*
X133197656Y-68465320D01*
X132870739Y-68298746D01*
X132528206Y-68167260D01*
X132528199Y-68167258D01*
X132173794Y-68072295D01*
X132173790Y-68072294D01*
X132173789Y-68072294D01*
X131811405Y-68014898D01*
X131445001Y-67995696D01*
X131444999Y-67995696D01*
X131078594Y-68014898D01*
X130953398Y-68034727D01*
X130884104Y-68025772D01*
X130830652Y-67980776D01*
X130810013Y-67914024D01*
X130810000Y-67912254D01*
X130810000Y-64167745D01*
X130829685Y-64100706D01*
X130882489Y-64054951D01*
X130951647Y-64045007D01*
X130953318Y-64045259D01*
X131078596Y-64065102D01*
X131424734Y-64083241D01*
X131444999Y-64084304D01*
X131445000Y-64084304D01*
X131445001Y-64084304D01*
X131464203Y-64083297D01*
X131811404Y-64065102D01*
X132173794Y-64007705D01*
X132528199Y-63912742D01*
X132870736Y-63781255D01*
X133197652Y-63614682D01*
X133505366Y-63414851D01*
X133790506Y-63183949D01*
X134049949Y-62924506D01*
X134280851Y-62639366D01*
X134480682Y-62331652D01*
X134647255Y-62004736D01*
X134778742Y-61662199D01*
X134852844Y-61385645D01*
X134884933Y-61330066D01*
X139363181Y-56851819D01*
X139424504Y-56818334D01*
X139450862Y-56815500D01*
X162159450Y-56815500D01*
X162226489Y-56835185D01*
G37*
G04 #@! TD.AperFunction*
G04 #@! TA.AperFunction,Conductor*
G36*
X140350677Y-70504685D02*
G01*
X140371319Y-70521319D01*
X140633181Y-70783181D01*
X140666666Y-70844504D01*
X140669500Y-70870862D01*
X140669500Y-71159562D01*
X140683152Y-71210513D01*
X140689979Y-71235990D01*
X140689982Y-71235995D01*
X140729535Y-71304504D01*
X140729539Y-71304509D01*
X140729540Y-71304511D01*
X140785489Y-71360460D01*
X140785491Y-71360461D01*
X140785495Y-71360464D01*
X140854004Y-71400017D01*
X140854011Y-71400021D01*
X140930438Y-71420500D01*
X140930440Y-71420500D01*
X156459138Y-71420500D01*
X156526177Y-71440185D01*
X156546819Y-71456819D01*
X171450000Y-86360000D01*
X191345500Y-86360000D01*
X191412539Y-86379685D01*
X191458294Y-86432489D01*
X191469500Y-86484000D01*
X191469500Y-101476000D01*
X191449815Y-101543039D01*
X191397011Y-101588794D01*
X191345500Y-101600000D01*
X172136362Y-101600000D01*
X172069323Y-101580315D01*
X172048681Y-101563681D01*
X168371423Y-97886423D01*
X168352581Y-97862215D01*
X168345366Y-97850106D01*
X168260951Y-97750438D01*
X168184650Y-97660349D01*
X168184649Y-97660348D01*
X167994900Y-97499638D01*
X167994895Y-97499635D01*
X167994894Y-97499634D01*
X167982778Y-97492414D01*
X167958575Y-97473575D01*
X167640000Y-97155000D01*
X158750000Y-97155000D01*
X141605000Y-97155000D01*
X141605000Y-97383751D01*
X141585315Y-97450790D01*
X141532511Y-97496545D01*
X141513096Y-97503525D01*
X141489013Y-97509978D01*
X141489004Y-97509982D01*
X141420495Y-97549535D01*
X141420487Y-97549541D01*
X141364541Y-97605487D01*
X141364535Y-97605495D01*
X141324982Y-97674004D01*
X141324979Y-97674009D01*
X141304500Y-97750439D01*
X141304500Y-103381000D01*
X141284815Y-103448039D01*
X141232011Y-103493794D01*
X141180500Y-103505000D01*
X133757790Y-103505000D01*
X133690751Y-103485315D01*
X133679754Y-103477366D01*
X133505366Y-103336149D01*
X133505363Y-103336147D01*
X133505358Y-103336143D01*
X133197656Y-103136320D01*
X132870739Y-102969746D01*
X132528206Y-102838260D01*
X132528199Y-102838258D01*
X132173794Y-102743295D01*
X132173790Y-102743294D01*
X132173789Y-102743294D01*
X131811405Y-102685898D01*
X131445001Y-102666696D01*
X131444999Y-102666696D01*
X131078594Y-102685898D01*
X130953398Y-102705727D01*
X130884104Y-102696772D01*
X130830652Y-102651776D01*
X130810013Y-102585024D01*
X130810000Y-102583254D01*
X130810000Y-98838745D01*
X130829685Y-98771706D01*
X130882489Y-98725951D01*
X130951647Y-98716007D01*
X130953318Y-98716259D01*
X131078596Y-98736102D01*
X131424734Y-98754241D01*
X131444999Y-98755304D01*
X131445000Y-98755304D01*
X131445001Y-98755304D01*
X131464203Y-98754297D01*
X131811404Y-98736102D01*
X132173794Y-98678705D01*
X132528199Y-98583742D01*
X132870736Y-98452255D01*
X133197652Y-98285682D01*
X133505366Y-98085851D01*
X133790506Y-97854949D01*
X134049949Y-97595506D01*
X134280851Y-97310366D01*
X134480682Y-97002652D01*
X134647255Y-96675736D01*
X134778742Y-96333199D01*
X134873705Y-95978794D01*
X134931102Y-95616404D01*
X134950304Y-95250000D01*
X134931102Y-94883596D01*
X134873705Y-94521206D01*
X134778742Y-94166801D01*
X134647255Y-93824264D01*
X134480682Y-93497348D01*
X134386034Y-93351602D01*
X134280852Y-93189635D01*
X134049952Y-92904498D01*
X134049949Y-92904494D01*
X133790506Y-92645051D01*
X133505366Y-92414149D01*
X133505364Y-92414147D01*
X133197656Y-92214320D01*
X132870739Y-92047746D01*
X132598344Y-91943184D01*
X132555101Y-91915101D01*
X128941319Y-88301319D01*
X128907834Y-88239996D01*
X128905000Y-88213638D01*
X128905000Y-70609000D01*
X128924685Y-70541961D01*
X128977489Y-70496206D01*
X129029000Y-70485000D01*
X140283638Y-70485000D01*
X140350677Y-70504685D01*
G37*
G04 #@! TD.AperFunction*
G04 #@! TA.AperFunction,Conductor*
G36*
X183458039Y-60344685D02*
G01*
X183503794Y-60397489D01*
X183515000Y-60449000D01*
X183515000Y-69163637D01*
X183495315Y-69230676D01*
X183478681Y-69251318D01*
X181595636Y-71134362D01*
X181595636Y-71134363D01*
X178435000Y-74295000D01*
X173355000Y-69215000D01*
X177800000Y-65405000D01*
X177800000Y-65118977D01*
X177810141Y-65069863D01*
X177934326Y-64781971D01*
X178034569Y-64447136D01*
X178095262Y-64102927D01*
X178115585Y-63754000D01*
X178095262Y-63405073D01*
X178095260Y-63405061D01*
X178034571Y-63060872D01*
X178034569Y-63060865D01*
X177934325Y-62726027D01*
X177810141Y-62438135D01*
X177800000Y-62389021D01*
X177800000Y-60449000D01*
X177819685Y-60381961D01*
X177872489Y-60336206D01*
X177924000Y-60325000D01*
X183391000Y-60325000D01*
X183458039Y-60344685D01*
G37*
G04 #@! TD.AperFunction*
M02*
