M48
; DRILL file {KiCad 8.0.5} date 2024-10-07T10:06:29+0900
; FORMAT={-:-/ absolute / metric / decimal}
; #@! TF.CreationDate,2024-10-07T10:06:29+09:00
; #@! TF.GenerationSoftware,Kicad,Pcbnew,8.0.5
; #@! TF.FileFunction,Plated,1,2,PTH
FMAT,2
METRIC
; #@! TA.AperFunction,Plated,PTH,ViaDrill
T1C0.300
; #@! TA.AperFunction,Plated,PTH,ViaDrill
T2C0.500
; #@! TA.AperFunction,Plated,PTH,ComponentDrill
T3C0.840
; #@! TA.AperFunction,Plated,PTH,ComponentDrill
T4C0.890
; #@! TA.AperFunction,Plated,PTH,ComponentDrill
T5C1.000
; #@! TA.AperFunction,Plated,PTH,ComponentDrill
T6C1.800
; #@! TA.AperFunction,Plated,PTH,ComponentDrill
T7C1.850
; #@! TA.AperFunction,Plated,PTH,ComponentDrill
T8C2.010
; #@! TA.AperFunction,Plated,PTH,ComponentDrill
T9C2.700
%
G90
G05
T1
X101.6Y-88.265
X101.6Y-90.805
X102.87Y-95.885
T2
X108.585Y-97.155
X110.49Y-98.425
X113.665Y-88.265
X113.665Y-90.805
T3
X113.665Y-98.425
X113.665Y-100.965
X114.935Y-99.695
X116.205Y-98.425
X116.205Y-100.965
X122.555Y-98.425
X122.555Y-100.965
X123.825Y-99.695
X125.095Y-98.425
X125.095Y-100.965
T4
X93.98Y-94.615
X93.98Y-97.155
T5
X95.925Y-59.69
X98.425Y-59.69
X107.99Y-59.69
X110.49Y-59.69
X116.84Y-91.44
X139.7Y-99.06
X139.7Y-106.68
X162.56Y-59.69
X166.37Y-71.975
X166.37Y-99.475
X169.545Y-59.69
T6
X175.11Y-63.754
X179.07Y-63.754
T7
X182.245Y-91.68
X182.245Y-97.55
X182.485Y-73.265
X182.485Y-79.135
X188.115Y-91.68
X188.115Y-97.55
X188.355Y-73.265
X188.355Y-79.135
T8
X88.9Y-89.535
X88.9Y-99.695
T9
X131.445Y-60.579
X131.445Y-66.04
X131.445Y-71.501
X131.445Y-95.25
X131.445Y-100.711
X131.445Y-106.172
M30
