G04 #@! TF.GenerationSoftware,KiCad,Pcbnew,8.0.5*
G04 #@! TF.CreationDate,2024-10-07T10:06:27+09:00*
G04 #@! TF.ProjectId,doublepulse,646f7562-6c65-4707-956c-73652e6b6963,rev?*
G04 #@! TF.SameCoordinates,Original*
G04 #@! TF.FileFunction,Soldermask,Top*
G04 #@! TF.FilePolarity,Negative*
%FSLAX46Y46*%
G04 Gerber Fmt 4.6, Leading zero omitted, Abs format (unit mm)*
G04 Created by KiCad (PCBNEW 8.0.5) date 2024-10-07 10:06:27*
%MOMM*%
%LPD*%
G01*
G04 APERTURE LIST*
G04 Aperture macros list*
%AMRoundRect*
0 Rectangle with rounded corners*
0 $1 Rounding radius*
0 $2 $3 $4 $5 $6 $7 $8 $9 X,Y pos of 4 corners*
0 Add a 4 corners polygon primitive as box body*
4,1,4,$2,$3,$4,$5,$6,$7,$8,$9,$2,$3,0*
0 Add four circle primitives for the rounded corners*
1,1,$1+$1,$2,$3*
1,1,$1+$1,$4,$5*
1,1,$1+$1,$6,$7*
1,1,$1+$1,$8,$9*
0 Add four rect primitives between the rounded corners*
20,1,$1+$1,$2,$3,$4,$5,0*
20,1,$1+$1,$4,$5,$6,$7,0*
20,1,$1+$1,$6,$7,$8,$9,0*
20,1,$1+$1,$8,$9,$2,$3,0*%
G04 Aperture macros list end*
%ADD10RoundRect,0.050000X0.750000X-0.750000X0.750000X0.750000X-0.750000X0.750000X-0.750000X-0.750000X0*%
%ADD11C,1.600000*%
%ADD12RoundRect,0.271277X-0.366223X-0.503723X0.366223X-0.503723X0.366223X0.503723X-0.366223X0.503723X0*%
%ADD13RoundRect,0.050000X-1.150000X-1.150000X1.150000X-1.150000X1.150000X1.150000X-1.150000X1.150000X0*%
%ADD14C,3.300000*%
%ADD15O,2.600000X1.700000*%
%ADD16O,7.100000X3.600000*%
%ADD17RoundRect,0.050000X0.850000X-0.425000X0.850000X0.425000X-0.850000X0.425000X-0.850000X-0.425000X0*%
%ADD18RoundRect,0.050000X1.450000X1.450000X-1.450000X1.450000X-1.450000X-1.450000X1.450000X-1.450000X0*%
%ADD19C,3.100000*%
%ADD20C,1.900000*%
%ADD21C,1.500000*%
%ADD22RoundRect,0.269231X0.430769X0.655769X-0.430769X0.655769X-0.430769X-0.655769X0.430769X-0.655769X0*%
%ADD23C,4.100000*%
%ADD24RoundRect,0.271277X0.366223X0.503723X-0.366223X0.503723X-0.366223X-0.503723X0.366223X-0.503723X0*%
G04 APERTURE END LIST*
D10*
X166370000Y-99475000D03*
D11*
X166370000Y-71975000D03*
D12*
X110087500Y-90805000D03*
X112162500Y-90805000D03*
D13*
X162560000Y-59690000D03*
D14*
X182485000Y-73265000D03*
X182485000Y-79135000D03*
X188355000Y-73265000D03*
X188355000Y-79135000D03*
D15*
X93980000Y-94615000D03*
D16*
X88900000Y-99695000D03*
D15*
X93980000Y-97155000D03*
D16*
X88900000Y-89535000D03*
D14*
X182245000Y-91680000D03*
X182245000Y-97550000D03*
X188115000Y-91680000D03*
X188115000Y-97550000D03*
D17*
X110315000Y-93345000D03*
X110315000Y-94615000D03*
X110315000Y-95885000D03*
X110315000Y-97155000D03*
X104315000Y-97155000D03*
X104315000Y-95885000D03*
X104315000Y-94615000D03*
X104315000Y-93345000D03*
D14*
X187325000Y-60960000D03*
X85725000Y-60960000D03*
D18*
X179070000Y-63754000D03*
D19*
X175110000Y-63754000D03*
D20*
X98425000Y-59690000D03*
X95925000Y-59690000D03*
D13*
X139700000Y-99060000D03*
D21*
X123825000Y-99695000D03*
X122555000Y-98425000D03*
X122555000Y-100965000D03*
X125095000Y-98425000D03*
X125095000Y-100965000D03*
D12*
X110087500Y-88265000D03*
X112162500Y-88265000D03*
D22*
X120930001Y-95250000D03*
X117829999Y-95250000D03*
D13*
X139700000Y-106680000D03*
X169545000Y-59690000D03*
D21*
X114935000Y-99695000D03*
X113665000Y-98425000D03*
X113665000Y-100965000D03*
X116205000Y-98425000D03*
X116205000Y-100965000D03*
D20*
X110490000Y-59690000D03*
X107990000Y-59690000D03*
D14*
X187325000Y-107950000D03*
D23*
X131445000Y-95250000D03*
X131445000Y-100711000D03*
X131445000Y-106172000D03*
D13*
X116840000Y-91440000D03*
D24*
X105177500Y-88265000D03*
X103102500Y-88265000D03*
D14*
X85725000Y-107950000D03*
D24*
X105177500Y-90805000D03*
X103102500Y-90805000D03*
D23*
X131445000Y-60579000D03*
X131445000Y-66040000D03*
X131445000Y-71501000D03*
M02*
